Veleka-BoldItalic.ufo
<glyph name="exclam" format="1">
  <advance width="379"/>
  <unicode hex="0021"/>
  <outline>
    <contour>
      <point x="339" y="616" type="curve"/>
      <point x="339" y="616"/>
      <point x="251" y="347"/>
      <point x="204" y="208" type="curve"/>
      <point x="150" y="208" type="line"/>
      <point x="173" y="593" type="line" smooth="yes"/>
      <point x="173" y="649"/>
      <point x="221" y="687"/>
      <point x="271" y="687" type="curve" smooth="yes"/>
      <point x="320" y="687"/>
      <point x="339" y="665"/>
    </contour>
    <contour>
      <point x="240" y="65" type="curve" smooth="yes"/>
      <point x="240" y="21"/>
      <point x="202" y="-12"/>
      <point x="158" y="-12" type="curve" smooth="yes"/>
      <point x="115" y="-12"/>
      <point x="83" y="26"/>
      <point x="83" y="69" type="curve" smooth="yes"/>
      <point x="83" y="113"/>
      <point x="116" y="149"/>
      <point x="159" y="149" type="curve" smooth="yes"/>
      <point x="207" y="149"/>
      <point x="240" y="110"/>
    </contour>
  </outline>
</glyph>
<glyph name="ampersand" format="1">
  <advance width="745"/>
  <unicode hex="0026"/>
  <outline>
    <contour>
      <point x="713" y="313" type="line"/>
      <point x="639" y="305" type="line"/>
      <point x="611" y="248"/>
      <point x="567" y="184"/>
      <point x="517" y="132" type="curve"/>
      <point x="565" y="69"/>
      <point x="602" y="54"/>
      <point x="679" y="54" type="curve"/>
      <point x="679" y="2" type="line"/>
      <point x="631" y="0"/>
      <point x="608" y="-2"/>
      <point x="589" y="-3" type="curve" smooth="yes"/>
      <point x="564" y="-5"/>
      <point x="538" y="-4"/>
      <point x="513" y="0" type="curve" smooth="yes"/>
      <point x="480" y="7"/>
      <point x="454" y="22"/>
      <point x="425" y="53" type="curve"/>
      <point x="373" y="18"/>
      <point x="307" y="-11"/>
      <point x="211" y="-11" type="curve" smooth="yes"/>
      <point x="86" y="-11"/>
      <point x="12" y="58"/>
      <point x="12" y="157" type="curve" smooth="yes"/>
      <point x="12" y="255"/>
      <point x="88" y="319"/>
      <point x="183" y="368" type="curve"/>
      <point x="153" y="409"/>
      <point x="130" y="448"/>
      <point x="130" y="495" type="curve" smooth="yes"/>
      <point x="130" y="598"/>
      <point x="221" y="684"/>
      <point x="373" y="684" type="curve" smooth="yes"/>
      <point x="487" y="684"/>
      <point x="546" y="617"/>
      <point x="546" y="549" type="curve" smooth="yes"/>
      <point x="546" y="455"/>
      <point x="464" y="398"/>
      <point x="345" y="357" type="curve"/>
      <point x="465" y="202" type="line"/>
      <point x="489" y="233"/>
      <point x="508" y="268"/>
      <point x="521" y="294" type="curve" smooth="yes"/>
      <point x="522" y="296"/>
      <point x="520" y="303"/>
      <point x="519" y="303" type="curve" smooth="yes"/>
      <point x="460" y="313" type="line"/>
      <point x="460" y="367" type="line"/>
      <point x="713" y="367" type="line"/>
    </contour>
    <contour>
      <point x="408" y="541" type="curve" smooth="yes"/>
      <point x="408" y="584"/>
      <point x="399" y="625"/>
      <point x="353" y="625" type="curve" smooth="yes"/>
      <point x="330" y="625"/>
      <point x="261" y="598"/>
      <point x="261" y="521" type="curve" smooth="yes"/>
      <point x="261" y="480"/>
      <point x="282" y="438"/>
      <point x="306" y="406" type="curve"/>
      <point x="367" y="435"/>
      <point x="408" y="475"/>
    </contour>
    <contour>
      <point x="376" y="111" type="curve"/>
      <point x="226" y="309" type="line"/>
      <point x="184" y="276"/>
      <point x="159" y="236"/>
      <point x="159" y="186" type="curve" smooth="yes"/>
      <point x="159" y="104"/>
      <point x="222" y="62"/>
      <point x="262" y="62" type="curve" smooth="yes"/>
      <point x="304" y="62"/>
      <point x="329" y="77"/>
    </contour>
  </outline>
</glyph>
<glyph name="comma" format="1">
  <advance width="320"/>
  <unicode hex="002C"/>
  <outline>
    <contour>
      <point x="200" y="84" type="curve" smooth="yes"/>
      <point x="200" y="-32"/>
      <point x="58" y="-168"/>
      <point x="-55" y="-176" type="curve"/>
      <point x="-46" y="-127" type="line"/>
      <point x="28" y="-116"/>
      <point x="89" y="-70"/>
      <point x="101" y="7" type="curve"/>
      <point x="40" y="7" type="line"/>
      <point x="27" y="19"/>
      <point x="20" y="36"/>
      <point x="20" y="54" type="curve" smooth="yes"/>
      <point x="20" y="108"/>
      <point x="69" y="155"/>
      <point x="123" y="155" type="curve" smooth="yes"/>
      <point x="168" y="155"/>
      <point x="200" y="132"/>
    </contour>
  </outline>
</glyph>
<glyph name="five" format="1">
  <advance width="598"/>
  <unicode hex="0035"/>
  <outline>
    <contour>
      <point x="585" y="671" type="line"/>
      <point x="568" y="581" type="line"/>
      <point x="277" y="581" type="line"/>
      <point x="242" y="408" type="line"/>
      <point x="263" y="412"/>
      <point x="290" y="415"/>
      <point x="321" y="415" type="curve" smooth="yes"/>
      <point x="437" y="415"/>
      <point x="531" y="368"/>
      <point x="531" y="250" type="curve" smooth="yes"/>
      <point x="531" y="112"/>
      <point x="395" y="-16"/>
      <point x="198" y="-16" type="curve" smooth="yes"/>
      <point x="69" y="-16"/>
      <point x="10" y="26"/>
      <point x="10" y="81" type="curve" smooth="yes"/>
      <point x="10" y="116"/>
      <point x="45" y="156"/>
      <point x="93" y="156" type="curve" smooth="yes"/>
      <point x="113" y="156"/>
      <point x="124" y="143"/>
      <point x="140" y="140" type="curve"/>
      <point x="167" y="55" type="line"/>
      <point x="175" y="53"/>
      <point x="208" y="45"/>
      <point x="221" y="45" type="curve" smooth="yes"/>
      <point x="295" y="45"/>
      <point x="383" y="124"/>
      <point x="383" y="225" type="curve" smooth="yes"/>
      <point x="383" y="326"/>
      <point x="297" y="345"/>
      <point x="238" y="345" type="curve" smooth="yes"/>
      <point x="210" y="345"/>
      <point x="132" y="337"/>
      <point x="107" y="334" type="curve"/>
      <point x="177" y="671" type="line"/>
    </contour>
  </outline>
</glyph>
<glyph name="seven" format="1">
  <advance width="598"/>
  <unicode hex="0037"/>
  <outline>
    <contour>
      <point x="647" y="671" type="line"/>
      <point x="638" y="623" type="line"/>
      <point x="183" y="-9" type="line"/>
      <point x="176" y="-37" type="line"/>
      <point x="32" y="-37" type="line"/>
      <point x="478" y="581" type="line"/>
      <point x="206" y="581" type="line"/>
      <point x="174" y="492" type="line"/>
      <point x="93" y="492" type="line"/>
      <point x="129" y="671" type="line"/>
    </contour>
  </outline>
</glyph>
<glyph name="M" format="1">
  <advance width="903"/>
  <unicode hex="004D"/>
  <outline>
    <contour>
      <point x="945" y="621" type="line"/>
      <point x="877" y="614" type="line" smooth="yes"/>
      <point x="868" y="613"/>
      <point x="865" y="609"/>
      <point x="863" y="600" type="curve" smooth="yes"/>
      <point x="760" y="70" type="line" smooth="yes"/>
      <point x="758" y="58"/>
      <point x="765" y="56"/>
      <point x="778" y="55" type="curve" smooth="yes"/>
      <point x="778" y="55"/>
      <point x="808" y="53"/>
      <point x="836" y="50" type="curve"/>
      <point x="836" y="0" type="line"/>
      <point x="534" y="0" type="line"/>
      <point x="534" y="50" type="line"/>
      <point x="564" y="53"/>
      <point x="595" y="55"/>
      <point x="595" y="55" type="curve" smooth="yes"/>
      <point x="606" y="55"/>
      <point x="615" y="59"/>
      <point x="617" y="71" type="curve" smooth="yes"/>
      <point x="692" y="457" type="line"/>
      <point x="432" y="0" type="line"/>
      <point x="334" y="0" type="line"/>
      <point x="253" y="450" type="line"/>
      <point x="182" y="70" type="line" smooth="yes"/>
      <point x="179" y="59"/>
      <point x="187" y="56"/>
      <point x="196" y="55" type="curve" smooth="yes"/>
      <point x="196" y="55"/>
      <point x="226" y="53"/>
      <point x="257" y="50" type="curve"/>
      <point x="257" y="0" type="line"/>
      <point x="-14" y="0" type="line"/>
      <point x="-14" y="50" type="line"/>
      <point x="13" y="53"/>
      <point x="42" y="55"/>
      <point x="42" y="55" type="curve" smooth="yes"/>
      <point x="56" y="56"/>
      <point x="65" y="58"/>
      <point x="68" y="71" type="curve" smooth="yes"/>
      <point x="171" y="601" type="line" smooth="yes"/>
      <point x="173" y="613"/>
      <point x="166" y="615"/>
      <point x="153" y="616" type="curve" smooth="yes"/>
      <point x="153" y="616"/>
      <point x="123" y="618"/>
      <point x="95" y="621" type="curve"/>
      <point x="95" y="671" type="line"/>
      <point x="361" y="671" type="line"/>
      <point x="361" y="638" type="line"/>
      <point x="437" y="218" type="line"/>
      <point x="672" y="634" type="line"/>
      <point x="672" y="671" type="line"/>
      <point x="945" y="671" type="line"/>
    </contour>
  </outline>
</glyph>
<glyph name="Q" format="1">
  <advance width="751"/>
  <unicode hex="0051"/>
  <outline>
    <contour>
      <point x="764" y="-108" type="line"/>
      <point x="746" y="-117"/>
      <point x="649" y="-160"/>
      <point x="574" y="-160" type="curve" smooth="yes"/>
      <point x="450" y="-160"/>
      <point x="405" y="-92"/>
      <point x="370" y="-16" type="curve"/>
      <point x="361" y="-17"/>
      <point x="350" y="-18"/>
      <point x="338" y="-18" type="curve" smooth="yes"/>
      <point x="165" y="-18"/>
      <point x="46" y="89"/>
      <point x="46" y="259" type="curve" smooth="yes"/>
      <point x="46" y="459"/>
      <point x="193" y="687"/>
      <point x="442" y="687" type="curve" smooth="yes"/>
      <point x="632" y="687"/>
      <point x="732" y="564"/>
      <point x="732" y="416" type="curve" smooth="yes"/>
      <point x="732" y="310"/>
      <point x="699" y="128"/>
      <point x="513" y="22" type="curve"/>
      <point x="551" y="-46"/>
      <point x="565" y="-92"/>
      <point x="628" y="-92" type="curve" smooth="yes"/>
      <point x="663" y="-92"/>
      <point x="698" y="-75"/>
      <point x="764" y="-45" type="curve"/>
    </contour>
    <contour>
      <point x="577" y="416" type="curve" smooth="yes"/>
      <point x="577" y="545"/>
      <point x="506" y="626"/>
      <point x="437" y="626" type="curve" smooth="yes"/>
      <point x="316" y="626"/>
      <point x="200" y="443"/>
      <point x="200" y="254" type="curve" smooth="yes"/>
      <point x="200" y="126"/>
      <point x="270" y="44"/>
      <point x="347" y="44" type="curve" smooth="yes"/>
      <point x="463" y="44"/>
      <point x="577" y="239"/>
    </contour>
  </outline>
</glyph>
<glyph name="bracketleft" format="1">
  <advance width="448"/>
  <unicode hex="005B"/>
  <outline>
    <contour>
      <point x="498" y="708" type="line"/>
      <point x="486" y="648" type="line"/>
      <point x="333" y="648" type="line"/>
      <point x="189" y="-74" type="line"/>
      <point x="343" y="-74" type="line"/>
      <point x="331" y="-132" type="line"/>
      <point x="54" y="-132" type="line"/>
      <point x="220" y="708" type="line"/>
    </contour>
  </outline>
</glyph>
<glyph name="backslash" format="1">
  <advance width="494"/>
  <unicode hex="005C"/>
  <outline>
    <contour>
      <point x="494" y="-93" type="line"/>
      <point x="416" y="-93" type="line"/>
      <point x="0" y="671" type="line"/>
      <point x="78" y="671" type="line"/>
    </contour>
  </outline>
</glyph>
<glyph name="grave" format="1">
  <advance width="423"/>
  <unicode hex="0060"/>
  <outline>
    <contour>
      <point x="342" y="551" type="line"/>
      <point x="272" y="551" type="line"/>
      <point x="110" y="639" type="line" smooth="yes"/>
      <point x="96" y="647"/>
      <point x="85" y="668"/>
      <point x="85" y="681" type="curve" smooth="yes"/>
      <point x="85" y="705"/>
      <point x="99" y="734"/>
      <point x="142" y="734" type="curve" smooth="yes"/>
      <point x="169" y="734"/>
      <point x="182" y="727"/>
      <point x="205" y="702" type="curve" smooth="yes"/>
    </contour>
  </outline>
</glyph>
<glyph name="m" format="1">
  <advance width="826"/>
  <unicode hex="006D"/>
  <outline>
    <contour>
      <point x="823" y="29" type="line"/>
      <point x="773" y="3"/>
      <point x="727" y="-12"/>
      <point x="676" y="-12" type="curve" smooth="yes"/>
      <point x="615" y="-12"/>
      <point x="565" y="13"/>
      <point x="575" y="62" type="curve" smooth="yes"/>
      <point x="630" y="328" type="line" smooth="yes"/>
      <point x="643" y="390"/>
      <point x="637" y="422"/>
      <point x="611" y="422" type="curve" smooth="yes"/>
      <point x="552" y="422"/>
      <point x="508" y="363"/>
      <point x="494" y="341" type="curve"/>
      <point x="422" y="0" type="line"/>
      <point x="290" y="0" type="line"/>
      <point x="359" y="329" type="line" smooth="yes"/>
      <point x="367" y="368"/>
      <point x="378" y="422"/>
      <point x="335" y="422" type="curve" smooth="yes"/>
      <point x="293" y="422"/>
      <point x="248" y="370"/>
      <point x="222" y="339" type="curve"/>
      <point x="151" y="0" type="line"/>
      <point x="18" y="0" type="line"/>
      <point x="106" y="425" type="line"/>
      <point x="22" y="433" type="line"/>
      <point x="22" y="467" type="line"/>
      <point x="187" y="500" type="line"/>
      <point x="256" y="500" type="line"/>
      <point x="244" y="443" type="line"/>
      <point x="292" y="476"/>
      <point x="345" y="500"/>
      <point x="391" y="500" type="curve" smooth="yes"/>
      <point x="446" y="500"/>
      <point x="478" y="466"/>
      <point x="493" y="432" type="curve"/>
      <point x="545" y="471"/>
      <point x="613" y="500"/>
      <point x="665" y="500" type="curve" smooth="yes"/>
      <point x="736" y="500"/>
      <point x="789" y="448"/>
      <point x="772" y="369" type="curve" smooth="yes"/>
      <point x="715" y="100" type="line" smooth="yes"/>
      <point x="709" y="72"/>
      <point x="715" y="50"/>
      <point x="740" y="50" type="curve" smooth="yes"/>
      <point x="754" y="50"/>
      <point x="795" y="61"/>
      <point x="823" y="75" type="curve"/>
    </contour>
  </outline>
</glyph>
<glyph name="braceleft" format="1">
  <advance width="495"/>
  <unicode hex="007B"/>
  <outline>
    <contour>
      <point x="509" y="706" type="curve"/>
      <point x="499" y="651" type="line"/>
      <point x="499" y="651"/>
      <point x="435" y="654"/>
      <point x="398" y="624" type="curve" smooth="yes"/>
      <point x="327" y="565"/>
      <point x="367" y="413"/>
      <point x="270" y="336" type="curve" smooth="yes"/>
      <point x="220" y="295"/>
      <point x="166" y="292"/>
      <point x="155" y="292" type="curve"/>
      <point x="166" y="292"/>
      <point x="218" y="287"/>
      <point x="252" y="247" type="curve" smooth="yes"/>
      <point x="319" y="169"/>
      <point x="218" y="19"/>
      <point x="267" y="-40" type="curve" smooth="yes"/>
      <point x="292" y="-70"/>
      <point x="356" y="-67"/>
      <point x="356" y="-67" type="curve"/>
      <point x="345" y="-122" type="line"/>
      <point x="322" y="-122"/>
      <point x="197" y="-126"/>
      <point x="156" y="-81" type="curve" smooth="yes"/>
      <point x="81" y="0"/>
      <point x="192" y="175"/>
      <point x="145" y="234" type="curve" smooth="yes"/>
      <point x="114" y="273"/>
      <point x="41" y="262"/>
      <point x="41" y="262" type="curve"/>
      <point x="52" y="322" type="line"/>
      <point x="52" y="322"/>
      <point x="121" y="310"/>
      <point x="167" y="349" type="curve" smooth="yes"/>
      <point x="237" y="408"/>
      <point x="197" y="584"/>
      <point x="304" y="665" type="curve" smooth="yes"/>
      <point x="363" y="710"/>
      <point x="486" y="706"/>
    </contour>
  </outline>
</glyph>
<glyph name="braceright" format="1">
  <advance width="495"/>
  <unicode hex="007D"/>
  <outline>
    <contour>
      <point x="465" y="322" type="curve"/>
      <point x="454" y="262" type="line"/>
      <point x="454" y="262"/>
      <point x="385" y="273"/>
      <point x="338" y="234" type="curve" smooth="yes"/>
      <point x="268" y="174"/>
      <point x="309" y="0"/>
      <point x="203" y="-81" type="curve" smooth="yes"/>
      <point x="144" y="-126"/>
      <point x="20" y="-122"/>
      <point x="-3" y="-122" type="curve"/>
      <point x="8" y="-67" type="line"/>
      <point x="8" y="-67"/>
      <point x="71" y="-70"/>
      <point x="108" y="-40" type="curve" smooth="yes"/>
      <point x="179" y="18"/>
      <point x="138" y="169"/>
      <point x="235" y="247" type="curve" smooth="yes"/>
      <point x="284" y="286"/>
      <point x="337" y="291"/>
      <point x="350" y="292" type="curve"/>
      <point x="341" y="292"/>
      <point x="288" y="295"/>
      <point x="253" y="336" type="curve" smooth="yes"/>
      <point x="186" y="414"/>
      <point x="287" y="566"/>
      <point x="239" y="624" type="curve" smooth="yes"/>
      <point x="215" y="654"/>
      <point x="150" y="651"/>
      <point x="150" y="651" type="curve"/>
      <point x="161" y="706" type="line"/>
      <point x="184" y="706"/>
      <point x="309" y="710"/>
      <point x="351" y="665" type="curve" smooth="yes"/>
      <point x="425" y="584"/>
      <point x="314" y="408"/>
      <point x="361" y="349" type="curve" smooth="yes"/>
      <point x="392" y="310"/>
      <point x="465" y="322"/>
    </contour>
  </outline>
</glyph>
<glyph name="cent" format="1">
  <advance width="598"/>
  <unicode hex="00A2"/>
  <outline>
    <contour>
      <point x="562" y="468" type="curve"/>
      <point x="535" y="335" type="line"/>
      <point x="468" y="335" type="line"/>
      <point x="468" y="341"/>
      <point x="484" y="426"/>
      <point x="459" y="432" type="curve" smooth="yes"/>
      <point x="453" y="435"/>
      <point x="426" y="443"/>
      <point x="403" y="446" type="curve"/>
      <point x="324" y="42" type="line"/>
      <point x="345" y="43"/>
      <point x="368" y="48"/>
      <point x="376" y="51" type="curve" smooth="yes"/>
      <point x="415" y="57"/>
      <point x="412" y="121"/>
      <point x="427" y="157" type="curve"/>
      <point x="495" y="157" type="line"/>
      <point x="469" y="20" type="line"/>
      <point x="431" y="8"/>
      <point x="377" y="-7"/>
      <point x="314" y="-11" type="curve"/>
      <point x="294" y="-110" type="line"/>
      <point x="217" y="-110" type="line"/>
      <point x="237" y="-9" type="line"/>
      <point x="91" y="9"/>
      <point x="41" y="107"/>
      <point x="41" y="197" type="curve" smooth="yes"/>
      <point x="41" y="335"/>
      <point x="150" y="476"/>
      <point x="336" y="497" type="curve"/>
      <point x="354" y="592" type="line"/>
      <point x="432" y="592" type="line"/>
      <point x="414" y="499" type="line"/>
      <point x="463" y="495"/>
      <point x="505" y="484"/>
    </contour>
    <contour>
      <point x="324" y="434" type="line"/>
      <point x="244" y="403"/>
      <point x="169" y="317"/>
      <point x="169" y="188" type="curve" smooth="yes"/>
      <point x="169" y="116"/>
      <point x="205" y="73"/>
      <point x="249" y="54" type="curve"/>
    </contour>
  </outline>
</glyph>
<glyph name="yen" format="1">
  <advance width="598"/>
  <unicode hex="00A5"/>
  <outline>
    <contour>
      <point x="695" y="621" type="line"/>
      <point x="634" y="609" type="line"/>
      <point x="493" y="428" type="line"/>
      <point x="592" y="428" type="line"/>
      <point x="592" y="373" type="line"/>
      <point x="450" y="373" type="line"/>
      <point x="382" y="286" type="line"/>
      <point x="564" y="286" type="line"/>
      <point x="564" y="231" type="line"/>
      <point x="368" y="231" type="line"/>
      <point x="335" y="70" type="line" smooth="yes"/>
      <point x="333" y="58"/>
      <point x="340" y="56"/>
      <point x="354" y="55" type="curve" smooth="yes"/>
      <point x="354" y="55"/>
      <point x="383" y="53"/>
      <point x="411" y="50" type="curve"/>
      <point x="411" y="0" type="line"/>
      <point x="109" y="0" type="line"/>
      <point x="109" y="50" type="line"/>
      <point x="136" y="53"/>
      <point x="166" y="55"/>
      <point x="166" y="55" type="curve" smooth="yes"/>
      <point x="179" y="56"/>
      <point x="188" y="58"/>
      <point x="191" y="71" type="curve" smooth="yes"/>
      <point x="223" y="231" type="line"/>
      <point x="28" y="231" type="line"/>
      <point x="28" y="286" type="line"/>
      <point x="227" y="286" type="line"/>
      <point x="198" y="373" type="line"/>
      <point x="56" y="373" type="line"/>
      <point x="56" y="428" type="line"/>
      <point x="180" y="428" type="line"/>
      <point x="120" y="610" type="line"/>
      <point x="55" y="621" type="line"/>
      <point x="55" y="671" type="line"/>
      <point x="341" y="671" type="line"/>
      <point x="341" y="621" type="line"/>
      <point x="311" y="619"/>
      <point x="284" y="617"/>
      <point x="284" y="617" type="curve" smooth="yes"/>
      <point x="273" y="616"/>
      <point x="263" y="614"/>
      <point x="268" y="601" type="curve" smooth="yes"/>
      <point x="337" y="384" type="line"/>
      <point x="501" y="602" type="line" smooth="yes"/>
      <point x="506" y="607"/>
      <point x="505" y="616"/>
      <point x="490" y="617" type="curve" smooth="yes"/>
      <point x="440" y="621" type="line"/>
      <point x="440" y="671" type="line"/>
      <point x="695" y="671" type="line"/>
    </contour>
  </outline>
</glyph>
<glyph name="copyright" format="1">
  <advance width="836"/>
  <unicode hex="00A9"/>
  <outline>
    <contour>
      <point x="825" y="350" type="curve" smooth="yes"/>
      <point x="825" y="135"/>
      <point x="652" y="-39"/>
      <point x="437" y="-39" type="curve" smooth="yes"/>
      <point x="225" y="-39"/>
      <point x="51" y="135"/>
      <point x="51" y="350" type="curve" smooth="yes"/>
      <point x="51" y="564"/>
      <point x="225" y="739"/>
      <point x="439" y="739" type="curve" smooth="yes"/>
      <point x="650" y="739"/>
      <point x="825" y="565"/>
    </contour>
    <contour>
      <point x="777" y="350" type="curve" smooth="yes"/>
      <point x="777" y="539"/>
      <point x="626" y="692"/>
      <point x="439" y="692" type="curve" smooth="yes"/>
      <point x="253" y="692"/>
      <point x="99" y="541"/>
      <point x="99" y="348" type="curve" smooth="yes"/>
      <point x="99" y="162"/>
      <point x="250" y="8"/>
      <point x="438" y="8" type="curve" smooth="yes"/>
      <point x="626" y="8"/>
      <point x="777" y="163"/>
    </contour>
    <contour>
      <point x="608" y="139" type="line"/>
      <point x="608" y="139"/>
      <point x="549" y="114"/>
      <point x="463" y="114" type="curve" smooth="yes"/>
      <point x="321" y="114"/>
      <point x="220" y="201"/>
      <point x="220" y="350" type="curve" smooth="yes"/>
      <point x="220" y="479"/>
      <point x="313" y="585"/>
      <point x="467" y="585" type="curve" smooth="yes"/>
      <point x="557" y="585"/>
      <point x="608" y="558"/>
      <point x="608" y="558" type="curve"/>
      <point x="608" y="437" type="line"/>
      <point x="552" y="437" type="line"/>
      <point x="538" y="517" type="line"/>
      <point x="538" y="517"/>
      <point x="519" y="535"/>
      <point x="481" y="535" type="curve" smooth="yes"/>
      <point x="375" y="535"/>
      <point x="334" y="435"/>
      <point x="334" y="348" type="curve" smooth="yes"/>
      <point x="334" y="243"/>
      <point x="388" y="164"/>
      <point x="478" y="164" type="curve" smooth="yes"/>
      <point x="513" y="164"/>
      <point x="538" y="178"/>
      <point x="538" y="178" type="curve"/>
      <point x="552" y="264" type="line"/>
      <point x="608" y="264" type="line"/>
    </contour>
  </outline>
</glyph>
<glyph name="acute" format="1">
  <advance width="320"/>
  <unicode hex="00B4"/>
  <outline>
    <contour>
      <point x="407" y="681" type="curve" smooth="yes"/>
      <point x="407" y="668"/>
      <point x="396" y="647"/>
      <point x="381" y="639" type="curve" smooth="yes"/>
      <point x="220" y="551" type="line"/>
      <point x="150" y="551" type="line"/>
      <point x="287" y="702" type="line" smooth="yes"/>
      <point x="309" y="727"/>
      <point x="323" y="734"/>
      <point x="350" y="734" type="curve" smooth="yes"/>
      <point x="393" y="734"/>
      <point x="407" y="705"/>
    </contour>
  </outline>
</glyph>
<glyph name="mu" format="1">
  <advance width="583"/>
  <unicode hex="00B5"/>
  <outline>
    <contour>
      <point x="558" y="118" type="line"/>
      <point x="537" y="40"/>
      <point x="495" y="-12"/>
      <point x="410" y="-12" type="curve" smooth="yes"/>
      <point x="366" y="-12"/>
      <point x="340" y="30"/>
      <point x="333" y="68" type="curve"/>
      <point x="290" y="18"/>
      <point x="249" y="-12"/>
      <point x="180" y="-12" type="curve" smooth="yes"/>
      <point x="161" y="-12"/>
      <point x="124" y="13"/>
      <point x="111" y="27" type="curve"/>
      <point x="96" y="-44"/>
      <point x="108" y="-78"/>
      <point x="108" y="-146" type="curve" smooth="yes"/>
      <point x="108" y="-186"/>
      <point x="65" y="-222"/>
      <point x="26" y="-222" type="curve" smooth="yes"/>
      <point x="-1" y="-222"/>
      <point x="-28" y="-198"/>
      <point x="-28" y="-171" type="curve" smooth="yes"/>
      <point x="-28" y="-124"/>
      <point x="-5" y="-115"/>
      <point x="11" y="-76" type="curve" smooth="yes"/>
      <point x="30" y="-31"/>
      <point x="41" y="18"/>
      <point x="50" y="66" type="curve" smooth="yes"/>
      <point x="134" y="488" type="line"/>
      <point x="259" y="488" type="line"/>
      <point x="195" y="163" type="line" smooth="yes"/>
      <point x="192" y="149"/>
      <point x="190" y="134"/>
      <point x="190" y="119" type="curve" smooth="yes"/>
      <point x="190" y="97"/>
      <point x="203" y="61"/>
      <point x="230" y="61" type="curve" smooth="yes"/>
      <point x="272" y="61"/>
      <point x="307" y="99"/>
      <point x="336" y="125" type="curve"/>
      <point x="408" y="488" type="line"/>
      <point x="535" y="488" type="line"/>
      <point x="460" y="108" type="line" smooth="yes"/>
      <point x="458" y="96"/>
      <point x="453" y="55"/>
      <point x="471" y="55" type="curve" smooth="yes"/>
      <point x="501" y="55"/>
      <point x="516" y="96"/>
      <point x="525" y="118" type="curve"/>
    </contour>
  </outline>
</glyph>
<glyph name="threequarters" format="1">
  <advance width="907"/>
  <unicode hex="00BE"/>
  <outline>
    <contour>
      <point x="851" y="156" type="line"/>
      <point x="841" y="107" type="line"/>
      <point x="768" y="107" type="line"/>
      <point x="743" y="-18" type="line"/>
      <point x="660" y="-18" type="line"/>
      <point x="685" y="107" type="line"/>
      <point x="485" y="107" type="line"/>
      <point x="495" y="158" type="line"/>
      <point x="757" y="406" type="line"/>
      <point x="827" y="406" type="line"/>
      <point x="777" y="156" type="line"/>
    </contour>
    <contour>
      <point x="812" y="695" type="line"/>
      <point x="233" y="0" type="line"/>
      <point x="160" y="0" type="line"/>
      <point x="739" y="695" type="line"/>
    </contour>
    <contour>
      <point x="406" y="622" type="curve" smooth="yes"/>
      <point x="406" y="554"/>
      <point x="335" y="513"/>
      <point x="274" y="507" type="curve"/>
      <point x="321" y="507"/>
      <point x="384" y="487"/>
      <point x="384" y="430" type="curve" smooth="yes"/>
      <point x="384" y="329"/>
      <point x="257" y="289"/>
      <point x="175" y="289" type="curve" smooth="yes"/>
      <point x="135" y="289"/>
      <point x="56" y="303"/>
      <point x="56" y="357" type="curve" smooth="yes"/>
      <point x="56" y="389"/>
      <point x="82" y="408"/>
      <point x="112" y="408" type="curve" smooth="yes"/>
      <point x="121" y="408"/>
      <point x="130" y="406"/>
      <point x="138" y="402" type="curve"/>
      <point x="146" y="334" type="line"/>
      <point x="160" y="330"/>
      <point x="174" y="326"/>
      <point x="188" y="326" type="curve" smooth="yes"/>
      <point x="239" y="326"/>
      <point x="288" y="370"/>
      <point x="288" y="421" type="curve" smooth="yes"/>
      <point x="288" y="484"/>
      <point x="215" y="483"/>
      <point x="170" y="477" type="curve"/>
      <point x="179" y="522" type="line"/>
      <point x="239" y="518"/>
      <point x="310" y="535"/>
      <point x="310" y="609" type="curve" smooth="yes"/>
      <point x="310" y="647"/>
      <point x="276" y="665"/>
      <point x="242" y="665" type="curve" smooth="yes"/>
      <point x="231" y="665"/>
      <point x="221" y="663"/>
      <point x="210" y="660" type="curve"/>
      <point x="196" y="586" type="line"/>
      <point x="184" y="580"/>
      <point x="172" y="578"/>
      <point x="160" y="578" type="curve" smooth="yes"/>
      <point x="138" y="578"/>
      <point x="116" y="587"/>
      <point x="116" y="612" type="curve" smooth="yes"/>
      <point x="116" y="681"/>
      <point x="227" y="705"/>
      <point x="279" y="705" type="curve" smooth="yes"/>
      <point x="332" y="705"/>
      <point x="406" y="687"/>
    </contour>
    <contour>
      <point x="727" y="319" type="line"/>
      <point x="557" y="156" type="line"/>
      <point x="694" y="156" type="line"/>
    </contour>
  </outline>
</glyph>
<glyph name="questiondown" format="1">
  <advance width="521"/>
  <unicode hex="00BF"/>
  <outline>
    <contour>
      <point x="424" y="416" type="curve" smooth="yes"/>
      <point x="424" y="372"/>
      <point x="384" y="339"/>
      <point x="341" y="339" type="curve" smooth="yes"/>
      <point x="298" y="339"/>
      <point x="266" y="378"/>
      <point x="266" y="420" type="curve" smooth="yes"/>
      <point x="266" y="463"/>
      <point x="299" y="500"/>
      <point x="342" y="500" type="curve" smooth="yes"/>
      <point x="389" y="500"/>
      <point x="424" y="462"/>
    </contour>
    <contour>
      <point x="414" y="-64" type="curve" smooth="yes"/>
      <point x="414" y="-163"/>
      <point x="280" y="-199"/>
      <point x="202" y="-199" type="curve" smooth="yes"/>
      <point x="107" y="-199"/>
      <point x="9" y="-154"/>
      <point x="9" y="-46" type="curve" smooth="yes"/>
      <point x="9" y="91"/>
      <point x="151" y="181"/>
      <point x="272" y="205" type="curve"/>
      <point x="289" y="290" type="line"/>
      <point x="357" y="290" type="line"/>
      <point x="330" y="157" type="line"/>
      <point x="237" y="138"/>
      <point x="149" y="57"/>
      <point x="149" y="-43" type="curve" smooth="yes"/>
      <point x="149" y="-110"/>
      <point x="197" y="-138"/>
      <point x="258" y="-138" type="curve"/>
      <point x="272" y="-115"/>
      <point x="329" y="-16"/>
      <point x="329" y="-16" type="curve"/>
      <point x="358" y="-16" type="line" smooth="yes"/>
      <point x="386" y="-16"/>
      <point x="414" y="-33"/>
    </contour>
  </outline>
</glyph>
<glyph name="germandbls" format="1">
  <advance width="598"/>
  <unicode hex="00DF"/>
  <outline>
    <contour>
      <point x="585" y="602" type="curve" smooth="yes"/>
      <point x="585" y="543"/>
      <point x="565" y="481"/>
      <point x="549" y="425" type="curve"/>
      <point x="499" y="430"/>
      <point x="490" y="430"/>
      <point x="481" y="430" type="curve" smooth="yes"/>
      <point x="468" y="430"/>
      <point x="397" y="425"/>
      <point x="397" y="368" type="curve" smooth="yes"/>
      <point x="397" y="332"/>
      <point x="442" y="301"/>
      <point x="485" y="268" type="curve" smooth="yes"/>
      <point x="529" y="233"/>
      <point x="572" y="196"/>
      <point x="572" y="146" type="curve" smooth="yes"/>
      <point x="572" y="52"/>
      <point x="489" y="-14"/>
      <point x="362" y="-14" type="curve" smooth="yes"/>
      <point x="273" y="-14"/>
      <point x="225" y="17"/>
      <point x="225" y="83" type="curve" smooth="yes"/>
      <point x="225" y="114"/>
      <point x="260" y="153"/>
      <point x="304" y="153" type="curve" smooth="yes"/>
      <point x="346" y="153"/>
      <point x="341" y="137"/>
      <point x="353" y="130" type="curve"/>
      <point x="335" y="65" type="line"/>
      <point x="352" y="44"/>
      <point x="359" y="37"/>
      <point x="378" y="37" type="curve" smooth="yes"/>
      <point x="417" y="37"/>
      <point x="441" y="64"/>
      <point x="441" y="115" type="curve" smooth="yes"/>
      <point x="441" y="152"/>
      <point x="405" y="179"/>
      <point x="359" y="214" type="curve" smooth="yes"/>
      <point x="317" y="246"/>
      <point x="277" y="280"/>
      <point x="277" y="332" type="curve" smooth="yes"/>
      <point x="277" y="410"/>
      <point x="343" y="469"/>
      <point x="440" y="482" type="curve"/>
      <point x="451" y="523"/>
      <point x="461" y="564"/>
      <point x="461" y="604" type="curve" smooth="yes"/>
      <point x="461" y="653"/>
      <point x="430" y="679"/>
      <point x="390" y="679" type="curve" smooth="yes"/>
      <point x="325" y="679"/>
      <point x="269" y="602"/>
      <point x="239" y="490" type="curve" smooth="yes"/>
      <point x="191" y="314"/>
      <point x="207" y="137"/>
      <point x="143" y="-39" type="curve" smooth="yes"/>
      <point x="118" y="-105"/>
      <point x="9" y="-229"/>
      <point x="-77" y="-229" type="curve" smooth="yes"/>
      <point x="-125" y="-229"/>
      <point x="-160" y="-206"/>
      <point x="-160" y="-171" type="curve" smooth="yes"/>
      <point x="-160" y="-154"/>
      <point x="-151" y="-139"/>
      <point x="-122" y="-117" type="curve"/>
      <point x="-22" y="-144" type="line"/>
      <point x="13" y="-96"/>
      <point x="34" y="22"/>
      <point x="41" y="65" type="curve" smooth="yes"/>
      <point x="100" y="453" type="line" smooth="yes"/>
      <point x="121" y="591"/>
      <point x="199" y="737"/>
      <point x="396" y="737" type="curve" smooth="yes"/>
      <point x="514" y="737"/>
      <point x="585" y="685"/>
    </contour>
  </outline>
</glyph>
<glyph name="cacute" format="1">
  <advance width="480"/>
  <unicode hex="0107"/>
  <outline>
    <contour>
      <point x="450" y="426" type="curve" smooth="yes"/>
      <point x="450" y="402"/>
      <point x="429" y="349"/>
      <point x="354" y="349" type="curve"/>
      <point x="299" y="427" type="line"/>
      <point x="186" y="402"/>
      <point x="170" y="230"/>
      <point x="170" y="189" type="curve" smooth="yes"/>
      <point x="170" y="128"/>
      <point x="176" y="62"/>
      <point x="240" y="62" type="curve" smooth="yes"/>
      <point x="290" y="62"/>
      <point x="338" y="86"/>
      <point x="428" y="194" type="curve"/>
      <point x="428" y="94" type="line"/>
      <point x="373" y="30"/>
      <point x="304" y="-12"/>
      <point x="209" y="-12" type="curve" smooth="yes"/>
      <point x="87" y="-12"/>
      <point x="33" y="64"/>
      <point x="33" y="178" type="curve" smooth="yes"/>
      <point x="33" y="351"/>
      <point x="144" y="500"/>
      <point x="335" y="500" type="curve" smooth="yes"/>
      <point x="414" y="500"/>
      <point x="450" y="458"/>
    </contour>
    <contour>
      <point x="501" y="681" type="curve" smooth="yes"/>
      <point x="501" y="668"/>
      <point x="490" y="647"/>
      <point x="475" y="639" type="curve" smooth="yes"/>
      <point x="314" y="551" type="line"/>
      <point x="244" y="551" type="line"/>
      <point x="381" y="702" type="line" smooth="yes"/>
      <point x="403" y="727"/>
      <point x="417" y="734"/>
      <point x="444" y="734" type="curve" smooth="yes"/>
      <point x="487" y="734"/>
      <point x="501" y="705"/>
    </contour>
  </outline>
</glyph>
<glyph name="ccircumflex" format="1">
  <advance width="480"/>
  <unicode hex="0109"/>
  <outline>
    <contour>
      <point x="450" y="426" type="curve" smooth="yes"/>
      <point x="450" y="402"/>
      <point x="429" y="349"/>
      <point x="354" y="349" type="curve"/>
      <point x="299" y="427" type="line"/>
      <point x="186" y="402"/>
      <point x="170" y="230"/>
      <point x="170" y="189" type="curve" smooth="yes"/>
      <point x="170" y="128"/>
      <point x="176" y="62"/>
      <point x="240" y="62" type="curve" smooth="yes"/>
      <point x="290" y="62"/>
      <point x="338" y="86"/>
      <point x="428" y="194" type="curve"/>
      <point x="428" y="94" type="line"/>
      <point x="373" y="30"/>
      <point x="304" y="-12"/>
      <point x="209" y="-12" type="curve" smooth="yes"/>
      <point x="87" y="-12"/>
      <point x="33" y="64"/>
      <point x="33" y="178" type="curve" smooth="yes"/>
      <point x="33" y="351"/>
      <point x="144" y="500"/>
      <point x="335" y="500" type="curve" smooth="yes"/>
      <point x="414" y="500"/>
      <point x="450" y="458"/>
    </contour>
    <contour>
      <point x="500" y="551" type="line"/>
      <point x="416" y="551" type="line"/>
      <point x="349" y="646" type="line"/>
      <point x="243" y="551" type="line"/>
      <point x="160" y="551" type="line"/>
      <point x="305" y="722" type="line"/>
      <point x="422" y="722" type="line"/>
    </contour>
  </outline>
</glyph>
<glyph name="Iogonek" format="1">
  <advance width="355"/>
  <unicode hex="012E"/>
  <outline>
    <contour>
      <point x="398" y="621" type="line"/>
      <point x="329" y="616" type="line" smooth="yes"/>
      <point x="319" y="615"/>
      <point x="316" y="609"/>
      <point x="314" y="600" type="curve" smooth="yes"/>
      <point x="210" y="70" type="line" smooth="yes"/>
      <point x="208" y="59"/>
      <point x="212" y="56"/>
      <point x="225" y="55" type="curve" smooth="yes"/>
      <point x="225" y="55"/>
      <point x="256" y="53"/>
      <point x="288" y="50" type="curve"/>
      <point x="288" y="0" type="line"/>
      <point x="-15" y="0" type="line"/>
      <point x="-15" y="50" type="line"/>
      <point x="14" y="52"/>
      <point x="44" y="54"/>
      <point x="44" y="54" type="curve" smooth="yes"/>
      <point x="59" y="55"/>
      <point x="65" y="57"/>
      <point x="67" y="71" type="curve" smooth="yes"/>
      <point x="171" y="601" type="line" smooth="yes"/>
      <point x="174" y="613"/>
      <point x="166" y="615"/>
      <point x="153" y="616" type="curve" smooth="yes"/>
      <point x="153" y="616"/>
      <point x="123" y="618"/>
      <point x="96" y="621" type="curve"/>
      <point x="96" y="671" type="line"/>
      <point x="398" y="671" type="line"/>
    </contour>
    <contour>
      <point x="209" y="-177" type="line"/>
      <point x="184" y="-188"/>
      <point x="134" y="-208"/>
      <point x="108" y="-208" type="curve" smooth="yes"/>
      <point x="65" y="-208"/>
      <point x="13" y="-191"/>
      <point x="13" y="-140" type="curve" smooth="yes"/>
      <point x="13" y="-81"/>
      <point x="73" y="-28"/>
      <point x="120" y="1" type="curve"/>
      <point x="183" y="1" type="line"/>
      <point x="146" y="-23"/>
      <point x="98" y="-63"/>
      <point x="98" y="-111" type="curve" smooth="yes"/>
      <point x="98" y="-136"/>
      <point x="116" y="-150"/>
      <point x="140" y="-150" type="curve" smooth="yes"/>
      <point x="153" y="-150"/>
      <point x="177" y="-133"/>
      <point x="189" y="-125" type="curve"/>
    </contour>
  </outline>
</glyph>
<glyph name="iogonek" format="1">
  <advance width="310"/>
  <unicode hex="012F"/>
  <outline>
    <contour>
      <point x="295" y="663" type="curve" smooth="yes"/>
      <point x="295" y="620"/>
      <point x="260" y="585"/>
      <point x="217" y="585" type="curve" smooth="yes"/>
      <point x="174" y="585"/>
      <point x="140" y="620"/>
      <point x="140" y="663" type="curve" smooth="yes"/>
      <point x="140" y="706"/>
      <point x="174" y="740"/>
      <point x="217" y="740" type="curve" smooth="yes"/>
      <point x="260" y="740"/>
      <point x="295" y="706"/>
    </contour>
    <contour>
      <point x="308" y="32" type="line"/>
      <point x="248" y="0"/>
      <point x="197" y="-12"/>
      <point x="139" y="-12" type="curve" smooth="yes"/>
      <point x="66" y="-12"/>
      <point x="40" y="42"/>
      <point x="50" y="91" type="curve" smooth="yes"/>
      <point x="113" y="423" type="line"/>
      <point x="27" y="432" type="line"/>
      <point x="27" y="467" type="line"/>
      <point x="192" y="500" type="line"/>
      <point x="262" y="500" type="line"/>
      <point x="185" y="99" type="line" smooth="yes"/>
      <point x="180" y="75"/>
      <point x="180" y="53"/>
      <point x="204" y="53" type="curve" smooth="yes"/>
      <point x="215" y="53"/>
      <point x="271" y="67"/>
      <point x="308" y="87" type="curve"/>
    </contour>
    <contour>
      <point x="224" y="-177" type="line"/>
      <point x="199" y="-188"/>
      <point x="149" y="-208"/>
      <point x="123" y="-208" type="curve" smooth="yes"/>
      <point x="80" y="-208"/>
      <point x="27" y="-191"/>
      <point x="27" y="-140" type="curve" smooth="yes"/>
      <point x="27" y="-81"/>
      <point x="87" y="-28"/>
      <point x="134" y="1" type="curve"/>
      <point x="197" y="1" type="line"/>
      <point x="160" y="-23"/>
      <point x="112" y="-63"/>
      <point x="112" y="-111" type="curve" smooth="yes"/>
      <point x="112" y="-136"/>
      <point x="130" y="-150"/>
      <point x="154" y="-150" type="curve" smooth="yes"/>
      <point x="167" y="-150"/>
      <point x="192" y="-133"/>
      <point x="204" y="-125" type="curve"/>
    </contour>
  </outline>
</glyph>
<glyph name="Jcircumflex" format="1">
  <advance width="509"/>
  <unicode hex="0134"/>
  <outline>
    <contour>
      <point x="549" y="621" type="line"/>
      <point x="481" y="615" type="line" smooth="yes"/>
      <point x="472" y="615"/>
      <point x="469" y="609"/>
      <point x="467" y="600" type="curve" smooth="yes"/>
      <point x="403" y="257" type="line" smooth="yes"/>
      <point x="374" y="99"/>
      <point x="330" y="-16"/>
      <point x="133" y="-16" type="curve" smooth="yes"/>
      <point x="44" y="-16"/>
      <point x="-6" y="11"/>
      <point x="-20" y="18" type="curve"/>
      <point x="14" y="192" type="line"/>
      <point x="96" y="192" type="line"/>
      <point x="96" y="66" type="line" smooth="yes"/>
      <point x="96" y="55"/>
      <point x="125" y="46"/>
      <point x="140" y="46" type="curve" smooth="yes"/>
      <point x="198" y="46"/>
      <point x="233" y="112"/>
      <point x="258" y="249" type="curve" smooth="yes"/>
      <point x="324" y="601" type="line" smooth="yes"/>
      <point x="326" y="613"/>
      <point x="319" y="615"/>
      <point x="306" y="616" type="curve" smooth="yes"/>
      <point x="306" y="616"/>
      <point x="275" y="618"/>
      <point x="247" y="621" type="curve"/>
      <point x="247" y="671" type="line"/>
      <point x="549" y="671" type="line"/>
    </contour>
    <contour>
      <point x="598" y="746" type="line"/>
      <point x="514" y="746" type="line"/>
      <point x="447" y="841" type="line"/>
      <point x="341" y="746" type="line"/>
      <point x="258" y="746" type="line"/>
      <point x="403" y="917" type="line"/>
      <point x="521" y="917" type="line"/>
    </contour>
  </outline>
</glyph>
<glyph name="jcircumflex" format="1">
  <advance width="317"/>
  <unicode hex="0135"/>
  <outline>
    <contour>
      <point x="275" y="500" type="line"/>
      <point x="204" y="84" type="line" smooth="yes"/>
      <point x="186" y="-17"/>
      <point x="96" y="-229"/>
      <point x="-42" y="-229" type="curve" smooth="yes"/>
      <point x="-89" y="-229"/>
      <point x="-129" y="-204"/>
      <point x="-129" y="-171" type="curve" smooth="yes"/>
      <point x="-129" y="-146"/>
      <point x="-111" y="-132"/>
      <point x="-88" y="-117" type="curve"/>
      <point x="7" y="-142" type="line"/>
      <point x="25" y="-114"/>
      <point x="46" y="-55"/>
      <point x="55" y="-6" type="curve" smooth="yes"/>
      <point x="129" y="422" type="line"/>
      <point x="43" y="431" type="line"/>
      <point x="43" y="467" type="line"/>
      <point x="209" y="500" type="line"/>
    </contour>
    <contour>
      <point x="425" y="551" type="line"/>
      <point x="341" y="551" type="line"/>
      <point x="274" y="646" type="line"/>
      <point x="168" y="551" type="line"/>
      <point x="85" y="551" type="line"/>
      <point x="230" y="722" type="line"/>
      <point x="348" y="722" type="line"/>
    </contour>
  </outline>
</glyph>
<glyph name="Lcaron" format="1">
  <advance width="560"/>
  <unicode hex="013D"/>
  <outline>
    <contour>
      <point x="528" y="202" type="line"/>
      <point x="488" y="0" type="line"/>
      <point x="-15" y="0" type="line"/>
      <point x="-15" y="50" type="line"/>
      <point x="12" y="53"/>
      <point x="42" y="54"/>
      <point x="42" y="54" type="curve" smooth="yes"/>
      <point x="61" y="56"/>
      <point x="65" y="58"/>
      <point x="67" y="71" type="curve" smooth="yes"/>
      <point x="171" y="601" type="line" smooth="yes"/>
      <point x="174" y="612"/>
      <point x="166" y="615"/>
      <point x="155" y="616" type="curve" smooth="yes"/>
      <point x="155" y="616"/>
      <point x="125" y="618"/>
      <point x="96" y="621" type="curve"/>
      <point x="96" y="671" type="line"/>
      <point x="398" y="671" type="line"/>
      <point x="398" y="621" type="line"/>
      <point x="365" y="618"/>
      <point x="333" y="616"/>
      <point x="333" y="616" type="curve" smooth="yes"/>
      <point x="324" y="615"/>
      <point x="317" y="612"/>
      <point x="314" y="600" type="curve" smooth="yes"/>
      <point x="208" y="60" type="line"/>
      <point x="384" y="60" type="line" smooth="yes"/>
      <point x="394" y="60"/>
      <point x="409" y="66"/>
      <point x="412" y="74" type="curve" smooth="yes"/>
      <point x="453" y="202" type="line"/>
    </contour>
    <contour>
      <point x="604" y="656" type="curve" smooth="yes"/>
      <point x="604" y="572"/>
      <point x="505" y="520"/>
      <point x="434" y="507" type="curve"/>
      <point x="442" y="547" type="line"/>
      <point x="475" y="556"/>
      <point x="520" y="584"/>
      <point x="528" y="621" type="curve"/>
      <point x="465" y="621" type="line"/>
      <point x="456" y="630"/>
      <point x="452" y="642"/>
      <point x="452" y="654" type="curve" smooth="yes"/>
      <point x="452" y="698"/>
      <point x="493" y="723"/>
      <point x="532" y="723" type="curve" smooth="yes"/>
      <point x="573" y="723"/>
      <point x="604" y="698"/>
    </contour>
  </outline>
</glyph>
<glyph name="nacute" format="1">
  <advance width="578"/>
  <unicode hex="0144"/>
  <outline>
    <contour>
      <point x="574" y="23" type="line"/>
      <point x="539" y="6"/>
      <point x="464" y="-12"/>
      <point x="418" y="-12" type="curve" smooth="yes"/>
      <point x="374" y="-12"/>
      <point x="306" y="-2"/>
      <point x="317" y="51" type="curve" smooth="yes"/>
      <point x="378" y="356" type="line" smooth="yes"/>
      <point x="388" y="405"/>
      <point x="375" y="421"/>
      <point x="354" y="421" type="curve" smooth="yes"/>
      <point x="323" y="421"/>
      <point x="270" y="382"/>
      <point x="228" y="339" type="curve"/>
      <point x="157" y="0" type="line"/>
      <point x="24" y="0" type="line"/>
      <point x="112" y="425" type="line"/>
      <point x="28" y="433" type="line"/>
      <point x="28" y="467" type="line"/>
      <point x="192" y="500" type="line"/>
      <point x="261" y="500" type="line"/>
      <point x="249" y="442" type="line"/>
      <point x="298" y="475"/>
      <point x="358" y="500"/>
      <point x="410" y="500" type="curve" smooth="yes"/>
      <point x="510" y="500"/>
      <point x="535" y="454"/>
      <point x="519" y="369" type="curve" smooth="yes"/>
      <point x="465" y="88" type="line" smooth="yes"/>
      <point x="459" y="55"/>
      <point x="479" y="49"/>
      <point x="489" y="49" type="curve" smooth="yes"/>
      <point x="510" y="49"/>
      <point x="542" y="58"/>
      <point x="572" y="71" type="curve"/>
    </contour>
    <contour>
      <point x="516" y="681" type="curve" smooth="yes"/>
      <point x="516" y="668"/>
      <point x="504" y="647"/>
      <point x="489" y="639" type="curve" smooth="yes"/>
      <point x="329" y="551" type="line"/>
      <point x="258" y="551" type="line"/>
      <point x="396" y="702" type="line" smooth="yes"/>
      <point x="418" y="727"/>
      <point x="431" y="734"/>
      <point x="458" y="734" type="curve" smooth="yes"/>
      <point x="501" y="734"/>
      <point x="516" y="705"/>
    </contour>
  </outline>
</glyph>
<glyph name="Obreve" format="1">
  <advance width="751"/>
  <unicode hex="014E"/>
  <outline>
    <contour>
      <point x="733" y="417" type="curve" smooth="yes"/>
      <point x="733" y="212"/>
      <point x="603" y="-16"/>
      <point x="341" y="-16" type="curve" smooth="yes"/>
      <point x="155" y="-16"/>
      <point x="48" y="101"/>
      <point x="48" y="263" type="curve" smooth="yes"/>
      <point x="48" y="471"/>
      <point x="194" y="687"/>
      <point x="441" y="687" type="curve" smooth="yes"/>
      <point x="634" y="687"/>
      <point x="733" y="559"/>
    </contour>
    <contour>
      <point x="577" y="417" type="curve" smooth="yes"/>
      <point x="577" y="551"/>
      <point x="501" y="627"/>
      <point x="432" y="627" type="curve" smooth="yes"/>
      <point x="313" y="627"/>
      <point x="203" y="435"/>
      <point x="203" y="255" type="curve" smooth="yes"/>
      <point x="203" y="117"/>
      <point x="282" y="46"/>
      <point x="348" y="46" type="curve" smooth="yes"/>
      <point x="466" y="46"/>
      <point x="577" y="243"/>
    </contour>
    <contour>
      <point x="648" y="909" type="line"/>
      <point x="630" y="814"/>
      <point x="559" y="746"/>
      <point x="460" y="746" type="curve" smooth="yes"/>
      <point x="382" y="746"/>
      <point x="332" y="788"/>
      <point x="332" y="867" type="curve" smooth="yes"/>
      <point x="332" y="881"/>
      <point x="333" y="895"/>
      <point x="336" y="909" type="curve"/>
      <point x="389" y="909" type="line"/>
      <point x="390" y="855"/>
      <point x="425" y="827"/>
      <point x="477" y="827" type="curve" smooth="yes"/>
      <point x="532" y="827"/>
      <point x="576" y="858"/>
      <point x="597" y="909" type="curve"/>
    </contour>
  </outline>
</glyph>
<glyph name="racute" format="1">
  <advance width="418"/>
  <unicode hex="0155"/>
  <outline>
    <contour>
      <point x="456" y="429" type="curve" smooth="yes"/>
      <point x="456" y="383"/>
      <point x="429" y="360"/>
      <point x="361" y="360" type="curve"/>
      <point x="334" y="414" type="line"/>
      <point x="271" y="383"/>
      <point x="219" y="324"/>
      <point x="207" y="264" type="curve" smooth="yes"/>
      <point x="151" y="0" type="line"/>
      <point x="18" y="0" type="line"/>
      <point x="106" y="423" type="line"/>
      <point x="22" y="432" type="line"/>
      <point x="22" y="467" type="line"/>
      <point x="188" y="500" type="line"/>
      <point x="257" y="500" type="line"/>
      <point x="244" y="433" type="line"/>
      <point x="280" y="470"/>
      <point x="330" y="500"/>
      <point x="380" y="500" type="curve" smooth="yes"/>
      <point x="432" y="500"/>
      <point x="456" y="458"/>
    </contour>
    <contour>
      <point x="442" y="681" type="curve" smooth="yes"/>
      <point x="442" y="668"/>
      <point x="431" y="647"/>
      <point x="416" y="639" type="curve" smooth="yes"/>
      <point x="255" y="551" type="line"/>
      <point x="185" y="551" type="line"/>
      <point x="322" y="702" type="line" smooth="yes"/>
      <point x="344" y="727"/>
      <point x="358" y="734"/>
      <point x="385" y="734" type="curve" smooth="yes"/>
      <point x="428" y="734"/>
      <point x="442" y="705"/>
    </contour>
  </outline>
</glyph>
<glyph name="scedilla" format="1">
  <advance width="415"/>
  <unicode hex="015F"/>
  <outline>
    <contour>
      <point x="394" y="423" type="curve" smooth="yes"/>
      <point x="394" y="378"/>
      <point x="371" y="358"/>
      <point x="310" y="354" type="curve"/>
      <point x="259" y="441" type="line"/>
      <point x="259" y="441"/>
      <point x="248" y="445"/>
      <point x="233" y="445" type="curve" smooth="yes"/>
      <point x="193" y="445"/>
      <point x="191" y="408"/>
      <point x="191" y="383" type="curve" smooth="yes"/>
      <point x="191" y="342"/>
      <point x="237" y="304"/>
      <point x="280" y="271" type="curve" smooth="yes"/>
      <point x="325" y="236"/>
      <point x="368" y="197"/>
      <point x="368" y="148" type="curve" smooth="yes"/>
      <point x="368" y="71"/>
      <point x="295" y="-12"/>
      <point x="145" y="-12" type="curve" smooth="yes"/>
      <point x="40" y="-12"/>
      <point x="-7" y="35"/>
      <point x="-7" y="83" type="curve" smooth="yes"/>
      <point x="-7" y="118"/>
      <point x="22" y="151"/>
      <point x="49" y="151" type="curve" smooth="yes"/>
      <point x="78" y="151"/>
      <point x="98" y="141"/>
      <point x="111" y="127" type="curve"/>
      <point x="93" y="68" type="line"/>
      <point x="107" y="48"/>
      <point x="148" y="37"/>
      <point x="175" y="37" type="curve" smooth="yes"/>
      <point x="215" y="37"/>
      <point x="235" y="67"/>
      <point x="235" y="114" type="curve" smooth="yes"/>
      <point x="235" y="155"/>
      <point x="202" y="183"/>
      <point x="153" y="220" type="curve" smooth="yes"/>
      <point x="111" y="252"/>
      <point x="70" y="296"/>
      <point x="70" y="346" type="curve" smooth="yes"/>
      <point x="70" y="440"/>
      <point x="165" y="500"/>
      <point x="272" y="500" type="curve" smooth="yes"/>
      <point x="355" y="500"/>
      <point x="394" y="448"/>
    </contour>
    <contour>
      <point x="257" y="-113" type="curve" smooth="yes"/>
      <point x="257" y="-191"/>
      <point x="182" y="-231"/>
      <point x="112" y="-231" type="curve" smooth="yes"/>
      <point x="71" y="-231"/>
      <point x="33" y="-220"/>
      <point x="33" y="-220" type="curve"/>
      <point x="43" y="-170" type="line"/>
      <point x="43" y="-170"/>
      <point x="80" y="-178"/>
      <point x="105" y="-178" type="curve" smooth="yes"/>
      <point x="131" y="-178"/>
      <point x="170" y="-171"/>
      <point x="170" y="-137" type="curve" smooth="yes"/>
      <point x="170" y="-118"/>
      <point x="153" y="-110"/>
      <point x="133" y="-110" type="curve" smooth="yes"/>
      <point x="126" y="-110"/>
      <point x="110" y="-112"/>
      <point x="110" y="-112" type="curve"/>
      <point x="137" y="24" type="line"/>
      <point x="188" y="24" type="line"/>
      <point x="172" y="-54" type="line"/>
      <point x="172" y="-54"/>
      <point x="177" y="-55"/>
      <point x="187" y="-55" type="curve" smooth="yes"/>
      <point x="227" y="-55"/>
      <point x="257" y="-73"/>
    </contour>
  </outline>
</glyph>
<glyph name="scaron" format="1">
  <advance width="415"/>
  <unicode hex="0161"/>
  <outline>
    <contour>
      <point x="394" y="423" type="curve" smooth="yes"/>
      <point x="394" y="378"/>
      <point x="371" y="358"/>
      <point x="310" y="354" type="curve"/>
      <point x="259" y="441" type="line"/>
      <point x="259" y="441"/>
      <point x="248" y="445"/>
      <point x="233" y="445" type="curve" smooth="yes"/>
      <point x="193" y="445"/>
      <point x="191" y="408"/>
      <point x="191" y="383" type="curve" smooth="yes"/>
      <point x="191" y="342"/>
      <point x="237" y="304"/>
      <point x="280" y="271" type="curve" smooth="yes"/>
      <point x="325" y="236"/>
      <point x="368" y="197"/>
      <point x="368" y="148" type="curve" smooth="yes"/>
      <point x="368" y="71"/>
      <point x="295" y="-12"/>
      <point x="145" y="-12" type="curve" smooth="yes"/>
      <point x="40" y="-12"/>
      <point x="-7" y="35"/>
      <point x="-7" y="83" type="curve" smooth="yes"/>
      <point x="-7" y="118"/>
      <point x="22" y="151"/>
      <point x="49" y="151" type="curve" smooth="yes"/>
      <point x="78" y="151"/>
      <point x="98" y="141"/>
      <point x="111" y="127" type="curve"/>
      <point x="93" y="68" type="line"/>
      <point x="107" y="48"/>
      <point x="148" y="37"/>
      <point x="175" y="37" type="curve" smooth="yes"/>
      <point x="215" y="37"/>
      <point x="235" y="67"/>
      <point x="235" y="114" type="curve" smooth="yes"/>
      <point x="235" y="155"/>
      <point x="202" y="183"/>
      <point x="153" y="220" type="curve" smooth="yes"/>
      <point x="111" y="252"/>
      <point x="70" y="296"/>
      <point x="70" y="346" type="curve" smooth="yes"/>
      <point x="70" y="440"/>
      <point x="165" y="500"/>
      <point x="272" y="500" type="curve" smooth="yes"/>
      <point x="355" y="500"/>
      <point x="394" y="448"/>
    </contour>
    <contour>
      <point x="480" y="722" type="line"/>
      <point x="335" y="551" type="line"/>
      <point x="217" y="551" type="line"/>
      <point x="140" y="722" type="line"/>
      <point x="223" y="722" type="line"/>
      <point x="292" y="628" type="line"/>
      <point x="397" y="722" type="line"/>
    </contour>
  </outline>
</glyph>
<glyph name="tcaron" format="1">
  <advance width="344"/>
  <unicode hex="0165"/>
  <outline>
    <contour>
      <point x="393" y="418" type="line"/>
      <point x="244" y="418" type="line"/>
      <point x="181" y="109" type="line" smooth="yes"/>
      <point x="174" y="78"/>
      <point x="189" y="57"/>
      <point x="220" y="57" type="curve" smooth="yes"/>
      <point x="251" y="57"/>
      <point x="313" y="81"/>
      <point x="345" y="92" type="curve"/>
      <point x="345" y="37" type="line"/>
      <point x="323" y="27"/>
      <point x="223" y="-12"/>
      <point x="160" y="-12" type="curve" smooth="yes"/>
      <point x="83" y="-12"/>
      <point x="46" y="26"/>
      <point x="46" y="78" type="curve" smooth="yes"/>
      <point x="46" y="91"/>
      <point x="47" y="104"/>
      <point x="50" y="118" type="curve" smooth="yes"/>
      <point x="111" y="416" type="line"/>
      <point x="39" y="408" type="line"/>
      <point x="39" y="449" type="line"/>
      <point x="124" y="483" type="line"/>
      <point x="175" y="586" type="line"/>
      <point x="275" y="586" type="line"/>
      <point x="254" y="473" type="line"/>
      <point x="393" y="473" type="line"/>
    </contour>
    <contour>
      <point x="490" y="700" type="curve" smooth="yes"/>
      <point x="490" y="616"/>
      <point x="391" y="564"/>
      <point x="320" y="551" type="curve"/>
      <point x="329" y="591" type="line"/>
      <point x="362" y="600"/>
      <point x="407" y="628"/>
      <point x="415" y="665" type="curve"/>
      <point x="352" y="665" type="line"/>
      <point x="343" y="674"/>
      <point x="338" y="686"/>
      <point x="338" y="698" type="curve" smooth="yes"/>
      <point x="338" y="742"/>
      <point x="379" y="767"/>
      <point x="418" y="767" type="curve" smooth="yes"/>
      <point x="459" y="767"/>
      <point x="490" y="742"/>
    </contour>
  </outline>
</glyph>
<glyph name="Ycircumflex" format="1">
  <advance width="681"/>
  <unicode hex="0176"/>
  <outline>
    <contour>
      <point x="753" y="621" type="line"/>
      <point x="689" y="616" type="line" smooth="yes"/>
      <point x="682" y="615"/>
      <point x="674" y="608"/>
      <point x="671" y="604" type="curve" smooth="yes"/>
      <point x="417" y="281" type="line"/>
      <point x="375" y="70" type="line" smooth="yes"/>
      <point x="372" y="58"/>
      <point x="379" y="56"/>
      <point x="393" y="55" type="curve" smooth="yes"/>
      <point x="393" y="55"/>
      <point x="422" y="53"/>
      <point x="450" y="50" type="curve"/>
      <point x="450" y="0" type="line"/>
      <point x="148" y="0" type="line"/>
      <point x="148" y="50" type="line"/>
      <point x="175" y="53"/>
      <point x="205" y="55"/>
      <point x="205" y="55" type="curve" smooth="yes"/>
      <point x="218" y="56"/>
      <point x="227" y="58"/>
      <point x="230" y="71" type="curve" smooth="yes"/>
      <point x="271" y="273" type="line"/>
      <point x="159" y="605" type="line" smooth="yes"/>
      <point x="156" y="616"/>
      <point x="146" y="616"/>
      <point x="134" y="617" type="curve" smooth="yes"/>
      <point x="134" y="617"/>
      <point x="107" y="619"/>
      <point x="84" y="621" type="curve"/>
      <point x="84" y="671" type="line"/>
      <point x="385" y="671" type="line"/>
      <point x="385" y="621" type="line"/>
      <point x="355" y="619"/>
      <point x="323" y="617"/>
      <point x="323" y="617" type="curve" smooth="yes"/>
      <point x="312" y="617"/>
      <point x="302" y="614"/>
      <point x="307" y="601" type="curve" smooth="yes"/>
      <point x="376" y="384" type="line"/>
      <point x="541" y="602" type="line" smooth="yes"/>
      <point x="545" y="607"/>
      <point x="544" y="616"/>
      <point x="529" y="617" type="curve" smooth="yes"/>
      <point x="470" y="621" type="line"/>
      <point x="470" y="671" type="line"/>
      <point x="753" y="671" type="line"/>
    </contour>
    <contour>
      <point x="599" y="746" type="line"/>
      <point x="515" y="746" type="line"/>
      <point x="448" y="841" type="line"/>
      <point x="342" y="746" type="line"/>
      <point x="259" y="746" type="line"/>
      <point x="404" y="917" type="line"/>
      <point x="521" y="917" type="line"/>
    </contour>
  </outline>
</glyph>
<glyph name="uni0188" format="1">
  <advance width="476"/>
  <unicode hex="0188"/>
  <outline>
    <contour>
      <point x="556" y="558" type="curve" smooth="yes"/>
      <point x="556" y="521"/>
      <point x="529" y="509"/>
      <point x="500" y="503" type="curve"/>
      <point x="453" y="563" type="line"/>
      <point x="436" y="563"/>
      <point x="416" y="522"/>
      <point x="408" y="479" type="curve"/>
      <point x="436" y="470"/>
      <point x="444" y="440"/>
      <point x="444" y="427" type="curve" smooth="yes"/>
      <point x="444" y="402"/>
      <point x="441" y="354"/>
      <point x="345" y="354" type="curve"/>
      <point x="295" y="428" type="line"/>
      <point x="251" y="428"/>
      <point x="218" y="385"/>
      <point x="202" y="353" type="curve" smooth="yes"/>
      <point x="172" y="292"/>
      <point x="168" y="216"/>
      <point x="168" y="190" type="curve" smooth="yes"/>
      <point x="168" y="128"/>
      <point x="174" y="63"/>
      <point x="236" y="63" type="curve" smooth="yes"/>
      <point x="286" y="63"/>
      <point x="333" y="86"/>
      <point x="422" y="195" type="curve"/>
      <point x="423" y="105" type="line"/>
      <point x="360" y="25"/>
      <point x="300" y="-12"/>
      <point x="206" y="-12" type="curve" smooth="yes"/>
      <point x="86" y="-12"/>
      <point x="32" y="64"/>
      <point x="32" y="179" type="curve" smooth="yes"/>
      <point x="32" y="353"/>
      <point x="173" y="505"/>
      <point x="307" y="500" type="curve" smooth="yes"/>
      <point x="310" y="499"/>
      <point x="331" y="497"/>
      <point x="334" y="497" type="curve" smooth="yes"/>
      <point x="357" y="561"/>
      <point x="382" y="611"/>
      <point x="472" y="611" type="curve" smooth="yes"/>
      <point x="527" y="611"/>
      <point x="556" y="589"/>
    </contour>
  </outline>
</glyph>
<glyph name="uni018B" format="1">
  <advance width="649"/>
  <unicode hex="018B"/>
  <outline>
    <contour>
      <point x="359" y="61" type="curve"/>
      <point x="411" y="315" type="line"/>
      <point x="390" y="318"/>
      <point x="358" y="320"/>
      <point x="331" y="320" type="curve" smooth="yes"/>
      <point x="223" y="320"/>
      <point x="174" y="256"/>
      <point x="174" y="167" type="curve" smooth="yes"/>
      <point x="174" y="98"/>
      <point x="227" y="58"/>
      <point x="305" y="58" type="curve" smooth="yes"/>
      <point x="326" y="58"/>
      <point x="339" y="59"/>
    </contour>
    <contour>
      <point x="583" y="50" type="line"/>
      <point x="583" y="0" type="line"/>
      <point x="311" y="0" type="line" smooth="yes"/>
      <point x="85" y="0"/>
      <point x="28" y="71"/>
      <point x="28" y="173" type="curve" smooth="yes"/>
      <point x="28" y="333"/>
      <point x="188" y="377"/>
      <point x="342" y="377" type="curve" smooth="yes"/>
      <point x="373" y="377"/>
      <point x="396" y="376"/>
      <point x="421" y="373" type="curve"/>
      <point x="464" y="592" type="line" smooth="yes"/>
      <point x="466" y="601"/>
      <point x="463" y="615"/>
      <point x="449" y="615" type="curve" smooth="yes"/>
      <point x="290" y="615" type="line" smooth="yes"/>
      <point x="280" y="615"/>
      <point x="270" y="607"/>
      <point x="266" y="597" type="curve" smooth="yes"/>
      <point x="233" y="507" type="line"/>
      <point x="159" y="507" type="line"/>
      <point x="191" y="671" type="line"/>
      <point x="692" y="671" type="line"/>
      <point x="692" y="621" type="line"/>
      <point x="623" y="616" type="line" smooth="yes"/>
      <point x="616" y="616"/>
      <point x="610" y="611"/>
      <point x="608" y="600" type="curve" smooth="yes"/>
      <point x="504" y="73" type="line" smooth="yes"/>
      <point x="501" y="58"/>
      <point x="506" y="56"/>
      <point x="519" y="55" type="curve" smooth="yes"/>
    </contour>
  </outline>
</glyph>
<glyph name="uni018E" format="1">
  <advance width="595"/>
  <unicode hex="018E"/>
  <outline>
    <contour>
      <point x="141" y="671" type="line"/>
      <point x="641" y="671" type="line"/>
      <point x="641" y="620" type="line"/>
      <point x="585" y="615" type="line" smooth="yes"/>
      <point x="573" y="614"/>
      <point x="560" y="606"/>
      <point x="558" y="593" type="curve" smooth="yes"/>
      <point x="460" y="78" type="line" smooth="yes"/>
      <point x="458" y="65"/>
      <point x="468" y="57"/>
      <point x="479" y="56" type="curve" smooth="yes"/>
      <point x="532" y="51" type="line"/>
      <point x="532" y="0" type="line"/>
      <point x="-19" y="0" type="line"/>
      <point x="16" y="183" type="line"/>
      <point x="89" y="183" type="line"/>
      <point x="84" y="79" type="line" smooth="yes"/>
      <point x="84" y="72"/>
      <point x="91" y="60"/>
      <point x="99" y="60" type="curve" smooth="yes"/>
      <point x="316" y="60" type="line"/>
      <point x="365" y="315" type="line"/>
      <point x="246" y="315" type="line" smooth="yes"/>
      <point x="238" y="315"/>
      <point x="228" y="304"/>
      <point x="225" y="297" type="curve" smooth="yes"/>
      <point x="204" y="229" type="line"/>
      <point x="142" y="229" type="line"/>
      <point x="187" y="464" type="line"/>
      <point x="249" y="464" type="line"/>
      <point x="244" y="396" type="line" smooth="yes"/>
      <point x="244" y="389"/>
      <point x="249" y="378"/>
      <point x="258" y="378" type="curve" smooth="yes"/>
      <point x="377" y="378" type="line"/>
      <point x="422" y="613" type="line"/>
      <point x="236" y="613" type="line" smooth="yes"/>
      <point x="227" y="613"/>
      <point x="218" y="604"/>
      <point x="214" y="594" type="curve" smooth="yes"/>
      <point x="182" y="511" type="line"/>
      <point x="110" y="511" type="line"/>
    </contour>
  </outline>
</glyph>
<glyph name="uni0190" format="1">
  <advance width="585"/>
  <unicode hex="0190"/>
  <outline>
    <contour>
      <point x="601" y="566" type="curve" smooth="yes"/>
      <point x="601" y="526"/>
      <point x="562" y="493"/>
      <point x="507" y="493" type="curve" smooth="yes"/>
      <point x="484" y="493"/>
      <point x="461" y="507"/>
      <point x="461" y="507" type="curve"/>
      <point x="420" y="617" type="line"/>
      <point x="413" y="620"/>
      <point x="402" y="622"/>
      <point x="396" y="622" type="curve" smooth="yes"/>
      <point x="340" y="622"/>
      <point x="274" y="556"/>
      <point x="274" y="469" type="curve" smooth="yes"/>
      <point x="274" y="393"/>
      <point x="333" y="381"/>
      <point x="361" y="381" type="curve" smooth="yes"/>
      <point x="367" y="381"/>
      <point x="376" y="382"/>
      <point x="416" y="383" type="curve"/>
      <point x="401" y="306" type="line"/>
      <point x="357" y="311"/>
      <point x="336" y="313"/>
      <point x="324" y="313" type="curve" smooth="yes"/>
      <point x="255" y="313"/>
      <point x="174" y="268"/>
      <point x="174" y="165" type="curve" smooth="yes"/>
      <point x="174" y="84"/>
      <point x="244" y="45"/>
      <point x="286" y="45" type="curve" smooth="yes"/>
      <point x="316" y="45"/>
      <point x="340" y="53"/>
      <point x="368" y="77" type="curve"/>
      <point x="405" y="166" type="line"/>
      <point x="417" y="170"/>
      <point x="447" y="176"/>
      <point x="462" y="176" type="curve" smooth="yes"/>
      <point x="504" y="176"/>
      <point x="527" y="151"/>
      <point x="527" y="121" type="curve" smooth="yes"/>
      <point x="527" y="52"/>
      <point x="402" y="-16"/>
      <point x="275" y="-16" type="curve" smooth="yes"/>
      <point x="120" y="-16"/>
      <point x="20" y="34"/>
      <point x="20" y="149" type="curve" smooth="yes"/>
      <point x="20" y="292"/>
      <point x="137" y="340"/>
      <point x="225" y="356" type="curve"/>
      <point x="162" y="384"/>
      <point x="123" y="422"/>
      <point x="123" y="480" type="curve" smooth="yes"/>
      <point x="123" y="598"/>
      <point x="229" y="687"/>
      <point x="384" y="687" type="curve" smooth="yes"/>
      <point x="509" y="687"/>
      <point x="601" y="656"/>
    </contour>
  </outline>
</glyph>
<glyph name="uni0191" format="1">
  <advance width="556"/>
  <unicode hex="0191"/>
  <outline>
    <contour>
      <point x="612" y="671" type="line"/>
      <point x="579" y="502" type="line"/>
      <point x="498" y="502" type="line"/>
      <point x="498" y="598" type="line" smooth="yes"/>
      <point x="498" y="608"/>
      <point x="486" y="611"/>
      <point x="475" y="611" type="curve" smooth="yes"/>
      <point x="316" y="611" type="line"/>
      <point x="269" y="369" type="line"/>
      <point x="375" y="369" type="line" smooth="yes"/>
      <point x="385" y="369"/>
      <point x="400" y="373"/>
      <point x="403" y="383" type="curve" smooth="yes"/>
      <point x="423" y="455" type="line"/>
      <point x="497" y="455" type="line"/>
      <point x="451" y="219" type="line"/>
      <point x="376" y="219" type="line"/>
      <point x="387" y="294" type="line" smooth="yes"/>
      <point x="388" y="303"/>
      <point x="374" y="308"/>
      <point x="364" y="308" type="curve" smooth="yes"/>
      <point x="257" y="308" type="line"/>
      <point x="190" y="-30" type="line" smooth="yes"/>
      <point x="165" y="-159"/>
      <point x="72" y="-229"/>
      <point x="-98" y="-229" type="curve" smooth="yes"/>
      <point x="-150" y="-229"/>
      <point x="-191" y="-195"/>
      <point x="-191" y="-154" type="curve" smooth="yes"/>
      <point x="-191" y="-108"/>
      <point x="-153" y="-70"/>
      <point x="-105" y="-70" type="curve"/>
      <point x="-41" y="-159" type="line"/>
      <point x="-34" y="-157"/>
      <point x="-7" y="-153"/>
      <point x="0" y="-146" type="curve" smooth="yes"/>
      <point x="18" y="-131"/>
      <point x="36" y="-88"/>
      <point x="48" y="-25" type="curve" smooth="yes"/>
      <point x="171" y="601" type="line" smooth="yes"/>
      <point x="173" y="613"/>
      <point x="164" y="615"/>
      <point x="152" y="616" type="curve" smooth="yes"/>
      <point x="152" y="616"/>
      <point x="122" y="618"/>
      <point x="95" y="621" type="curve"/>
      <point x="95" y="671" type="line"/>
    </contour>
  </outline>
</glyph>
<glyph name="uni0193" format="1">
  <advance width="729"/>
  <unicode hex="0193"/>
  <outline>
    <contour>
      <point x="921" y="770" type="curve" smooth="yes"/>
      <point x="921" y="733"/>
      <point x="887" y="703"/>
      <point x="858" y="693" type="curve"/>
      <point x="771" y="790" type="line"/>
      <point x="738" y="790"/>
      <point x="721" y="717"/>
      <point x="706" y="645" type="curve" smooth="yes"/>
      <point x="670" y="469" type="line"/>
      <point x="584" y="469" type="line"/>
      <point x="594" y="578" type="line" smooth="yes"/>
      <point x="595" y="586"/>
      <point x="591" y="598"/>
      <point x="580" y="601" type="curve" smooth="yes"/>
      <point x="569" y="607"/>
      <point x="519" y="623"/>
      <point x="488" y="623" type="curve" smooth="yes"/>
      <point x="365" y="623"/>
      <point x="200" y="485"/>
      <point x="200" y="254" type="curve" smooth="yes"/>
      <point x="200" y="91"/>
      <point x="327" y="47"/>
      <point x="373" y="47" type="curve" smooth="yes"/>
      <point x="399" y="47"/>
      <point x="435" y="56"/>
      <point x="453" y="61" type="curve"/>
      <point x="492" y="259" type="line" smooth="yes"/>
      <point x="494" y="271"/>
      <point x="489" y="274"/>
      <point x="473" y="275" type="curve" smooth="yes"/>
      <point x="473" y="275"/>
      <point x="444" y="277"/>
      <point x="417" y="279" type="curve"/>
      <point x="417" y="330" type="line"/>
      <point x="717" y="330" type="line"/>
      <point x="717" y="279" type="line"/>
      <point x="649" y="274" type="line" smooth="yes"/>
      <point x="640" y="273"/>
      <point x="637" y="268"/>
      <point x="635" y="259" type="curve" smooth="yes"/>
      <point x="589" y="26" type="line"/>
      <point x="533" y="10"/>
      <point x="438" y="-16"/>
      <point x="353" y="-16" type="curve" smooth="yes"/>
      <point x="98" y="-16"/>
      <point x="48" y="163"/>
      <point x="48" y="269" type="curve" smooth="yes"/>
      <point x="48" y="518"/>
      <point x="264" y="687"/>
      <point x="491" y="687" type="curve" smooth="yes"/>
      <point x="530" y="687"/>
      <point x="558" y="687"/>
      <point x="613" y="675" type="curve"/>
      <point x="632" y="804"/>
      <point x="731" y="851"/>
      <point x="836" y="851" type="curve" smooth="yes"/>
      <point x="875" y="851"/>
      <point x="921" y="806"/>
    </contour>
  </outline>
</glyph>
<glyph name="uni0196" format="1">
  <advance width="450"/>
  <unicode hex="0196"/>
  <outline>
    <contour>
      <point x="442" y="99" type="curve" smooth="yes"/>
      <point x="442" y="26"/>
      <point x="322" y="-16"/>
      <point x="242" y="-16" type="curve" smooth="yes"/>
      <point x="142" y="-16"/>
      <point x="77" y="17"/>
      <point x="77" y="97" type="curve" smooth="yes"/>
      <point x="77" y="112"/>
      <point x="79" y="127"/>
      <point x="82" y="142" type="curve" smooth="yes"/>
      <point x="170" y="596" type="line" smooth="yes"/>
      <point x="172" y="606"/>
      <point x="166" y="615"/>
      <point x="149" y="617" type="curve" smooth="yes"/>
      <point x="149" y="617"/>
      <point x="124" y="618"/>
      <point x="96" y="621" type="curve"/>
      <point x="96" y="671" type="line"/>
      <point x="329" y="671" type="line"/>
      <point x="229" y="163" type="line" smooth="yes"/>
      <point x="227" y="151"/>
      <point x="225" y="139"/>
      <point x="225" y="127" type="curve" smooth="yes"/>
      <point x="225" y="87"/>
      <point x="258" y="63"/>
      <point x="291" y="57" type="curve"/>
      <point x="354" y="183" type="line"/>
      <point x="414" y="178"/>
      <point x="442" y="134"/>
    </contour>
  </outline>
</glyph>
<glyph name="uni019B" format="1">
  <advance width="625"/>
  <unicode hex="019B"/>
  <outline>
    <contour>
      <point x="631" y="76" type="curve" smooth="yes"/>
      <point x="631" y="-2"/>
      <point x="513" y="-12"/>
      <point x="458" y="-12" type="curve" smooth="yes"/>
      <point x="379" y="-12"/>
      <point x="341" y="48"/>
      <point x="325" y="118" type="curve" smooth="yes"/>
      <point x="286" y="292" type="line"/>
      <point x="109" y="0" type="line"/>
      <point x="-34" y="0" type="line"/>
      <point x="248" y="465" type="line"/>
      <point x="234" y="527" type="line"/>
      <point x="102" y="410" type="line"/>
      <point x="102" y="489" type="line"/>
      <point x="219" y="592" type="line"/>
      <point x="209" y="632"/>
      <point x="197" y="679"/>
      <point x="148" y="679" type="curve"/>
      <point x="92" y="578" type="line"/>
      <point x="47" y="578"/>
      <point x="7" y="600"/>
      <point x="7" y="649" type="curve" smooth="yes"/>
      <point x="7" y="727"/>
      <point x="125" y="737"/>
      <point x="181" y="737" type="curve" smooth="yes"/>
      <point x="239" y="737"/>
      <point x="275" y="703"/>
      <point x="296" y="658" type="curve"/>
      <point x="383" y="734" type="line"/>
      <point x="383" y="660" type="line"/>
      <point x="314" y="599" type="line"/>
      <point x="417" y="141" type="line" smooth="yes"/>
      <point x="427" y="99"/>
      <point x="437" y="46"/>
      <point x="490" y="46" type="curve"/>
      <point x="546" y="147" type="line"/>
      <point x="591" y="148"/>
      <point x="631" y="125"/>
    </contour>
  </outline>
</glyph>
<glyph name="uni01AB" format="1">
  <advance width="344"/>
  <unicode hex="01AB"/>
  <outline>
    <contour>
      <point x="391" y="418" type="line"/>
      <point x="242" y="418" type="line"/>
      <point x="179" y="109" type="line" smooth="yes"/>
      <point x="172" y="78"/>
      <point x="187" y="57"/>
      <point x="218" y="57" type="curve" smooth="yes"/>
      <point x="249" y="57"/>
      <point x="311" y="81"/>
      <point x="343" y="92" type="curve"/>
      <point x="306" y="-80" type="line" smooth="yes"/>
      <point x="297" y="-125"/>
      <point x="250" y="-229"/>
      <point x="125" y="-229" type="curve" smooth="yes"/>
      <point x="57" y="-229"/>
      <point x="30" y="-200"/>
      <point x="30" y="-162" type="curve" smooth="yes"/>
      <point x="30" y="-123"/>
      <point x="69" y="-95"/>
      <point x="104" y="-87" type="curve"/>
      <point x="174" y="-150" type="line"/>
      <point x="199" y="-146"/>
      <point x="223" y="-118"/>
      <point x="233" y="-78" type="curve" smooth="yes"/>
      <point x="233" y="-78"/>
      <point x="250" y="-23"/>
      <point x="254" y="5" type="curve"/>
      <point x="222" y="-7"/>
      <point x="186" y="-12"/>
      <point x="158" y="-12" type="curve" smooth="yes"/>
      <point x="81" y="-12"/>
      <point x="44" y="26"/>
      <point x="44" y="78" type="curve" smooth="yes"/>
      <point x="44" y="91"/>
      <point x="45" y="104"/>
      <point x="48" y="118" type="curve" smooth="yes"/>
      <point x="109" y="416" type="line"/>
      <point x="37" y="408" type="line"/>
      <point x="37" y="449" type="line"/>
      <point x="122" y="483" type="line"/>
      <point x="173" y="586" type="line"/>
      <point x="273" y="586" type="line"/>
      <point x="252" y="473" type="line"/>
      <point x="391" y="473" type="line"/>
    </contour>
  </outline>
</glyph>
<glyph name="uni01B8" format="1">
  <advance width="705"/>
  <unicode hex="01B8"/>
  <outline>
    <contour>
      <point x="696" y="671" type="line"/>
      <point x="651" y="440" type="line"/>
      <point x="573" y="440" type="line"/>
      <point x="576" y="547" type="line" smooth="yes"/>
      <point x="576" y="560"/>
      <point x="566" y="567"/>
      <point x="558" y="567" type="curve" smooth="yes"/>
      <point x="299" y="567" type="line"/>
      <point x="489" y="270" type="line"/>
      <point x="436" y="207" type="line"/>
      <point x="412" y="233"/>
      <point x="409" y="238"/>
      <point x="394" y="238" type="curve" smooth="yes"/>
      <point x="317" y="238"/>
      <point x="183" y="151"/>
      <point x="183" y="17" type="curve" smooth="yes"/>
      <point x="183" y="-72"/>
      <point x="232" y="-157"/>
      <point x="306" y="-157" type="curve" smooth="yes"/>
      <point x="324" y="-157"/>
      <point x="364" y="-153"/>
      <point x="399" y="-133" type="curve"/>
      <point x="440" y="-12" type="line"/>
      <point x="458" y="1"/>
      <point x="507" y="6"/>
      <point x="518" y="6" type="curve" smooth="yes"/>
      <point x="557" y="6"/>
      <point x="583" y="-25"/>
      <point x="583" y="-59" type="curve" smooth="yes"/>
      <point x="583" y="-140"/>
      <point x="479" y="-229"/>
      <point x="295" y="-229" type="curve" smooth="yes"/>
      <point x="114" y="-229"/>
      <point x="20" y="-113"/>
      <point x="20" y="11" type="curve" smooth="yes"/>
      <point x="20" y="174"/>
      <point x="177" y="284"/>
      <point x="346" y="302" type="curve"/>
      <point x="162" y="597" type="line"/>
      <point x="190" y="671" type="line"/>
    </contour>
  </outline>
</glyph>
<glyph name="uni01BD" format="1">
  <advance width="443"/>
  <unicode hex="01BD"/>
  <outline>
    <contour>
      <point x="389" y="360" type="line"/>
      <point x="329" y="360" type="line"/>
      <point x="331" y="411" type="line" smooth="yes"/>
      <point x="331" y="418"/>
      <point x="328" y="425"/>
      <point x="322" y="425" type="curve" smooth="yes"/>
      <point x="202" y="425" type="line" smooth="yes"/>
      <point x="193" y="425"/>
      <point x="186" y="416"/>
      <point x="185" y="410" type="curve" smooth="yes"/>
      <point x="168" y="330" type="line"/>
      <point x="273" y="322"/>
      <point x="373" y="261"/>
      <point x="373" y="166" type="curve" smooth="yes"/>
      <point x="373" y="39"/>
      <point x="242" y="-12"/>
      <point x="132" y="-12" type="curve" smooth="yes"/>
      <point x="61" y="-12"/>
      <point x="-12" y="23"/>
      <point x="-12" y="81" type="curve" smooth="yes"/>
      <point x="-12" y="128"/>
      <point x="21" y="155"/>
      <point x="65" y="155" type="curve" smooth="yes"/>
      <point x="72" y="155"/>
      <point x="86" y="154"/>
      <point x="91" y="151" type="curve"/>
      <point x="105" y="60" type="line"/>
      <point x="114" y="49"/>
      <point x="133" y="38"/>
      <point x="148" y="38" type="curve" smooth="yes"/>
      <point x="198" y="38"/>
      <point x="234" y="78"/>
      <point x="234" y="148" type="curve" smooth="yes"/>
      <point x="234" y="212"/>
      <point x="171" y="271"/>
      <point x="61" y="271" type="curve"/>
      <point x="89" y="410" type="line" smooth="yes"/>
      <point x="90" y="416"/>
      <point x="88" y="424"/>
      <point x="79" y="425" type="curve" smooth="yes"/>
      <point x="35" y="428" type="line"/>
      <point x="45" y="482" type="line"/>
      <point x="413" y="482" type="line"/>
    </contour>
  </outline>
</glyph>
<glyph name="uni01C2" format="1">
  <advance width="421"/>
  <unicode hex="01C2"/>
  <outline>
    <contour>
      <point x="49" y="297" type="line"/>
      <point x="49" y="363" type="line"/>
      <point x="417" y="363" type="line"/>
      <point x="417" y="297" type="line"/>
    </contour>
    <contour>
      <point x="20" y="158" type="line"/>
      <point x="20" y="223" type="line"/>
      <point x="387" y="223" type="line"/>
      <point x="387" y="158" type="line"/>
    </contour>
    <contour>
      <point x="168" y="-215" type="line"/>
      <point x="93" y="-215" type="line"/>
      <point x="274" y="736" type="line"/>
      <point x="350" y="736" type="line"/>
    </contour>
  </outline>
</glyph>
<glyph name="uni01C5" format="1">
  <advance width="1204"/>
  <unicode hex="01C5"/>
  <outline>
    <contour>
      <point x="695" y="414" type="curve" smooth="yes"/>
      <point x="695" y="176"/>
      <point x="523" y="0"/>
      <point x="241" y="0" type="curve" smooth="yes"/>
      <point x="-15" y="0" type="line"/>
      <point x="-15" y="50" type="line"/>
      <point x="14" y="53"/>
      <point x="45" y="54"/>
      <point x="45" y="54" type="curve" smooth="yes"/>
      <point x="61" y="55"/>
      <point x="64" y="57"/>
      <point x="67" y="71" type="curve" smooth="yes"/>
      <point x="171" y="601" type="line" smooth="yes"/>
      <point x="173" y="613"/>
      <point x="165" y="615"/>
      <point x="153" y="616" type="curve" smooth="yes"/>
      <point x="153" y="616"/>
      <point x="123" y="618"/>
      <point x="95" y="621" type="curve"/>
      <point x="95" y="671" type="line"/>
      <point x="355" y="671" type="line" smooth="yes"/>
      <point x="562" y="671"/>
      <point x="695" y="598"/>
    </contour>
    <contour>
      <point x="545" y="423" type="curve" smooth="yes"/>
      <point x="545" y="588"/>
      <point x="433" y="608"/>
      <point x="330" y="611" type="curve" smooth="yes"/>
      <point x="316" y="611" type="line"/>
      <point x="208" y="62" type="line"/>
      <point x="259" y="62" type="line" smooth="yes"/>
      <point x="435" y="64"/>
      <point x="545" y="232"/>
    </contour>
    <contour>
      <point x="1211" y="470" type="line"/>
      <point x="881" y="92" type="line"/>
      <point x="944" y="105" type="line"/>
      <point x="980" y="86"/>
      <point x="1000" y="73"/>
      <point x="1023" y="73" type="curve" smooth="yes"/>
      <point x="1037" y="73"/>
      <point x="1078" y="87"/>
      <point x="1087" y="102" type="curve"/>
      <point x="1027" y="166" type="line"/>
      <point x="1034" y="176"/>
      <point x="1071" y="204"/>
      <point x="1104" y="204" type="curve" smooth="yes"/>
      <point x="1147" y="204"/>
      <point x="1166" y="157"/>
      <point x="1166" y="130" type="curve" smooth="yes"/>
      <point x="1166" y="66"/>
      <point x="1086" y="-11"/>
      <point x="993" y="-11" type="curve" smooth="yes"/>
      <point x="925" y="-11"/>
      <point x="869" y="31"/>
      <point x="856" y="31" type="curve" smooth="yes"/>
      <point x="847" y="31"/>
      <point x="839" y="31"/>
      <point x="835" y="25" type="curve" smooth="yes"/>
      <point x="798" y="-39" type="line"/>
      <point x="697" y="16" type="line"/>
      <point x="1027" y="396" type="line"/>
      <point x="964" y="383" type="line"/>
      <point x="929" y="402"/>
      <point x="909" y="415"/>
      <point x="886" y="415" type="curve" smooth="yes"/>
      <point x="872" y="415"/>
      <point x="831" y="401"/>
      <point x="822" y="386" type="curve"/>
      <point x="881" y="323" type="line"/>
      <point x="875" y="312"/>
      <point x="838" y="284"/>
      <point x="805" y="284" type="curve" smooth="yes"/>
      <point x="762" y="284"/>
      <point x="743" y="331"/>
      <point x="743" y="358" type="curve" smooth="yes"/>
      <point x="743" y="422"/>
      <point x="823" y="500"/>
      <point x="916" y="500" type="curve" smooth="yes"/>
      <point x="984" y="500"/>
      <point x="1040" y="457"/>
      <point x="1053" y="457" type="curve" smooth="yes"/>
      <point x="1062" y="457"/>
      <point x="1069" y="458"/>
      <point x="1074" y="463" type="curve" smooth="yes"/>
      <point x="1101" y="526" type="line"/>
    </contour>
    <contour>
      <point x="1208" y="722" type="line"/>
      <point x="1063" y="551" type="line"/>
      <point x="945" y="551" type="line"/>
      <point x="868" y="722" type="line"/>
      <point x="951" y="722" type="line"/>
      <point x="1021" y="628" type="line"/>
      <point x="1125" y="722" type="line"/>
    </contour>
  </outline>
</glyph>
<glyph name="uni01CA" format="1">
  <advance width="1262"/>
  <unicode hex="01CA"/>
  <outline>
    <contour>
      <point x="797" y="621" type="line"/>
      <point x="732" y="615" type="line" smooth="yes"/>
      <point x="723" y="614"/>
      <point x="717" y="609"/>
      <point x="715" y="600" type="curve" smooth="yes"/>
      <point x="596" y="0" type="line"/>
      <point x="485" y="0" type="line"/>
      <point x="261" y="465" type="line"/>
      <point x="184" y="70" type="line" smooth="yes"/>
      <point x="182" y="58"/>
      <point x="188" y="56"/>
      <point x="202" y="55" type="curve" smooth="yes"/>
      <point x="202" y="55"/>
      <point x="231" y="53"/>
      <point x="260" y="50" type="curve"/>
      <point x="260" y="0" type="line"/>
      <point x="-14" y="0" type="line"/>
      <point x="-14" y="50" type="line"/>
      <point x="14" y="53"/>
      <point x="43" y="55"/>
      <point x="43" y="55" type="curve" smooth="yes"/>
      <point x="57" y="56"/>
      <point x="65" y="58"/>
      <point x="68" y="71" type="curve" smooth="yes"/>
      <point x="171" y="601" type="line" smooth="yes"/>
      <point x="174" y="613"/>
      <point x="166" y="615"/>
      <point x="153" y="616" type="curve" smooth="yes"/>
      <point x="153" y="616"/>
      <point x="124" y="618"/>
      <point x="96" y="621" type="curve"/>
      <point x="96" y="671" type="line"/>
      <point x="331" y="671" type="line"/>
      <point x="331" y="640" type="line"/>
      <point x="526" y="233" type="line"/>
      <point x="599" y="601" type="line" smooth="yes"/>
      <point x="602" y="613"/>
      <point x="592" y="615"/>
      <point x="580" y="616" type="curve" smooth="yes"/>
      <point x="580" y="616"/>
      <point x="550" y="618"/>
      <point x="523" y="621" type="curve"/>
      <point x="523" y="671" type="line"/>
      <point x="797" y="671" type="line"/>
    </contour>
    <contour>
      <point x="1302" y="621" type="line"/>
      <point x="1234" y="615" type="line" smooth="yes"/>
      <point x="1225" y="615"/>
      <point x="1222" y="609"/>
      <point x="1220" y="600" type="curve" smooth="yes"/>
      <point x="1156" y="257" type="line" smooth="yes"/>
      <point x="1127" y="99"/>
      <point x="1083" y="-16"/>
      <point x="886" y="-16" type="curve" smooth="yes"/>
      <point x="797" y="-16"/>
      <point x="747" y="11"/>
      <point x="733" y="18" type="curve"/>
      <point x="767" y="192" type="line"/>
      <point x="849" y="192" type="line"/>
      <point x="849" y="66" type="line" smooth="yes"/>
      <point x="849" y="55"/>
      <point x="878" y="46"/>
      <point x="893" y="46" type="curve" smooth="yes"/>
      <point x="951" y="46"/>
      <point x="986" y="112"/>
      <point x="1011" y="249" type="curve" smooth="yes"/>
      <point x="1077" y="601" type="line" smooth="yes"/>
      <point x="1079" y="613"/>
      <point x="1072" y="615"/>
      <point x="1059" y="616" type="curve" smooth="yes"/>
      <point x="1059" y="616"/>
      <point x="1028" y="618"/>
      <point x="1000" y="621" type="curve"/>
      <point x="1000" y="671" type="line"/>
      <point x="1302" y="671" type="line"/>
    </contour>
  </outline>
</glyph>
<glyph name="uni01E0" format="1">
  <advance width="714"/>
  <unicode hex="01E0"/>
  <outline>
    <contour>
      <point x="668" y="0" type="line"/>
      <point x="391" y="0" type="line"/>
      <point x="391" y="50" type="line"/>
      <point x="412" y="52"/>
      <point x="437" y="55"/>
      <point x="437" y="55" type="curve" smooth="yes"/>
      <point x="450" y="56"/>
      <point x="458" y="58"/>
      <point x="456" y="70" type="curve" smooth="yes"/>
      <point x="427" y="253" type="line"/>
      <point x="238" y="253" type="line"/>
      <point x="139" y="70" type="line" smooth="yes"/>
      <point x="133" y="60"/>
      <point x="139" y="56"/>
      <point x="152" y="55" type="curve" smooth="yes"/>
      <point x="152" y="55"/>
      <point x="179" y="52"/>
      <point x="204" y="50" type="curve"/>
      <point x="204" y="0" type="line"/>
      <point x="-53" y="0" type="line"/>
      <point x="-53" y="50" type="line"/>
      <point x="5" y="56" type="line"/>
      <point x="375" y="687" type="line"/>
      <point x="493" y="687" type="line"/>
      <point x="602" y="71" type="line" smooth="yes"/>
      <point x="604" y="58"/>
      <point x="607" y="56"/>
      <point x="622" y="54" type="curve" smooth="yes"/>
      <point x="622" y="54"/>
      <point x="646" y="52"/>
      <point x="668" y="50" type="curve"/>
    </contour>
    <contour>
      <point x="416" y="310" type="line"/>
      <point x="383" y="504" type="line"/>
      <point x="271" y="310" type="line"/>
    </contour>
    <contour>
      <point x="646" y="1057" type="line"/>
      <point x="631" y="977" type="line"/>
      <point x="290" y="977" type="line"/>
      <point x="306" y="1057" type="line"/>
    </contour>
    <contour>
      <point x="512" y="848" type="curve" smooth="yes"/>
      <point x="512" y="811"/>
      <point x="483" y="780"/>
      <point x="445" y="780" type="curve" smooth="yes"/>
      <point x="406" y="780"/>
      <point x="377" y="809"/>
      <point x="377" y="848" type="curve" smooth="yes"/>
      <point x="377" y="888"/>
      <point x="404" y="921"/>
      <point x="444" y="921" type="curve" smooth="yes"/>
      <point x="483" y="921"/>
      <point x="512" y="889"/>
    </contour>
  </outline>
</glyph>
<glyph name="uni01EC" format="1">
  <advance width="751"/>
  <unicode hex="01EC"/>
  <outline>
    <contour>
      <point x="733" y="417" type="curve" smooth="yes"/>
      <point x="733" y="212"/>
      <point x="603" y="-16"/>
      <point x="341" y="-16" type="curve" smooth="yes"/>
      <point x="155" y="-16"/>
      <point x="48" y="101"/>
      <point x="48" y="263" type="curve" smooth="yes"/>
      <point x="48" y="471"/>
      <point x="194" y="687"/>
      <point x="441" y="687" type="curve" smooth="yes"/>
      <point x="634" y="687"/>
      <point x="733" y="559"/>
    </contour>
    <contour>
      <point x="577" y="417" type="curve" smooth="yes"/>
      <point x="577" y="551"/>
      <point x="501" y="627"/>
      <point x="432" y="627" type="curve" smooth="yes"/>
      <point x="313" y="627"/>
      <point x="203" y="435"/>
      <point x="203" y="255" type="curve" smooth="yes"/>
      <point x="203" y="117"/>
      <point x="282" y="46"/>
      <point x="348" y="46" type="curve" smooth="yes"/>
      <point x="466" y="46"/>
      <point x="577" y="243"/>
    </contour>
    <contour>
      <point x="652" y="862" type="line"/>
      <point x="637" y="781" type="line"/>
      <point x="296" y="781" type="line"/>
      <point x="312" y="862" type="line"/>
    </contour>
    <contour>
      <point x="443" y="-177" type="line"/>
      <point x="418" y="-188"/>
      <point x="368" y="-208"/>
      <point x="342" y="-208" type="curve" smooth="yes"/>
      <point x="299" y="-208"/>
      <point x="247" y="-191"/>
      <point x="247" y="-140" type="curve" smooth="yes"/>
      <point x="247" y="-81"/>
      <point x="307" y="-28"/>
      <point x="354" y="1" type="curve"/>
      <point x="417" y="1" type="line"/>
      <point x="380" y="-23"/>
      <point x="332" y="-63"/>
      <point x="332" y="-111" type="curve" smooth="yes"/>
      <point x="332" y="-136"/>
      <point x="350" y="-150"/>
      <point x="374" y="-150" type="curve" smooth="yes"/>
      <point x="387" y="-150"/>
      <point x="411" y="-133"/>
      <point x="423" y="-125" type="curve"/>
    </contour>
  </outline>
</glyph>
<glyph name="Aringacute" format="1">
  <advance width="714"/>
  <unicode hex="01FA"/>
  <outline>
    <contour>
      <point x="668" y="0" type="line"/>
      <point x="391" y="0" type="line"/>
      <point x="391" y="50" type="line"/>
      <point x="412" y="52"/>
      <point x="437" y="55"/>
      <point x="437" y="55" type="curve" smooth="yes"/>
      <point x="450" y="56"/>
      <point x="458" y="58"/>
      <point x="456" y="70" type="curve" smooth="yes"/>
      <point x="427" y="253" type="line"/>
      <point x="238" y="253" type="line"/>
      <point x="139" y="70" type="line" smooth="yes"/>
      <point x="133" y="60"/>
      <point x="139" y="56"/>
      <point x="152" y="55" type="curve" smooth="yes"/>
      <point x="152" y="55"/>
      <point x="179" y="52"/>
      <point x="204" y="50" type="curve"/>
      <point x="204" y="0" type="line"/>
      <point x="-53" y="0" type="line"/>
      <point x="-53" y="50" type="line"/>
      <point x="5" y="56" type="line"/>
      <point x="375" y="687" type="line"/>
      <point x="493" y="687" type="line"/>
      <point x="602" y="71" type="line" smooth="yes"/>
      <point x="604" y="58"/>
      <point x="607" y="56"/>
      <point x="622" y="54" type="curve" smooth="yes"/>
      <point x="622" y="54"/>
      <point x="646" y="52"/>
      <point x="668" y="50" type="curve"/>
    </contour>
    <contour>
      <point x="416" y="310" type="line"/>
      <point x="383" y="504" type="line"/>
      <point x="271" y="310" type="line"/>
    </contour>
    <contour>
      <point x="593" y="897" type="curve" smooth="yes"/>
      <point x="593" y="817"/>
      <point x="518" y="746"/>
      <point x="440" y="746" type="curve" smooth="yes"/>
      <point x="381" y="746"/>
      <point x="336" y="787"/>
      <point x="336" y="847" type="curve" smooth="yes"/>
      <point x="336" y="927"/>
      <point x="411" y="999"/>
      <point x="490" y="999" type="curve" smooth="yes"/>
      <point x="549" y="999"/>
      <point x="593" y="956"/>
    </contour>
    <contour>
      <point x="529" y="884" type="curve" smooth="yes"/>
      <point x="529" y="914"/>
      <point x="508" y="936"/>
      <point x="478" y="936" type="curve" smooth="yes"/>
      <point x="439" y="936"/>
      <point x="400" y="899"/>
      <point x="400" y="860" type="curve" smooth="yes"/>
      <point x="400" y="830"/>
      <point x="423" y="809"/>
      <point x="452" y="809" type="curve" smooth="yes"/>
      <point x="492" y="809"/>
      <point x="529" y="845"/>
    </contour>
    <contour>
      <point x="639" y="1150" type="curve" smooth="yes"/>
      <point x="639" y="1137"/>
      <point x="628" y="1116"/>
      <point x="613" y="1108" type="curve" smooth="yes"/>
      <point x="452" y="1020" type="line"/>
      <point x="382" y="1020" type="line"/>
      <point x="519" y="1171" type="line" smooth="yes"/>
      <point x="541" y="1196"/>
      <point x="555" y="1203"/>
      <point x="582" y="1203" type="curve" smooth="yes"/>
      <point x="625" y="1203"/>
      <point x="639" y="1174"/>
    </contour>
  </outline>
</glyph>
<glyph name="aringacute" format="1">
  <advance width="567"/>
  <unicode hex="01FB"/>
  <outline>
    <contour>
      <point x="565" y="30" type="line"/>
      <point x="519" y="12"/>
      <point x="464" y="-12"/>
      <point x="413" y="-12" type="curve" smooth="yes"/>
      <point x="371" y="-12"/>
      <point x="342" y="4"/>
      <point x="329" y="33" type="curve"/>
      <point x="294" y="10"/>
      <point x="247" y="-12"/>
      <point x="199" y="-12" type="curve" smooth="yes"/>
      <point x="76" y="-12"/>
      <point x="32" y="96"/>
      <point x="32" y="171" type="curve" smooth="yes"/>
      <point x="32" y="320"/>
      <point x="129" y="500"/>
      <point x="344" y="500" type="curve" smooth="yes"/>
      <point x="373" y="500"/>
      <point x="404" y="491"/>
      <point x="427" y="479" type="curve"/>
      <point x="434" y="488" type="line"/>
      <point x="541" y="488" type="line"/>
      <point x="534" y="468"/>
      <point x="518" y="436"/>
      <point x="516" y="427" type="curve" smooth="yes"/>
      <point x="451" y="97" type="line"/>
      <point x="451" y="67"/>
      <point x="454" y="57"/>
      <point x="478" y="57" type="curve" smooth="yes"/>
      <point x="483" y="57"/>
      <point x="555" y="76"/>
      <point x="565" y="78" type="curve"/>
    </contour>
    <contour>
      <point x="375" y="394" type="curve" smooth="yes"/>
      <point x="377" y="400"/>
      <point x="370" y="442"/>
      <point x="359" y="442" type="curve" smooth="yes"/>
      <point x="231" y="442"/>
      <point x="173" y="291"/>
      <point x="173" y="177" type="curve" smooth="yes"/>
      <point x="173" y="124"/>
      <point x="171" y="63"/>
      <point x="231" y="63" type="curve" smooth="yes"/>
      <point x="274" y="63"/>
      <point x="309" y="108"/>
      <point x="323" y="121" type="curve"/>
      <point x="338" y="201"/>
      <point x="328" y="149"/>
    </contour>
    <contour>
      <point x="530" y="702" type="curve" smooth="yes"/>
      <point x="530" y="622"/>
      <point x="455" y="551"/>
      <point x="377" y="551" type="curve" smooth="yes"/>
      <point x="318" y="551"/>
      <point x="273" y="592"/>
      <point x="273" y="652" type="curve" smooth="yes"/>
      <point x="273" y="732"/>
      <point x="348" y="803"/>
      <point x="427" y="803" type="curve" smooth="yes"/>
      <point x="486" y="803"/>
      <point x="530" y="761"/>
    </contour>
    <contour>
      <point x="466" y="689" type="curve" smooth="yes"/>
      <point x="466" y="719"/>
      <point x="444" y="740"/>
      <point x="414" y="740" type="curve" smooth="yes"/>
      <point x="375" y="740"/>
      <point x="337" y="704"/>
      <point x="337" y="665" type="curve" smooth="yes"/>
      <point x="337" y="635"/>
      <point x="360" y="614"/>
      <point x="389" y="614" type="curve" smooth="yes"/>
      <point x="429" y="614"/>
      <point x="466" y="650"/>
    </contour>
    <contour>
      <point x="576" y="955" type="curve" smooth="yes"/>
      <point x="576" y="942"/>
      <point x="564" y="921"/>
      <point x="549" y="913" type="curve" smooth="yes"/>
      <point x="389" y="824" type="line"/>
      <point x="318" y="824" type="line"/>
      <point x="456" y="976" type="line" smooth="yes"/>
      <point x="478" y="1001"/>
      <point x="492" y="1007"/>
      <point x="519" y="1007" type="curve" smooth="yes"/>
      <point x="562" y="1007"/>
      <point x="576" y="979"/>
    </contour>
  </outline>
</glyph>
<glyph name="uni0204" format="1">
  <advance width="600"/>
  <unicode hex="0204"/>
  <outline>
    <contour>
      <point x="623" y="671" type="line"/>
      <point x="591" y="513" type="line"/>
      <point x="511" y="513" type="line"/>
      <point x="511" y="598" type="line" smooth="yes"/>
      <point x="511" y="608"/>
      <point x="499" y="611"/>
      <point x="488" y="611" type="curve" smooth="yes"/>
      <point x="316" y="611" type="line"/>
      <point x="271" y="379" type="line"/>
      <point x="384" y="379" type="line" smooth="yes"/>
      <point x="394" y="379"/>
      <point x="409" y="384"/>
      <point x="412" y="394" type="curve" smooth="yes"/>
      <point x="433" y="464" type="line"/>
      <point x="506" y="464" type="line"/>
      <point x="460" y="229" type="line"/>
      <point x="386" y="229" type="line"/>
      <point x="396" y="304" type="line" smooth="yes"/>
      <point x="398" y="312"/>
      <point x="383" y="318"/>
      <point x="374" y="318" type="curve" smooth="yes"/>
      <point x="259" y="318" type="line"/>
      <point x="209" y="60" type="line"/>
      <point x="422" y="60" type="line" smooth="yes"/>
      <point x="432" y="60"/>
      <point x="447" y="66"/>
      <point x="450" y="74" type="curve" smooth="yes"/>
      <point x="482" y="174" type="line"/>
      <point x="561" y="174" type="line"/>
      <point x="526" y="0" type="line"/>
      <point x="-15" y="0" type="line"/>
      <point x="-15" y="50" type="line"/>
      <point x="15" y="53"/>
      <point x="45" y="55"/>
      <point x="45" y="55" type="curve" smooth="yes"/>
      <point x="60" y="56"/>
      <point x="65" y="58"/>
      <point x="67" y="71" type="curve" smooth="yes"/>
      <point x="171" y="601" type="line" smooth="yes"/>
      <point x="174" y="613"/>
      <point x="166" y="615"/>
      <point x="153" y="616" type="curve" smooth="yes"/>
      <point x="153" y="616"/>
      <point x="123" y="618"/>
      <point x="96" y="621" type="curve"/>
      <point x="96" y="671" type="line"/>
    </contour>
    <contour>
      <point x="586" y="746" type="line"/>
      <point x="516" y="746" type="line"/>
      <point x="354" y="834" type="line" smooth="yes"/>
      <point x="340" y="842"/>
      <point x="329" y="863"/>
      <point x="329" y="876" type="curve" smooth="yes"/>
      <point x="329" y="900"/>
      <point x="343" y="929"/>
      <point x="386" y="929" type="curve" smooth="yes"/>
      <point x="413" y="929"/>
      <point x="427" y="922"/>
      <point x="449" y="897" type="curve" smooth="yes"/>
    </contour>
    <contour>
      <point x="371" y="746" type="line"/>
      <point x="301" y="746" type="line"/>
      <point x="139" y="834" type="line" smooth="yes"/>
      <point x="125" y="842"/>
      <point x="114" y="863"/>
      <point x="114" y="876" type="curve" smooth="yes"/>
      <point x="114" y="900"/>
      <point x="128" y="929"/>
      <point x="171" y="929" type="curve" smooth="yes"/>
      <point x="198" y="929"/>
      <point x="212" y="922"/>
      <point x="235" y="897" type="curve" smooth="yes"/>
    </contour>
  </outline>
</glyph>
<glyph name="uni0205" format="1">
  <advance width="479"/>
  <unicode hex="0205"/>
  <outline>
    <contour>
      <point x="463" y="395" type="curve" smooth="yes"/>
      <point x="463" y="290"/>
      <point x="308" y="230"/>
      <point x="175" y="219" type="curve"/>
      <point x="174" y="207"/>
      <point x="172" y="189"/>
      <point x="172" y="178" type="curve" smooth="yes"/>
      <point x="172" y="109"/>
      <point x="191" y="58"/>
      <point x="247" y="58" type="curve" smooth="yes"/>
      <point x="290" y="58"/>
      <point x="330" y="90"/>
      <point x="440" y="185" type="curve"/>
      <point x="440" y="90" type="line"/>
      <point x="401" y="52"/>
      <point x="311" y="-12"/>
      <point x="214" y="-12" type="curve" smooth="yes"/>
      <point x="127" y="-12"/>
      <point x="33" y="26"/>
      <point x="33" y="174" type="curve" smooth="yes"/>
      <point x="33" y="326"/>
      <point x="150" y="500"/>
      <point x="321" y="500" type="curve" smooth="yes"/>
      <point x="419" y="500"/>
      <point x="463" y="425"/>
    </contour>
    <contour>
      <point x="333" y="396" type="curve" smooth="yes"/>
      <point x="333" y="419"/>
      <point x="328" y="444"/>
      <point x="298" y="444" type="curve" smooth="yes"/>
      <point x="236" y="444"/>
      <point x="200" y="344"/>
      <point x="182" y="271" type="curve"/>
      <point x="251" y="287"/>
      <point x="333" y="335"/>
    </contour>
    <contour>
      <point x="524" y="551" type="line"/>
      <point x="454" y="551" type="line"/>
      <point x="292" y="639" type="line" smooth="yes"/>
      <point x="278" y="647"/>
      <point x="267" y="668"/>
      <point x="267" y="681" type="curve" smooth="yes"/>
      <point x="267" y="705"/>
      <point x="281" y="734"/>
      <point x="324" y="734" type="curve" smooth="yes"/>
      <point x="351" y="734"/>
      <point x="365" y="727"/>
      <point x="387" y="702" type="curve" smooth="yes"/>
    </contour>
    <contour>
      <point x="309" y="551" type="line"/>
      <point x="239" y="551" type="line"/>
      <point x="77" y="639" type="line" smooth="yes"/>
      <point x="63" y="647"/>
      <point x="52" y="668"/>
      <point x="52" y="681" type="curve" smooth="yes"/>
      <point x="52" y="705"/>
      <point x="66" y="734"/>
      <point x="109" y="734" type="curve" smooth="yes"/>
      <point x="136" y="734"/>
      <point x="150" y="727"/>
      <point x="173" y="702" type="curve" smooth="yes"/>
    </contour>
  </outline>
</glyph>
<glyph name="uni020D" format="1">
  <advance width="553"/>
  <unicode hex="020D"/>
  <outline>
    <contour>
      <point x="522" y="303" type="curve" smooth="yes"/>
      <point x="522" y="146"/>
      <point x="414" y="-12"/>
      <point x="232" y="-12" type="curve" smooth="yes"/>
      <point x="95" y="-12"/>
      <point x="32" y="70"/>
      <point x="32" y="181" type="curve" smooth="yes"/>
      <point x="32" y="338"/>
      <point x="135" y="500"/>
      <point x="320" y="500" type="curve" smooth="yes"/>
      <point x="443" y="500"/>
      <point x="522" y="433"/>
    </contour>
    <contour>
      <point x="378" y="307" type="curve" smooth="yes"/>
      <point x="378" y="405"/>
      <point x="334" y="447"/>
      <point x="309" y="447" type="curve" smooth="yes"/>
      <point x="248" y="447"/>
      <point x="175" y="320"/>
      <point x="175" y="185" type="curve" smooth="yes"/>
      <point x="175" y="82"/>
      <point x="221" y="43"/>
      <point x="244" y="43" type="curve" smooth="yes"/>
      <point x="314" y="43"/>
      <point x="378" y="184"/>
    </contour>
    <contour>
      <point x="544" y="551" type="line"/>
      <point x="474" y="551" type="line"/>
      <point x="312" y="639" type="line" smooth="yes"/>
      <point x="298" y="647"/>
      <point x="287" y="668"/>
      <point x="287" y="681" type="curve" smooth="yes"/>
      <point x="287" y="705"/>
      <point x="301" y="734"/>
      <point x="344" y="734" type="curve" smooth="yes"/>
      <point x="371" y="734"/>
      <point x="385" y="727"/>
      <point x="407" y="702" type="curve" smooth="yes"/>
    </contour>
    <contour>
      <point x="329" y="551" type="line"/>
      <point x="259" y="551" type="line"/>
      <point x="97" y="639" type="line" smooth="yes"/>
      <point x="83" y="647"/>
      <point x="72" y="668"/>
      <point x="72" y="681" type="curve" smooth="yes"/>
      <point x="72" y="705"/>
      <point x="86" y="734"/>
      <point x="129" y="734" type="curve" smooth="yes"/>
      <point x="156" y="734"/>
      <point x="170" y="727"/>
      <point x="193" y="702" type="curve" smooth="yes"/>
    </contour>
  </outline>
</glyph>
<glyph name="uni0230" format="1">
  <advance width="751"/>
  <unicode hex="0230"/>
  <outline>
    <contour>
      <point x="733" y="417" type="curve" smooth="yes"/>
      <point x="733" y="212"/>
      <point x="603" y="-16"/>
      <point x="341" y="-16" type="curve" smooth="yes"/>
      <point x="155" y="-16"/>
      <point x="48" y="101"/>
      <point x="48" y="263" type="curve" smooth="yes"/>
      <point x="48" y="471"/>
      <point x="194" y="687"/>
      <point x="441" y="687" type="curve" smooth="yes"/>
      <point x="634" y="687"/>
      <point x="733" y="559"/>
    </contour>
    <contour>
      <point x="577" y="417" type="curve" smooth="yes"/>
      <point x="577" y="551"/>
      <point x="501" y="627"/>
      <point x="432" y="627" type="curve" smooth="yes"/>
      <point x="313" y="627"/>
      <point x="203" y="435"/>
      <point x="203" y="255" type="curve" smooth="yes"/>
      <point x="203" y="117"/>
      <point x="282" y="46"/>
      <point x="348" y="46" type="curve" smooth="yes"/>
      <point x="466" y="46"/>
      <point x="577" y="243"/>
    </contour>
    <contour>
      <point x="540" y="848" type="curve" smooth="yes"/>
      <point x="540" y="811"/>
      <point x="511" y="780"/>
      <point x="473" y="780" type="curve" smooth="yes"/>
      <point x="434" y="780"/>
      <point x="405" y="809"/>
      <point x="405" y="848" type="curve" smooth="yes"/>
      <point x="405" y="888"/>
      <point x="432" y="921"/>
      <point x="472" y="921" type="curve" smooth="yes"/>
      <point x="511" y="921"/>
      <point x="540" y="889"/>
    </contour>
    <contour>
      <point x="674" y="1057" type="line"/>
      <point x="659" y="977" type="line"/>
      <point x="318" y="977" type="line"/>
      <point x="334" y="1057" type="line"/>
    </contour>
  </outline>
</glyph>
<glyph name="uni0240" format="1">
  <advance width="491"/>
  <unicode hex="0240"/>
  <outline>
    <contour>
      <point x="498" y="470" type="line"/>
      <point x="158" y="80" type="line"/>
      <point x="181" y="80"/>
      <point x="211" y="75"/>
      <point x="244" y="48" type="curve" smooth="yes"/>
      <point x="302" y="-1"/>
      <point x="312" y="-60"/>
      <point x="348" y="-155" type="curve"/>
      <point x="419" y="-96" type="line"/>
      <point x="438" y="-96"/>
      <point x="460" y="-121"/>
      <point x="460" y="-148" type="curve" smooth="yes"/>
      <point x="460" y="-183"/>
      <point x="428" y="-229"/>
      <point x="361" y="-229" type="curve" smooth="yes"/>
      <point x="254" y="-229"/>
      <point x="205" y="10"/>
      <point x="111" y="10" type="curve"/>
      <point x="85" y="-39" type="line"/>
      <point x="-16" y="16" type="line"/>
      <point x="314" y="396" type="line"/>
      <point x="251" y="383" type="line"/>
      <point x="216" y="402"/>
      <point x="196" y="415"/>
      <point x="173" y="415" type="curve" smooth="yes"/>
      <point x="159" y="415"/>
      <point x="118" y="401"/>
      <point x="109" y="386" type="curve"/>
      <point x="168" y="323" type="line"/>
      <point x="162" y="312"/>
      <point x="125" y="284"/>
      <point x="92" y="284" type="curve" smooth="yes"/>
      <point x="49" y="284"/>
      <point x="30" y="331"/>
      <point x="30" y="358" type="curve" smooth="yes"/>
      <point x="30" y="422"/>
      <point x="110" y="500"/>
      <point x="203" y="500" type="curve" smooth="yes"/>
      <point x="271" y="500"/>
      <point x="327" y="457"/>
      <point x="340" y="457" type="curve" smooth="yes"/>
      <point x="349" y="457"/>
      <point x="356" y="458"/>
      <point x="361" y="463" type="curve" smooth="yes"/>
      <point x="388" y="526" type="line"/>
    </contour>
  </outline>
</glyph>
<glyph name="uni025C" format="1">
  <advance width="459"/>
  <unicode hex="025C"/>
  <outline>
    <contour>
      <point x="428" y="386" type="curve" smooth="yes"/>
      <point x="428" y="327"/>
      <point x="374" y="276"/>
      <point x="305" y="248" type="curve"/>
      <point x="371" y="234"/>
      <point x="400" y="203"/>
      <point x="400" y="156" type="curve" smooth="yes"/>
      <point x="400" y="34"/>
      <point x="280" y="-12"/>
      <point x="147" y="-12" type="curve" smooth="yes"/>
      <point x="87" y="-12"/>
      <point x="39" y="8"/>
      <point x="0" y="50" type="curve"/>
      <point x="0" y="151" type="line"/>
      <point x="79" y="63"/>
      <point x="124" y="44"/>
      <point x="158" y="44" type="curve" smooth="yes"/>
      <point x="198" y="44"/>
      <point x="261" y="77"/>
      <point x="261" y="160" type="curve" smooth="yes"/>
      <point x="261" y="214"/>
      <point x="215" y="215"/>
      <point x="199" y="215" type="curve" smooth="yes"/>
      <point x="154" y="215" type="line"/>
      <point x="154" y="264" type="line"/>
      <point x="213" y="266"/>
      <point x="291" y="296"/>
      <point x="291" y="385" type="curve" smooth="yes"/>
      <point x="291" y="426"/>
      <point x="273" y="451"/>
      <point x="237" y="451" type="curve" smooth="yes"/>
      <point x="218" y="451"/>
      <point x="187" y="433"/>
      <point x="184" y="429" type="curve" smooth="yes"/>
      <point x="175" y="358" type="line"/>
      <point x="170" y="353"/>
      <point x="150" y="333"/>
      <point x="110" y="333" type="curve" smooth="yes"/>
      <point x="87" y="333"/>
      <point x="59" y="354"/>
      <point x="59" y="384" type="curve" smooth="yes"/>
      <point x="59" y="470"/>
      <point x="167" y="500"/>
      <point x="258" y="500" type="curve" smooth="yes"/>
      <point x="372" y="500"/>
      <point x="428" y="445"/>
    </contour>
  </outline>
</glyph>
<glyph name="uni025D" format="1">
  <advance width="582"/>
  <unicode hex="025D"/>
  <outline>
    <contour>
      <point x="656" y="393" type="line"/>
      <point x="640" y="352"/>
      <point x="611" y="289"/>
      <point x="539" y="289" type="curve" smooth="yes"/>
      <point x="490" y="289"/>
      <point x="462" y="322"/>
      <point x="462" y="358" type="curve" smooth="yes"/>
      <point x="462" y="374"/>
      <point x="471" y="394"/>
      <point x="474" y="407" type="curve"/>
      <point x="469" y="404"/>
      <point x="446" y="391"/>
      <point x="428" y="381" type="curve"/>
      <point x="425" y="324"/>
      <point x="371" y="275"/>
      <point x="305" y="248" type="curve"/>
      <point x="371" y="234"/>
      <point x="400" y="203"/>
      <point x="400" y="156" type="curve" smooth="yes"/>
      <point x="400" y="34"/>
      <point x="280" y="-12"/>
      <point x="147" y="-12" type="curve" smooth="yes"/>
      <point x="87" y="-12"/>
      <point x="39" y="8"/>
      <point x="0" y="50" type="curve"/>
      <point x="0" y="151" type="line"/>
      <point x="79" y="63"/>
      <point x="124" y="44"/>
      <point x="158" y="44" type="curve" smooth="yes"/>
      <point x="197" y="44"/>
      <point x="261" y="77"/>
      <point x="261" y="160" type="curve" smooth="yes"/>
      <point x="261" y="214"/>
      <point x="215" y="215"/>
      <point x="199" y="215" type="curve" smooth="yes"/>
      <point x="154" y="215" type="line"/>
      <point x="154" y="264" type="line"/>
      <point x="213" y="266"/>
      <point x="291" y="296"/>
      <point x="291" y="385" type="curve" smooth="yes"/>
      <point x="291" y="426"/>
      <point x="273" y="451"/>
      <point x="237" y="451" type="curve" smooth="yes"/>
      <point x="218" y="451"/>
      <point x="187" y="433"/>
      <point x="184" y="429" type="curve" smooth="yes"/>
      <point x="175" y="358" type="line"/>
      <point x="170" y="353"/>
      <point x="150" y="333"/>
      <point x="110" y="333" type="curve" smooth="yes"/>
      <point x="87" y="333"/>
      <point x="59" y="354"/>
      <point x="59" y="384" type="curve" smooth="yes"/>
      <point x="59" y="470"/>
      <point x="167" y="500"/>
      <point x="258" y="500" type="curve" smooth="yes"/>
      <point x="337" y="500"/>
      <point x="387" y="474"/>
      <point x="412" y="439" type="curve"/>
      <point x="444" y="457"/>
      <point x="495" y="485"/>
      <point x="519" y="500" type="curve"/>
      <point x="558" y="472" type="line"/>
      <point x="526" y="394" type="line" smooth="yes"/>
      <point x="515" y="367"/>
      <point x="513" y="339"/>
      <point x="541" y="339" type="curve" smooth="yes"/>
      <point x="572" y="339"/>
      <point x="600" y="404"/>
      <point x="610" y="426" type="curve"/>
    </contour>
  </outline>
</glyph>
<glyph name="uni025E" format="1">
  <advance width="544"/>
  <unicode hex="025E"/>
  <outline>
    <contour>
      <point x="513" y="381" type="curve" smooth="yes"/>
      <point x="513" y="319"/>
      <point x="445" y="271"/>
      <point x="389" y="248" type="curve"/>
      <point x="442" y="237"/>
      <point x="480" y="213"/>
      <point x="480" y="160" type="curve" smooth="yes"/>
      <point x="480" y="35"/>
      <point x="347" y="-12"/>
      <point x="221" y="-12" type="curve" smooth="yes"/>
      <point x="82" y="-12"/>
      <point x="32" y="72"/>
      <point x="32" y="176" type="curve" smooth="yes"/>
      <point x="32" y="349"/>
      <point x="152" y="500"/>
      <point x="346" y="500" type="curve" smooth="yes"/>
      <point x="437" y="500"/>
      <point x="513" y="457"/>
    </contour>
    <contour>
      <point x="375" y="384" type="curve" smooth="yes"/>
      <point x="375" y="425"/>
      <point x="363" y="451"/>
      <point x="322" y="451" type="curve" smooth="yes"/>
      <point x="218" y="451"/>
      <point x="132" y="303"/>
      <point x="132" y="188" type="curve" smooth="yes"/>
      <point x="132" y="122"/>
      <point x="157" y="44"/>
      <point x="234" y="44" type="curve" smooth="yes"/>
      <point x="274" y="44"/>
      <point x="343" y="92"/>
      <point x="343" y="161" type="curve" smooth="yes"/>
      <point x="343" y="226"/>
      <point x="281" y="214"/>
      <point x="236" y="214" type="curve"/>
      <point x="236" y="264" type="line"/>
      <point x="305" y="265"/>
      <point x="375" y="307"/>
    </contour>
  </outline>
</glyph>
<glyph name="uni0262" format="1">
  <advance width="583"/>
  <unicode hex="0262"/>
  <outline>
    <contour>
      <point x="578" y="197" type="line"/>
      <point x="524" y="193" type="line" smooth="yes"/>
      <point x="520" y="193"/>
      <point x="514" y="187"/>
      <point x="511" y="177" type="curve" smooth="yes"/>
      <point x="475" y="19" type="line"/>
      <point x="412" y="4"/>
      <point x="347" y="-12"/>
      <point x="282" y="-12" type="curve" smooth="yes"/>
      <point x="75" y="-12"/>
      <point x="33" y="118"/>
      <point x="33" y="194" type="curve" smooth="yes"/>
      <point x="33" y="374"/>
      <point x="205" y="500"/>
      <point x="399" y="500" type="curve" smooth="yes"/>
      <point x="461" y="500"/>
      <point x="502" y="491"/>
      <point x="571" y="472" type="curve"/>
      <point x="541" y="335" type="line"/>
      <point x="464" y="335" type="line"/>
      <point x="470" y="414" type="line" smooth="yes"/>
      <point x="470" y="418"/>
      <point x="464" y="429"/>
      <point x="453" y="433" type="curve" smooth="yes"/>
      <point x="443" y="436"/>
      <point x="414" y="445"/>
      <point x="390" y="445" type="curve" smooth="yes"/>
      <point x="294" y="445"/>
      <point x="164" y="345"/>
      <point x="164" y="184" type="curve" smooth="yes"/>
      <point x="164" y="73"/>
      <point x="262" y="42"/>
      <point x="298" y="42" type="curve" smooth="yes"/>
      <point x="317" y="42"/>
      <point x="343" y="48"/>
      <point x="358" y="51" type="curve"/>
      <point x="387" y="179" type="line" smooth="yes"/>
      <point x="388" y="185"/>
      <point x="386" y="193"/>
      <point x="378" y="194" type="curve" smooth="yes"/>
      <point x="378" y="194"/>
      <point x="354" y="195"/>
      <point x="328" y="197" type="curve"/>
      <point x="328" y="242" type="line"/>
      <point x="578" y="242" type="line"/>
    </contour>
  </outline>
</glyph>
<glyph name="uni0265" format="1">
  <advance width="564"/>
  <unicode hex="0265"/>
  <outline>
    <contour>
      <point x="538" y="488" type="line"/>
      <point x="404" y="-153" type="line"/>
      <point x="492" y="-162" type="line"/>
      <point x="492" y="-197" type="line"/>
      <point x="323" y="-229" type="line"/>
      <point x="255" y="-229" type="line"/>
      <point x="309" y="34" type="line"/>
      <point x="269" y="9"/>
      <point x="216" y="-12"/>
      <point x="157" y="-12" type="curve" smooth="yes"/>
      <point x="57" y="-12"/>
      <point x="25" y="44"/>
      <point x="42" y="128" type="curve" smooth="yes"/>
      <point x="98" y="394" type="line" smooth="yes"/>
      <point x="105" y="427"/>
      <point x="86" y="438"/>
      <point x="76" y="438" type="curve" smooth="yes"/>
      <point x="47" y="438"/>
      <point x="22" y="427"/>
      <point x="-7" y="410" type="curve"/>
      <point x="-9" y="460" type="line"/>
      <point x="42" y="484"/>
      <point x="92" y="500"/>
      <point x="146" y="500" type="curve" smooth="yes"/>
      <point x="192" y="500"/>
      <point x="249" y="482"/>
      <point x="238" y="430" type="curve" smooth="yes"/>
      <point x="178" y="139" type="line" smooth="yes"/>
      <point x="168" y="91"/>
      <point x="192" y="63"/>
      <point x="212" y="63" type="curve" smooth="yes"/>
      <point x="243" y="63"/>
      <point x="290" y="96"/>
      <point x="331" y="138" type="curve"/>
      <point x="404" y="488" type="line"/>
    </contour>
  </outline>
</glyph>
<glyph name="uni0266" format="1">
  <advance width="564"/>
  <unicode hex="0266"/>
  <outline>
    <contour>
      <point x="579" y="645" type="curve" smooth="yes"/>
      <point x="579" y="605"/>
      <point x="547" y="572"/>
      <point x="506" y="572" type="curve" smooth="yes"/>
      <point x="484" y="572"/>
      <point x="463" y="581"/>
      <point x="463" y="581" type="curve"/>
      <point x="445" y="665" type="line"/>
      <point x="437" y="672"/>
      <point x="407" y="674"/>
      <point x="397" y="674" type="curve" smooth="yes"/>
      <point x="346" y="674"/>
      <point x="283" y="628"/>
      <point x="259" y="516" type="curve" smooth="yes"/>
      <point x="245" y="454" type="line"/>
      <point x="285" y="479"/>
      <point x="338" y="500"/>
      <point x="397" y="500" type="curve" smooth="yes"/>
      <point x="497" y="500"/>
      <point x="529" y="443"/>
      <point x="512" y="359" type="curve" smooth="yes"/>
      <point x="456" y="94" type="line" smooth="yes"/>
      <point x="449" y="61"/>
      <point x="468" y="50"/>
      <point x="479" y="50" type="curve" smooth="yes"/>
      <point x="508" y="50"/>
      <point x="532" y="61"/>
      <point x="562" y="78" type="curve"/>
      <point x="563" y="28" type="line"/>
      <point x="513" y="4"/>
      <point x="462" y="-12"/>
      <point x="409" y="-12" type="curve" smooth="yes"/>
      <point x="362" y="-12"/>
      <point x="305" y="6"/>
      <point x="316" y="58" type="curve" smooth="yes"/>
      <point x="376" y="349" type="line" smooth="yes"/>
      <point x="386" y="397"/>
      <point x="362" y="424"/>
      <point x="342" y="424" type="curve" smooth="yes"/>
      <point x="312" y="424"/>
      <point x="264" y="392"/>
      <point x="223" y="350" type="curve"/>
      <point x="150" y="0" type="line"/>
      <point x="17" y="0" type="line"/>
      <point x="126" y="519" type="line" smooth="yes"/>
      <point x="137" y="572"/>
      <point x="212" y="737"/>
      <point x="402" y="737" type="curve" smooth="yes"/>
      <point x="529" y="737"/>
      <point x="579" y="703"/>
    </contour>
  </outline>
</glyph>
<glyph name="uni0268" format="1">
  <advance width="310"/>
  <unicode hex="0268"/>
  <outline>
    <contour>
      <point x="295" y="663" type="curve" smooth="yes"/>
      <point x="295" y="620"/>
      <point x="260" y="585"/>
      <point x="217" y="585" type="curve" smooth="yes"/>
      <point x="174" y="585"/>
      <point x="140" y="620"/>
      <point x="140" y="663" type="curve" smooth="yes"/>
      <point x="140" y="706"/>
      <point x="174" y="740"/>
      <point x="217" y="740" type="curve" smooth="yes"/>
      <point x="260" y="740"/>
      <point x="295" y="706"/>
    </contour>
    <contour>
      <point x="308" y="32" type="line"/>
      <point x="248" y="0"/>
      <point x="197" y="-12"/>
      <point x="139" y="-12" type="curve" smooth="yes"/>
      <point x="66" y="-12"/>
      <point x="40" y="42"/>
      <point x="50" y="91" type="curve" smooth="yes"/>
      <point x="75" y="220" type="line"/>
      <point x="6" y="220" type="line"/>
      <point x="6" y="281" type="line"/>
      <point x="86" y="281" type="line"/>
      <point x="113" y="423" type="line"/>
      <point x="27" y="432" type="line"/>
      <point x="27" y="467" type="line"/>
      <point x="192" y="500" type="line"/>
      <point x="262" y="500" type="line"/>
      <point x="220" y="281" type="line"/>
      <point x="299" y="281" type="line"/>
      <point x="299" y="220" type="line"/>
      <point x="208" y="220" type="line"/>
      <point x="185" y="99" type="line" smooth="yes"/>
      <point x="180" y="75"/>
      <point x="180" y="53"/>
      <point x="204" y="53" type="curve" smooth="yes"/>
      <point x="215" y="53"/>
      <point x="271" y="67"/>
      <point x="308" y="87" type="curve"/>
    </contour>
  </outline>
</glyph>
<glyph name="uni0269" format="1">
  <advance width="349"/>
  <unicode hex="0269"/>
  <outline>
    <contour>
      <point x="344" y="85" type="curve" smooth="yes"/>
      <point x="344" y="19"/>
      <point x="265" y="-12"/>
      <point x="176" y="-12" type="curve" smooth="yes"/>
      <point x="78" y="-12"/>
      <point x="36" y="45"/>
      <point x="46" y="94" type="curve" smooth="yes"/>
      <point x="109" y="422" type="line"/>
      <point x="26" y="431" type="line"/>
      <point x="26" y="467" type="line"/>
      <point x="189" y="500" type="line"/>
      <point x="258" y="500" type="line"/>
      <point x="181" y="106" type="line" smooth="yes"/>
      <point x="175" y="75"/>
      <point x="196" y="60"/>
      <point x="225" y="56" type="curve"/>
      <point x="269" y="145" type="line"/>
      <point x="319" y="141"/>
      <point x="344" y="112"/>
    </contour>
  </outline>
</glyph>
<glyph name="uni026A" format="1">
  <advance width="298"/>
  <unicode hex="026A"/>
  <outline>
    <contour>
      <point x="326" y="440" type="line"/>
      <point x="271" y="435" type="line" smooth="yes"/>
      <point x="262" y="434"/>
      <point x="256" y="429"/>
      <point x="253" y="416" type="curve" smooth="yes"/>
      <point x="179" y="72" type="line" smooth="yes"/>
      <point x="176" y="58"/>
      <point x="183" y="54"/>
      <point x="203" y="51" type="curve" smooth="yes"/>
      <point x="245" y="47" type="line"/>
      <point x="245" y="0" type="line"/>
      <point x="-27" y="0" type="line"/>
      <point x="-27" y="47" type="line"/>
      <point x="-8" y="49"/>
      <point x="5" y="51"/>
      <point x="15" y="51" type="curve" smooth="yes"/>
      <point x="37" y="53"/>
      <point x="43" y="58"/>
      <point x="45" y="72" type="curve" smooth="yes"/>
      <point x="120" y="416" type="line" smooth="yes"/>
      <point x="123" y="429"/>
      <point x="116" y="435"/>
      <point x="96" y="437" type="curve" smooth="yes"/>
      <point x="96" y="437"/>
      <point x="72" y="439"/>
      <point x="54" y="440" type="curve"/>
      <point x="54" y="488" type="line"/>
      <point x="326" y="488" type="line"/>
    </contour>
  </outline>
</glyph>
<glyph name="uni026B" format="1">
  <advance width="334"/>
  <unicode hex="026B"/>
  <outline>
    <contour>
      <point x="408" y="427" type="line"/>
      <point x="378" y="358"/>
      <point x="331" y="303"/>
      <point x="263" y="303" type="curve" smooth="yes"/>
      <point x="257" y="303"/>
      <point x="251" y="303"/>
      <point x="245" y="304" type="curve"/>
      <point x="206" y="102" type="line" smooth="yes"/>
      <point x="202" y="79"/>
      <point x="207" y="53"/>
      <point x="231" y="53" type="curve" smooth="yes"/>
      <point x="248" y="53"/>
      <point x="287" y="62"/>
      <point x="333" y="83" type="curve"/>
      <point x="333" y="29" type="line"/>
      <point x="286" y="4"/>
      <point x="226" y="-12"/>
      <point x="174" y="-12" type="curve" smooth="yes"/>
      <point x="108" y="-12"/>
      <point x="69" y="18"/>
      <point x="69" y="64" type="curve" smooth="yes"/>
      <point x="69" y="75"/>
      <point x="70" y="87"/>
      <point x="73" y="100" type="curve" smooth="yes"/>
      <point x="120" y="345" type="line"/>
      <point x="107" y="348"/>
      <point x="94" y="351"/>
      <point x="81" y="351" type="curve" smooth="yes"/>
      <point x="60" y="351"/>
      <point x="36" y="330"/>
      <point x="28" y="303" type="curve"/>
      <point x="-26" y="303" type="line"/>
      <point x="4" y="372"/>
      <point x="52" y="427"/>
      <point x="119" y="427" type="curve" smooth="yes"/>
      <point x="125" y="427"/>
      <point x="130" y="427"/>
      <point x="136" y="426" type="curve"/>
      <point x="182" y="661" type="line"/>
      <point x="94" y="669" type="line"/>
      <point x="94" y="705" type="line"/>
      <point x="263" y="737" type="line"/>
      <point x="329" y="737" type="line"/>
      <point x="261" y="385" type="line"/>
      <point x="274" y="382"/>
      <point x="288" y="379"/>
      <point x="301" y="379" type="curve" smooth="yes"/>
      <point x="322" y="379"/>
      <point x="346" y="400"/>
      <point x="354" y="427" type="curve"/>
    </contour>
  </outline>
</glyph>
<glyph name="uni0274" format="1">
  <advance width="606"/>
  <unicode hex="0274"/>
  <outline>
    <contour>
      <point x="629" y="443" type="line"/>
      <point x="576" y="439" type="line" smooth="yes"/>
      <point x="570" y="439"/>
      <point x="564" y="431"/>
      <point x="563" y="427" type="curve" smooth="yes"/>
      <point x="467" y="0" type="line"/>
      <point x="371" y="0" type="line"/>
      <point x="194" y="330" type="line"/>
      <point x="135" y="63" type="line" smooth="yes"/>
      <point x="134" y="58"/>
      <point x="141" y="49"/>
      <point x="147" y="48" type="curve" smooth="yes"/>
      <point x="147" y="48"/>
      <point x="167" y="47"/>
      <point x="194" y="45" type="curve"/>
      <point x="194" y="0" type="line"/>
      <point x="-30" y="0" type="line"/>
      <point x="-30" y="45" type="line"/>
      <point x="-3" y="47"/>
      <point x="21" y="48"/>
      <point x="21" y="48" type="curve" smooth="yes"/>
      <point x="31" y="49"/>
      <point x="36" y="58"/>
      <point x="37" y="63" type="curve" smooth="yes"/>
      <point x="118" y="427" type="line" smooth="yes"/>
      <point x="119" y="433"/>
      <point x="113" y="439"/>
      <point x="107" y="440" type="curve" smooth="yes"/>
      <point x="107" y="440"/>
      <point x="85" y="441"/>
      <point x="59" y="443" type="curve"/>
      <point x="59" y="488" type="line"/>
      <point x="256" y="488" type="line"/>
      <point x="256" y="462" type="line"/>
      <point x="409" y="177" type="line"/>
      <point x="465" y="427" type="line" smooth="yes"/>
      <point x="466" y="433"/>
      <point x="459" y="439"/>
      <point x="453" y="440" type="curve" smooth="yes"/>
      <point x="453" y="440"/>
      <point x="432" y="441"/>
      <point x="406" y="443" type="curve"/>
      <point x="406" y="488" type="line"/>
      <point x="629" y="488" type="line"/>
    </contour>
  </outline>
</glyph>
<glyph name="uni0287" format="1">
  <advance width="349"/>
  <unicode hex="0287"/>
  <outline>
    <contour>
      <point x="305" y="24" type="line"/>
      <point x="219" y="-11" type="line"/>
      <point x="168" y="-114" type="line"/>
      <point x="68" y="-114" type="line"/>
      <point x="89" y="0" type="line"/>
      <point x="-49" y="0" type="line"/>
      <point x="-49" y="55" type="line"/>
      <point x="100" y="55" type="line"/>
      <point x="166" y="378" type="line" smooth="yes"/>
      <point x="172" y="410"/>
      <point x="158" y="431"/>
      <point x="126" y="431" type="curve" smooth="yes"/>
      <point x="95" y="431"/>
      <point x="33" y="407"/>
      <point x="1" y="396" type="curve"/>
      <point x="1" y="451" type="line"/>
      <point x="23" y="461"/>
      <point x="123" y="500"/>
      <point x="186" y="500" type="curve" smooth="yes"/>
      <point x="264" y="500"/>
      <point x="300" y="462"/>
      <point x="300" y="410" type="curve" smooth="yes"/>
      <point x="300" y="397"/>
      <point x="299" y="384"/>
      <point x="296" y="370" type="curve" smooth="yes"/>
      <point x="232" y="57" type="line"/>
      <point x="305" y="64" type="line"/>
    </contour>
  </outline>
</glyph>
<glyph name="uni028A" format="1">
  <advance width="595"/>
  <unicode hex="028A"/>
  <outline>
    <contour>
      <point x="590" y="488" type="line"/>
      <point x="582" y="439" type="line"/>
      <point x="509" y="436" type="line"/>
      <point x="532" y="401"/>
      <point x="547" y="351"/>
      <point x="547" y="289" type="curve" smooth="yes"/>
      <point x="547" y="136"/>
      <point x="426" y="-12"/>
      <point x="244" y="-12" type="curve" smooth="yes"/>
      <point x="101" y="-12"/>
      <point x="32" y="63"/>
      <point x="32" y="180" type="curve" smooth="yes"/>
      <point x="32" y="276"/>
      <point x="89" y="369"/>
      <point x="149" y="436" type="curve"/>
      <point x="81" y="441" type="line"/>
      <point x="89" y="488" type="line"/>
      <point x="295" y="488" type="line"/>
      <point x="240" y="421"/>
      <point x="175" y="293"/>
      <point x="175" y="177" type="curve" smooth="yes"/>
      <point x="175" y="116"/>
      <point x="179" y="48"/>
      <point x="253" y="48" type="curve" smooth="yes"/>
      <point x="349" y="48"/>
      <point x="416" y="216"/>
      <point x="416" y="360" type="curve" smooth="yes"/>
      <point x="416" y="422"/>
      <point x="385" y="488"/>
      <point x="385" y="488" type="curve"/>
    </contour>
  </outline>
</glyph>
<glyph name="uni0296" format="1">
  <advance width="479"/>
  <unicode hex="0296"/>
  <outline>
    <contour>
      <point x="431" y="222" type="curve" smooth="yes"/>
      <point x="431" y="75"/>
      <point x="299" y="-12"/>
      <point x="162" y="-12" type="curve" smooth="yes"/>
      <point x="103" y="-12"/>
      <point x="2" y="3"/>
      <point x="2" y="81" type="curve" smooth="yes"/>
      <point x="2" y="122"/>
      <point x="27" y="153"/>
      <point x="70" y="153" type="curve" smooth="yes"/>
      <point x="85" y="153"/>
      <point x="100" y="150"/>
      <point x="113" y="145" type="curve"/>
      <point x="131" y="60" type="line"/>
      <point x="207" y="2"/>
      <point x="293" y="126"/>
      <point x="293" y="209" type="curve" smooth="yes"/>
      <point x="293" y="287"/>
      <point x="226" y="349"/>
      <point x="156" y="372" type="curve"/>
      <point x="199" y="591" type="line" smooth="yes"/>
      <point x="201" y="604"/>
      <point x="193" y="615"/>
      <point x="173" y="616" type="curve" smooth="yes"/>
      <point x="114" y="619" type="line"/>
      <point x="114" y="671" type="line"/>
      <point x="424" y="671" type="line"/>
      <point x="424" y="619" type="line"/>
      <point x="364" y="616" type="line" smooth="yes"/>
      <point x="348" y="615"/>
      <point x="335" y="604"/>
      <point x="333" y="591" type="curve" smooth="yes"/>
      <point x="292" y="387" type="line"/>
      <point x="371" y="370"/>
      <point x="431" y="304"/>
    </contour>
  </outline>
</glyph>
<glyph name="uni0298" format="1">
  <advance width="775"/>
  <unicode hex="0298"/>
  <outline>
    <contour>
      <point x="778" y="403" type="curve" smooth="yes"/>
      <point x="778" y="190"/>
      <point x="574" y="-16"/>
      <point x="332" y="-16" type="curve" smooth="yes"/>
      <point x="144" y="-16"/>
      <point x="27" y="108"/>
      <point x="27" y="268" type="curve" smooth="yes"/>
      <point x="27" y="481"/>
      <point x="230" y="687"/>
      <point x="472" y="687" type="curve" smooth="yes"/>
      <point x="661" y="687"/>
      <point x="778" y="563"/>
    </contour>
    <contour>
      <point x="668" y="390" type="curve" smooth="yes"/>
      <point x="668" y="524"/>
      <point x="567" y="609"/>
      <point x="459" y="609" type="curve" smooth="yes"/>
      <point x="308" y="609"/>
      <point x="136" y="458"/>
      <point x="136" y="281" type="curve" smooth="yes"/>
      <point x="136" y="148"/>
      <point x="239" y="62"/>
      <point x="346" y="62" type="curve" smooth="yes"/>
      <point x="497" y="62"/>
      <point x="668" y="212"/>
    </contour>
    <contour>
      <point x="495" y="356" type="curve" smooth="yes"/>
      <point x="495" y="307"/>
      <point x="440" y="262"/>
      <point x="389" y="262" type="curve" smooth="yes"/>
      <point x="352" y="262"/>
      <point x="313" y="289"/>
      <point x="313" y="325" type="curve" smooth="yes"/>
      <point x="313" y="372"/>
      <point x="369" y="412"/>
      <point x="417" y="412" type="curve" smooth="yes"/>
      <point x="450" y="412"/>
      <point x="495" y="392"/>
    </contour>
  </outline>
</glyph>
<glyph name="uni029E" format="1">
  <advance width="549"/>
  <unicode hex="029E"/>
  <outline>
    <contour>
      <point x="538" y="488" type="line"/>
      <point x="408" y="-153" type="line"/>
      <point x="496" y="-162" type="line"/>
      <point x="496" y="-197" type="line"/>
      <point x="327" y="-229" type="line"/>
      <point x="259" y="-229" type="line"/>
      <point x="338" y="162" type="line"/>
      <point x="227" y="46" type="line" smooth="yes"/>
      <point x="186" y="4"/>
      <point x="151" y="-12"/>
      <point x="112" y="-12" type="curve" smooth="yes"/>
      <point x="62" y="-12"/>
      <point x="26" y="19"/>
      <point x="27" y="46" type="curve" smooth="yes"/>
      <point x="27" y="69"/>
      <point x="33" y="117"/>
      <point x="109" y="143" type="curve"/>
      <point x="149" y="78" type="line"/>
      <point x="182" y="104"/>
      <point x="225" y="150"/>
      <point x="250" y="172" type="curve"/>
      <point x="232" y="205"/>
      <point x="207" y="282"/>
      <point x="178" y="335" type="curve" smooth="yes"/>
      <point x="149" y="388"/>
      <point x="128" y="437"/>
      <point x="94" y="437" type="curve" smooth="yes"/>
      <point x="93" y="437"/>
      <point x="67" y="432"/>
      <point x="12" y="409" type="curve"/>
      <point x="12" y="461" type="line"/>
      <point x="45" y="479"/>
      <point x="110" y="500"/>
      <point x="156" y="500" type="curve" smooth="yes"/>
      <point x="192" y="500"/>
      <point x="235" y="471"/>
      <point x="252" y="445" type="curve" smooth="yes"/>
      <point x="275" y="411"/>
      <point x="316" y="318"/>
      <point x="341" y="264" type="curve"/>
      <point x="363" y="283" type="line"/>
      <point x="405" y="488" type="line"/>
    </contour>
  </outline>
</glyph>
<glyph name="uni02A5" format="1">
  <advance width="836"/>
  <unicode hex="02A5"/>
  <outline>
    <contour>
      <point x="848" y="470" type="line"/>
      <point x="508" y="96" type="line"/>
      <point x="572" y="104" type="line"/>
      <point x="612" y="160"/>
      <point x="673" y="204"/>
      <point x="745" y="204" type="curve" smooth="yes"/>
      <point x="783" y="204"/>
      <point x="835" y="162"/>
      <point x="835" y="126" type="curve" smooth="yes"/>
      <point x="835" y="45"/>
      <point x="773" y="-12"/>
      <point x="664" y="-12" type="curve" smooth="yes"/>
      <point x="643" y="-12"/>
      <point x="631" y="-8"/>
      <point x="611" y="-1" type="curve"/>
      <point x="594" y="-48"/>
      <point x="583" y="-89"/>
      <point x="575" y="-128" type="curve"/>
      <point x="491" y="-128" type="line"/>
      <point x="502" y="-65"/>
      <point x="516" y="-21"/>
      <point x="538" y="32" type="curve"/>
      <point x="499" y="45"/>
      <point x="473" y="47"/>
      <point x="451" y="32" type="curve"/>
      <point x="421" y="0" type="line"/>
      <point x="306" y="0" type="line"/>
      <point x="317" y="55" type="line"/>
      <point x="286" y="16"/>
      <point x="239" y="-12"/>
      <point x="196" y="-12" type="curve" smooth="yes"/>
      <point x="80" y="-12"/>
      <point x="32" y="83"/>
      <point x="32" y="169" type="curve" smooth="yes"/>
      <point x="32" y="322"/>
      <point x="133" y="500"/>
      <point x="335" y="500" type="curve" smooth="yes"/>
      <point x="360" y="500"/>
      <point x="380" y="492"/>
      <point x="393" y="488" type="curve"/>
      <point x="423" y="661" type="line"/>
      <point x="333" y="669" type="line"/>
      <point x="333" y="705" type="line"/>
      <point x="502" y="737" type="line"/>
      <point x="570" y="737" type="line"/>
      <point x="528" y="498" type="line"/>
      <point x="536" y="499"/>
      <point x="544" y="500"/>
      <point x="553" y="500" type="curve" smooth="yes"/>
      <point x="621" y="500"/>
      <point x="677" y="457"/>
      <point x="690" y="457" type="curve" smooth="yes"/>
      <point x="699" y="457"/>
      <point x="707" y="458"/>
      <point x="711" y="463" type="curve" smooth="yes"/>
      <point x="738" y="526" type="line"/>
    </contour>
    <contour>
      <point x="665" y="396" type="line"/>
      <point x="602" y="383" type="line"/>
      <point x="537" y="420" type="line"/>
      <point x="527" y="420"/>
      <point x="521" y="417"/>
      <point x="513" y="414" type="curve"/>
      <point x="473" y="186" type="line"/>
    </contour>
    <contour>
      <point x="745" y="108" type="curve" smooth="yes"/>
      <point x="750" y="130"/>
      <point x="735" y="143"/>
      <point x="722" y="143" type="curve" smooth="yes"/>
      <point x="691" y="143"/>
      <point x="669" y="120"/>
      <point x="653" y="86" type="curve"/>
      <point x="664" y="68"/>
      <point x="678" y="58"/>
      <point x="694" y="58" type="curve" smooth="yes"/>
      <point x="726" y="58"/>
      <point x="738" y="74"/>
    </contour>
    <contour>
      <point x="376" y="394" type="line" smooth="yes"/>
      <point x="377" y="399"/>
      <point x="357" y="443"/>
      <point x="333" y="443" type="curve" smooth="yes"/>
      <point x="263" y="443"/>
      <point x="170" y="334"/>
      <point x="170" y="175" type="curve" smooth="yes"/>
      <point x="170" y="94"/>
      <point x="190" y="59"/>
      <point x="227" y="59" type="curve" smooth="yes"/>
      <point x="261" y="59"/>
      <point x="304" y="104"/>
      <point x="334" y="154" type="curve"/>
    </contour>
  </outline>
</glyph>
<glyph name="uni02AA" format="1">
  <advance width="629"/>
  <unicode hex="02AA"/>
  <outline>
    <contour>
      <point x="609" y="423" type="curve" smooth="yes"/>
      <point x="609" y="378"/>
      <point x="586" y="358"/>
      <point x="525" y="354" type="curve"/>
      <point x="474" y="441" type="line"/>
      <point x="474" y="441"/>
      <point x="463" y="445"/>
      <point x="448" y="445" type="curve" smooth="yes"/>
      <point x="408" y="445"/>
      <point x="406" y="408"/>
      <point x="406" y="383" type="curve" smooth="yes"/>
      <point x="406" y="342"/>
      <point x="452" y="304"/>
      <point x="495" y="271" type="curve" smooth="yes"/>
      <point x="540" y="236"/>
      <point x="583" y="197"/>
      <point x="583" y="148" type="curve" smooth="yes"/>
      <point x="583" y="71"/>
      <point x="510" y="-12"/>
      <point x="360" y="-12" type="curve" smooth="yes"/>
      <point x="316" y="-12"/>
      <point x="282" y="-4"/>
      <point x="258" y="9" type="curve"/>
      <point x="220" y="-4"/>
      <point x="180" y="-12"/>
      <point x="144" y="-12" type="curve" smooth="yes"/>
      <point x="78" y="-12"/>
      <point x="39" y="18"/>
      <point x="39" y="64" type="curve" smooth="yes"/>
      <point x="39" y="75"/>
      <point x="40" y="87"/>
      <point x="43" y="100" type="curve" smooth="yes"/>
      <point x="152" y="661" type="line"/>
      <point x="64" y="669" type="line"/>
      <point x="64" y="705" type="line"/>
      <point x="233" y="737" type="line"/>
      <point x="299" y="737" type="line"/>
      <point x="176" y="102" type="line" smooth="yes"/>
      <point x="172" y="79"/>
      <point x="177" y="53"/>
      <point x="202" y="53" type="curve" smooth="yes"/>
      <point x="205" y="53"/>
      <point x="209" y="53"/>
      <point x="214" y="54" type="curve"/>
      <point x="210" y="63"/>
      <point x="208" y="73"/>
      <point x="208" y="83" type="curve" smooth="yes"/>
      <point x="208" y="118"/>
      <point x="237" y="151"/>
      <point x="264" y="151" type="curve" smooth="yes"/>
      <point x="293" y="151"/>
      <point x="313" y="141"/>
      <point x="326" y="127" type="curve"/>
      <point x="308" y="68" type="line"/>
      <point x="322" y="48"/>
      <point x="363" y="37"/>
      <point x="390" y="37" type="curve" smooth="yes"/>
      <point x="430" y="37"/>
      <point x="450" y="67"/>
      <point x="450" y="114" type="curve" smooth="yes"/>
      <point x="450" y="155"/>
      <point x="417" y="183"/>
      <point x="368" y="220" type="curve" smooth="yes"/>
      <point x="326" y="252"/>
      <point x="285" y="296"/>
      <point x="285" y="346" type="curve" smooth="yes"/>
      <point x="285" y="440"/>
      <point x="380" y="500"/>
      <point x="487" y="500" type="curve" smooth="yes"/>
      <point x="570" y="500"/>
      <point x="609" y="448"/>
    </contour>
  </outline>
</glyph>
<glyph name="uni02B2" format="1">
  <advance width="208"/>
  <unicode hex="02B2"/>
  <outline>
    <contour>
      <point x="253" y="781" type="curve" smooth="yes"/>
      <point x="253" y="755"/>
      <point x="230" y="734"/>
      <point x="202" y="734" type="curve" smooth="yes"/>
      <point x="174" y="734"/>
      <point x="152" y="755"/>
      <point x="152" y="781" type="curve" smooth="yes"/>
      <point x="152" y="807"/>
      <point x="174" y="827"/>
      <point x="202" y="827" type="curve" smooth="yes"/>
      <point x="230" y="827"/>
      <point x="253" y="807"/>
    </contour>
    <contour>
      <point x="230" y="683" type="line"/>
      <point x="183" y="432" type="line" smooth="yes"/>
      <point x="172" y="371"/>
      <point x="114" y="244"/>
      <point x="24" y="244" type="curve" smooth="yes"/>
      <point x="-7" y="244"/>
      <point x="-33" y="259"/>
      <point x="-33" y="278" type="curve" smooth="yes"/>
      <point x="-33" y="294"/>
      <point x="-21" y="303"/>
      <point x="-6" y="312" type="curve"/>
      <point x="56" y="296" type="line"/>
      <point x="67" y="313"/>
      <point x="81" y="348"/>
      <point x="86" y="377" type="curve" smooth="yes"/>
      <point x="135" y="636" type="line"/>
      <point x="80" y="642" type="line"/>
      <point x="80" y="663" type="line"/>
      <point x="187" y="683" type="line"/>
    </contour>
  </outline>
</glyph>
<glyph name="uni02B4" format="1">
  <advance width="263"/>
  <unicode hex="02B4"/>
  <outline>
    <contour>
      <point x="307" y="676" type="line"/>
      <point x="250" y="422" type="line"/>
      <point x="304" y="417" type="line"/>
      <point x="304" y="396" type="line"/>
      <point x="196" y="376" type="line"/>
      <point x="152" y="376" type="line"/>
      <point x="161" y="417" type="line"/>
      <point x="138" y="395"/>
      <point x="105" y="376"/>
      <point x="72" y="376" type="curve" smooth="yes"/>
      <point x="38" y="376"/>
      <point x="23" y="401"/>
      <point x="23" y="419" type="curve" smooth="yes"/>
      <point x="23" y="446"/>
      <point x="41" y="459"/>
      <point x="84" y="459" type="curve"/>
      <point x="102" y="428" type="line"/>
      <point x="143" y="447"/>
      <point x="176" y="482"/>
      <point x="185" y="518" type="curve" smooth="yes"/>
      <point x="221" y="676" type="line"/>
    </contour>
  </outline>
</glyph>
<glyph name="uni02BF" format="1">
  <advance width="286"/>
  <unicode hex="02BF"/>
  <outline>
    <contour>
      <point x="315" y="707" type="curve"/>
      <point x="303" y="640" type="line"/>
      <point x="209" y="640"/>
      <point x="162" y="581"/>
      <point x="162" y="489" type="curve" smooth="yes"/>
      <point x="162" y="428"/>
      <point x="203" y="413"/>
      <point x="257" y="413" type="curve"/>
      <point x="245" y="346" type="line"/>
      <point x="158" y="346"/>
      <point x="89" y="383"/>
      <point x="89" y="478" type="curve" smooth="yes"/>
      <point x="89" y="613"/>
      <point x="180" y="707"/>
    </contour>
  </outline>
</glyph>
<glyph name="uni02C1" format="1">
  <advance width="316"/>
  <unicode hex="02C1"/>
  <outline>
    <contour>
      <point x="384" y="740" type="curve" smooth="yes"/>
      <point x="384" y="715"/>
      <point x="368" y="696"/>
      <point x="340" y="696" type="curve" smooth="yes"/>
      <point x="331" y="696"/>
      <point x="321" y="698"/>
      <point x="313" y="701" type="curve"/>
      <point x="301" y="752" type="line"/>
      <point x="251" y="787"/>
      <point x="195" y="712"/>
      <point x="195" y="663" type="curve" smooth="yes"/>
      <point x="195" y="616"/>
      <point x="239" y="579"/>
      <point x="285" y="565" type="curve"/>
      <point x="256" y="431" type="line" smooth="yes"/>
      <point x="254" y="422"/>
      <point x="260" y="417"/>
      <point x="273" y="416" type="curve" smooth="yes"/>
      <point x="311" y="414" type="line"/>
      <point x="311" y="383" type="line"/>
      <point x="109" y="383" type="line"/>
      <point x="109" y="414" type="line"/>
      <point x="148" y="416" type="line" smooth="yes"/>
      <point x="159" y="417"/>
      <point x="167" y="423"/>
      <point x="169" y="431" type="curve" smooth="yes"/>
      <point x="196" y="556" type="line"/>
      <point x="145" y="566"/>
      <point x="105" y="606"/>
      <point x="105" y="655" type="curve" smooth="yes"/>
      <point x="105" y="743"/>
      <point x="192" y="795"/>
      <point x="280" y="795" type="curve" smooth="yes"/>
      <point x="319" y="795"/>
      <point x="384" y="786"/>
    </contour>
  </outline>
</glyph>
<glyph name="uni02C9" format="1">
  <advance width="339"/>
  <unicode hex="02C9"/>
  <outline>
    <contour>
      <point x="419" y="667" type="line"/>
      <point x="404" y="586" type="line"/>
      <point x="63" y="586" type="line"/>
      <point x="79" y="667" type="line"/>
    </contour>
  </outline>
</glyph>
<glyph name="breve" format="1">
  <advance width="312"/>
  <unicode hex="02D8"/>
  <outline>
    <contour>
      <point x="403" y="714" type="line"/>
      <point x="385" y="619"/>
      <point x="314" y="551"/>
      <point x="215" y="551" type="curve" smooth="yes"/>
      <point x="137" y="551"/>
      <point x="86" y="593"/>
      <point x="86" y="672" type="curve" smooth="yes"/>
      <point x="86" y="686"/>
      <point x="88" y="700"/>
      <point x="91" y="714" type="curve"/>
      <point x="143" y="714" type="line"/>
      <point x="144" y="660"/>
      <point x="179" y="632"/>
      <point x="231" y="632" type="curve" smooth="yes"/>
      <point x="286" y="632"/>
      <point x="330" y="663"/>
      <point x="351" y="714" type="curve"/>
    </contour>
  </outline>
</glyph>
<glyph name="dotaccent" format="1">
  <advance width="136"/>
  <unicode hex="02D9"/>
  <outline>
    <contour>
      <point x="216" y="653" type="curve" smooth="yes"/>
      <point x="216" y="616"/>
      <point x="187" y="585"/>
      <point x="149" y="585" type="curve" smooth="yes"/>
      <point x="110" y="585"/>
      <point x="81" y="614"/>
      <point x="81" y="653" type="curve" smooth="yes"/>
      <point x="81" y="693"/>
      <point x="108" y="726"/>
      <point x="148" y="726" type="curve" smooth="yes"/>
      <point x="187" y="726"/>
      <point x="216" y="694"/>
    </contour>
  </outline>
</glyph>
<glyph name="uni02E2" format="1">
  <advance width="270"/>
  <unicode hex="02E2"/>
  <outline>
    <contour>
      <point x="307" y="637" type="curve" smooth="yes"/>
      <point x="307" y="610"/>
      <point x="292" y="597"/>
      <point x="252" y="595" type="curve"/>
      <point x="219" y="647" type="line"/>
      <point x="219" y="647"/>
      <point x="212" y="650"/>
      <point x="202" y="650" type="curve" smooth="yes"/>
      <point x="176" y="650"/>
      <point x="174" y="628"/>
      <point x="174" y="613" type="curve" smooth="yes"/>
      <point x="174" y="588"/>
      <point x="204" y="565"/>
      <point x="232" y="545" type="curve" smooth="yes"/>
      <point x="261" y="524"/>
      <point x="289" y="501"/>
      <point x="289" y="472" type="curve" smooth="yes"/>
      <point x="289" y="425"/>
      <point x="242" y="376"/>
      <point x="145" y="376" type="curve" smooth="yes"/>
      <point x="76" y="376"/>
      <point x="46" y="404"/>
      <point x="46" y="433" type="curve" smooth="yes"/>
      <point x="46" y="454"/>
      <point x="64" y="474"/>
      <point x="83" y="474" type="curve" smooth="yes"/>
      <point x="101" y="474"/>
      <point x="114" y="467"/>
      <point x="123" y="459" type="curve"/>
      <point x="110" y="424" type="line"/>
      <point x="120" y="412"/>
      <point x="146" y="405"/>
      <point x="164" y="405" type="curve" smooth="yes"/>
      <point x="190" y="405"/>
      <point x="203" y="423"/>
      <point x="203" y="451" type="curve" smooth="yes"/>
      <point x="203" y="476"/>
      <point x="181" y="492"/>
      <point x="149" y="515" type="curve" smooth="yes"/>
      <point x="122" y="534"/>
      <point x="96" y="560"/>
      <point x="96" y="590" type="curve" smooth="yes"/>
      <point x="96" y="647"/>
      <point x="157" y="683"/>
      <point x="227" y="683" type="curve" smooth="yes"/>
      <point x="281" y="683"/>
      <point x="307" y="652"/>
    </contour>
  </outline>
</glyph>
<glyph name="uni02E6" format="1">
  <advance width="418"/>
  <unicode hex="02E6"/>
  <outline>
    <contour>
      <point x="138" y="486" type="line" smooth="yes"/>
      <point x="117" y="486"/>
      <point x="100" y="503"/>
      <point x="100" y="524" type="curve" smooth="yes"/>
      <point x="100" y="545"/>
      <point x="117" y="562"/>
      <point x="138" y="562" type="curve" smooth="yes"/>
      <point x="371" y="562" type="line" smooth="yes"/>
      <point x="392" y="562"/>
      <point x="409" y="545"/>
      <point x="409" y="524" type="curve" smooth="yes"/>
      <point x="409" y="503"/>
      <point x="392" y="486"/>
      <point x="371" y="486" type="curve" smooth="yes"/>
    </contour>
    <contour>
      <point x="316" y="31" type="line" smooth="yes"/>
      <point x="312" y="10"/>
      <point x="293" y="-4"/>
      <point x="272" y="0" type="curve" smooth="yes"/>
      <point x="251" y="4"/>
      <point x="238" y="23"/>
      <point x="242" y="44" type="curve" smooth="yes"/>
      <point x="365" y="692" type="line" smooth="yes"/>
      <point x="369" y="713"/>
      <point x="388" y="726"/>
      <point x="409" y="722" type="curve" smooth="yes"/>
      <point x="430" y="718"/>
      <point x="443" y="699"/>
      <point x="439" y="678" type="curve" smooth="yes"/>
    </contour>
  </outline>
</glyph>
<glyph name="uni02EC" format="1">
  <advance width="339"/>
  <unicode hex="02EC"/>
  <outline>
    <contour>
      <point x="276" y="-61" type="line"/>
      <point x="131" y="-232" type="line"/>
      <point x="13" y="-232" type="line"/>
      <point x="-64" y="-61" type="line"/>
      <point x="19" y="-61" type="line"/>
      <point x="87" y="-155" type="line"/>
      <point x="192" y="-61" type="line"/>
    </contour>
  </outline>
</glyph>
<glyph name="uni02ED" format="1">
  <advance width="493"/>
  <unicode hex="02ED"/>
  <outline>
    <contour>
      <point x="463" y="469" type="line"/>
      <point x="448" y="388" type="line"/>
      <point x="44" y="388" type="line"/>
      <point x="60" y="469" type="line"/>
    </contour>
    <contour>
      <point x="493" y="603" type="line"/>
      <point x="478" y="522" type="line"/>
      <point x="74" y="522" type="line"/>
      <point x="90" y="603" type="line"/>
    </contour>
  </outline>
</glyph>
<glyph name="uni02F3" format="1">
  <advance width="301"/>
  <unicode hex="02F3"/>
  <outline>
    <contour>
      <point x="190" y="-163" type="curve" smooth="yes"/>
      <point x="190" y="-243"/>
      <point x="116" y="-313"/>
      <point x="37" y="-313" type="curve" smooth="yes"/>
      <point x="-22" y="-313"/>
      <point x="-67" y="-272"/>
      <point x="-67" y="-212" type="curve" smooth="yes"/>
      <point x="-67" y="-133"/>
      <point x="7" y="-61"/>
      <point x="86" y="-61" type="curve" smooth="yes"/>
      <point x="145" y="-61"/>
      <point x="190" y="-103"/>
    </contour>
    <contour>
      <point x="126" y="-175" type="curve" smooth="yes"/>
      <point x="126" y="-145"/>
      <point x="103" y="-124"/>
      <point x="74" y="-124" type="curve" smooth="yes"/>
      <point x="34" y="-124"/>
      <point x="-2" y="-160"/>
      <point x="-2" y="-200" type="curve" smooth="yes"/>
      <point x="-2" y="-229"/>
      <point x="19" y="-250"/>
      <point x="48" y="-250" type="curve" smooth="yes"/>
      <point x="88" y="-250"/>
      <point x="126" y="-215"/>
    </contour>
  </outline>
</glyph>
<glyph name="uni02F8" format="1">
  <advance width="317"/>
  <unicode hex="02F8"/>
  <outline>
    <contour>
      <point x="308" y="661" type="curve" smooth="yes"/>
      <point x="308" y="615"/>
      <point x="271" y="578"/>
      <point x="225" y="578" type="curve" smooth="yes"/>
      <point x="179" y="578"/>
      <point x="141" y="615"/>
      <point x="141" y="661" type="curve" smooth="yes"/>
      <point x="141" y="707"/>
      <point x="179" y="745"/>
      <point x="225" y="745" type="curve" smooth="yes"/>
      <point x="271" y="745"/>
      <point x="308" y="707"/>
    </contour>
    <contour>
      <point x="240" y="318" type="curve" smooth="yes"/>
      <point x="240" y="272"/>
      <point x="203" y="235"/>
      <point x="157" y="235" type="curve" smooth="yes"/>
      <point x="111" y="235"/>
      <point x="73" y="272"/>
      <point x="73" y="318" type="curve" smooth="yes"/>
      <point x="73" y="364"/>
      <point x="111" y="402"/>
      <point x="157" y="402" type="curve" smooth="yes"/>
      <point x="203" y="402"/>
      <point x="240" y="364"/>
    </contour>
  </outline>
</glyph>
<glyph name="uni02FB" format="1">
  <advance width="308"/>
  <unicode hex="02FB"/>
  <outline>
    <contour>
      <point x="285" y="-148" type="line"/>
      <point x="25" y="-148" type="line"/>
      <point x="25" y="171" type="line"/>
      <point x="68" y="171" type="line"/>
      <point x="68" y="-106" type="line"/>
      <point x="285" y="-106" type="line"/>
    </contour>
  </outline>
</glyph>
<glyph name="gravecomb" format="1">
  <advance width="0"/>
  <unicode hex="0300"/>
  <outline>
    <contour>
      <point x="-104" y="551" type="line"/>
      <point x="-174" y="551" type="line"/>
      <point x="-336" y="639" type="line" smooth="yes"/>
      <point x="-350" y="647"/>
      <point x="-361" y="668"/>
      <point x="-361" y="681" type="curve" smooth="yes"/>
      <point x="-361" y="705"/>
      <point x="-347" y="734"/>
      <point x="-304" y="734" type="curve" smooth="yes"/>
      <point x="-277" y="734"/>
      <point x="-264" y="727"/>
      <point x="-241" y="702" type="curve" smooth="yes"/>
    </contour>
  </outline>
</glyph>
<glyph name="uni0302" format="1">
  <advance width="0"/>
  <unicode hex="0302"/>
  <outline>
    <contour>
      <point x="-44" y="551" type="line"/>
      <point x="-128" y="551" type="line"/>
      <point x="-195" y="646" type="line"/>
      <point x="-301" y="551" type="line"/>
      <point x="-384" y="551" type="line"/>
      <point x="-239" y="722" type="line"/>
      <point x="-121" y="722" type="line"/>
    </contour>
  </outline>
</glyph>
<glyph name="uni0305" format="1">
  <advance width="0"/>
  <unicode hex="0305"/>
  <outline>
    <contour>
      <point x="177" y="796" type="line"/>
      <point x="162" y="715" type="line"/>
      <point x="-522" y="715" type="line"/>
      <point x="-506" y="796" type="line"/>
    </contour>
  </outline>
</glyph>
<glyph name="uni0308" format="1">
  <advance width="0"/>
  <unicode hex="0308"/>
  <outline>
    <contour>
      <point x="-19" y="654" type="curve" smooth="yes"/>
      <point x="-19" y="616"/>
      <point x="-50" y="585"/>
      <point x="-88" y="585" type="curve" smooth="yes"/>
      <point x="-126" y="585"/>
      <point x="-156" y="616"/>
      <point x="-156" y="654" type="curve" smooth="yes"/>
      <point x="-156" y="692"/>
      <point x="-126" y="723"/>
      <point x="-88" y="723" type="curve" smooth="yes"/>
      <point x="-50" y="723"/>
      <point x="-19" y="692"/>
    </contour>
    <contour>
      <point x="-229" y="654" type="curve" smooth="yes"/>
      <point x="-229" y="616"/>
      <point x="-260" y="585"/>
      <point x="-298" y="585" type="curve" smooth="yes"/>
      <point x="-336" y="585"/>
      <point x="-367" y="616"/>
      <point x="-367" y="654" type="curve" smooth="yes"/>
      <point x="-367" y="692"/>
      <point x="-336" y="723"/>
      <point x="-298" y="723" type="curve" smooth="yes"/>
      <point x="-260" y="723"/>
      <point x="-229" y="692"/>
    </contour>
  </outline>
</glyph>
<glyph name="uni030A" format="1">
  <advance width="0"/>
  <unicode hex="030A"/>
  <outline>
    <contour>
      <point x="-52" y="702" type="curve" smooth="yes"/>
      <point x="-52" y="622"/>
      <point x="-127" y="551"/>
      <point x="-205" y="551" type="curve" smooth="yes"/>
      <point x="-264" y="551"/>
      <point x="-309" y="592"/>
      <point x="-309" y="652" type="curve" smooth="yes"/>
      <point x="-309" y="732"/>
      <point x="-234" y="803"/>
      <point x="-155" y="803" type="curve" smooth="yes"/>
      <point x="-96" y="803"/>
      <point x="-52" y="761"/>
    </contour>
    <contour>
      <point x="-116" y="689" type="curve" smooth="yes"/>
      <point x="-116" y="719"/>
      <point x="-138" y="740"/>
      <point x="-168" y="740" type="curve" smooth="yes"/>
      <point x="-207" y="740"/>
      <point x="-245" y="704"/>
      <point x="-245" y="665" type="curve" smooth="yes"/>
      <point x="-245" y="635"/>
      <point x="-222" y="614"/>
      <point x="-193" y="614" type="curve" smooth="yes"/>
      <point x="-153" y="614"/>
      <point x="-116" y="650"/>
    </contour>
  </outline>
</glyph>
<glyph name="uni0310" format="1">
  <advance width="0"/>
  <unicode hex="0310"/>
  <outline>
    <contour>
      <point x="-25" y="714" type="line"/>
      <point x="-43" y="619"/>
      <point x="-114" y="551"/>
      <point x="-213" y="551" type="curve" smooth="yes"/>
      <point x="-291" y="551"/>
      <point x="-342" y="593"/>
      <point x="-342" y="672" type="curve" smooth="yes"/>
      <point x="-342" y="686"/>
      <point x="-340" y="700"/>
      <point x="-337" y="714" type="curve"/>
      <point x="-285" y="714" type="line"/>
      <point x="-284" y="660"/>
      <point x="-249" y="632"/>
      <point x="-197" y="632" type="curve" smooth="yes"/>
      <point x="-142" y="632"/>
      <point x="-98" y="663"/>
      <point x="-77" y="714" type="curve"/>
    </contour>
    <contour>
      <point x="-113" y="747" type="curve" smooth="yes"/>
      <point x="-113" y="710"/>
      <point x="-142" y="679"/>
      <point x="-180" y="679" type="curve" smooth="yes"/>
      <point x="-219" y="679"/>
      <point x="-248" y="708"/>
      <point x="-248" y="747" type="curve" smooth="yes"/>
      <point x="-248" y="787"/>
      <point x="-221" y="820"/>
      <point x="-181" y="820" type="curve" smooth="yes"/>
      <point x="-142" y="820"/>
      <point x="-113" y="788"/>
    </contour>
  </outline>
</glyph>
<glyph name="uni0312" format="1">
  <advance width="0"/>
  <unicode hex="0312"/>
  <outline>
    <contour>
      <point x="-275" y="617" type="curve" smooth="yes"/>
      <point x="-275" y="701"/>
      <point x="-176" y="754"/>
      <point x="-105" y="767" type="curve"/>
      <point x="-114" y="727" type="line"/>
      <point x="-147" y="718"/>
      <point x="-192" y="689"/>
      <point x="-200" y="652" type="curve"/>
      <point x="-137" y="652" type="line"/>
      <point x="-128" y="643"/>
      <point x="-124" y="631"/>
      <point x="-124" y="619" type="curve" smooth="yes"/>
      <point x="-124" y="575"/>
      <point x="-165" y="550"/>
      <point x="-204" y="550" type="curve" smooth="yes"/>
      <point x="-245" y="550"/>
      <point x="-275" y="575"/>
    </contour>
  </outline>
</glyph>
<glyph name="uni0315" format="1">
  <advance width="153"/>
  <unicode hex="0315"/>
  <outline>
    <contour>
      <point x="239" y="798" type="curve" smooth="yes"/>
      <point x="239" y="714"/>
      <point x="140" y="661"/>
      <point x="69" y="648" type="curve"/>
      <point x="77" y="688" type="line"/>
      <point x="110" y="697"/>
      <point x="155" y="726"/>
      <point x="163" y="763" type="curve"/>
      <point x="100" y="763" type="line"/>
      <point x="91" y="772"/>
      <point x="87" y="784"/>
      <point x="87" y="796" type="curve" smooth="yes"/>
      <point x="87" y="840"/>
      <point x="128" y="865"/>
      <point x="167" y="865" type="curve" smooth="yes"/>
      <point x="208" y="865"/>
      <point x="239" y="840"/>
    </contour>
  </outline>
</glyph>
<glyph name="uni0316" format="1">
  <advance width="0"/>
  <unicode hex="0316"/>
  <outline>
    <contour>
      <point x="-233" y="-245" type="line"/>
      <point x="-304" y="-245" type="line"/>
      <point x="-465" y="-156" type="line" smooth="yes"/>
      <point x="-479" y="-148"/>
      <point x="-491" y="-127"/>
      <point x="-491" y="-115" type="curve" smooth="yes"/>
      <point x="-491" y="-90"/>
      <point x="-477" y="-61"/>
      <point x="-434" y="-61" type="curve" smooth="yes"/>
      <point x="-407" y="-61"/>
      <point x="-394" y="-68"/>
      <point x="-371" y="-93" type="curve" smooth="yes"/>
    </contour>
  </outline>
</glyph>
<glyph name="uni031B" format="1">
  <advance width="116"/>
  <unicode hex="031B"/>
  <outline>
    <contour>
      <point x="-68" y="362" type="curve"/>
      <point x="-60" y="405" type="line"/>
      <point x="-8" y="425"/>
      <point x="47" y="465"/>
      <point x="59" y="523" type="curve"/>
      <point x="-15" y="523" type="line"/>
      <point x="-15" y="523"/>
      <point x="-29" y="552"/>
      <point x="-24" y="580" type="curve" smooth="yes"/>
      <point x="-14" y="629"/>
      <point x="27" y="645"/>
      <point x="60" y="645" type="curve" smooth="yes"/>
      <point x="105" y="645"/>
      <point x="130" y="611"/>
      <point x="117" y="546" type="curve" smooth="yes"/>
      <point x="104" y="480"/>
      <point x="30" y="392"/>
    </contour>
  </outline>
</glyph>
<glyph name="uni031F" format="1">
  <advance width="0"/>
  <unicode hex="031F"/>
  <outline>
    <contour>
      <point x="-457" y="-186" type="line"/>
      <point x="-447" y="-131" type="line"/>
      <point x="-382" y="-131" type="line"/>
      <point x="-368" y="-61" type="line"/>
      <point x="-313" y="-61" type="line"/>
      <point x="-327" y="-131" type="line"/>
      <point x="-262" y="-131" type="line"/>
      <point x="-272" y="-186" type="line"/>
      <point x="-337" y="-186" type="line"/>
      <point x="-351" y="-255" type="line"/>
      <point x="-405" y="-255" type="line"/>
      <point x="-392" y="-186" type="line"/>
    </contour>
  </outline>
</glyph>
<glyph name="uni0329" format="1">
  <advance width="0"/>
  <unicode hex="0329"/>
  <outline>
    <contour>
      <point x="-308" y="-61" type="line"/>
      <point x="-345" y="-245" type="line"/>
      <point x="-406" y="-245" type="line"/>
      <point x="-369" y="-61" type="line"/>
    </contour>
  </outline>
</glyph>
<glyph name="uni0332" format="1">
  <advance width="0"/>
  <unicode hex="0332"/>
  <outline>
    <contour>
      <point x="-1" y="-85" type="line"/>
      <point x="-18" y="-166" type="line"/>
      <point x="-701" y="-166" type="line"/>
      <point x="-685" y="-85" type="line"/>
    </contour>
  </outline>
</glyph>
<glyph name="uni0334" format="1">
  <advance width="0"/>
  <unicode hex="0334"/>
  <outline>
    <contour>
      <point x="-87" y="312" type="line"/>
      <point x="-117" y="242"/>
      <point x="-164" y="187"/>
      <point x="-232" y="187" type="curve" smooth="yes"/>
      <point x="-285" y="187"/>
      <point x="-296" y="234"/>
      <point x="-355" y="234" type="curve" smooth="yes"/>
      <point x="-376" y="234"/>
      <point x="-401" y="214"/>
      <point x="-410" y="187" type="curve"/>
      <point x="-462" y="187" type="line"/>
      <point x="-432" y="256"/>
      <point x="-385" y="312"/>
      <point x="-317" y="312" type="curve" smooth="yes"/>
      <point x="-264" y="312"/>
      <point x="-254" y="263"/>
      <point x="-195" y="263" type="curve" smooth="yes"/>
      <point x="-174" y="263"/>
      <point x="-150" y="285"/>
      <point x="-142" y="312" type="curve"/>
    </contour>
  </outline>
</glyph>
<glyph name="uni0337" format="1">
  <advance width="0"/>
  <unicode hex="0337"/>
  <outline>
    <contour>
      <point x="-55" y="531" type="line"/>
      <point x="-455" y="-94" type="line"/>
      <point x="-506" y="-60" type="line"/>
      <point x="-111" y="563" type="line"/>
    </contour>
  </outline>
</glyph>
<glyph name="uni0339" format="1">
  <advance width="0"/>
  <unicode hex="0339"/>
  <outline>
    <contour>
      <point x="-297" y="-142" type="curve" smooth="yes"/>
      <point x="-297" y="-228"/>
      <point x="-361" y="-277"/>
      <point x="-442" y="-277" type="curve"/>
      <point x="-434" y="-237" type="line"/>
      <point x="-377" y="-237"/>
      <point x="-344" y="-207"/>
      <point x="-344" y="-148" type="curve" smooth="yes"/>
      <point x="-344" y="-109"/>
      <point x="-374" y="-101"/>
      <point x="-407" y="-101" type="curve"/>
      <point x="-400" y="-61" type="line"/>
      <point x="-346" y="-61"/>
      <point x="-297" y="-81"/>
    </contour>
  </outline>
</glyph>
<glyph name="uni033B" format="1">
  <advance width="0"/>
  <unicode hex="033B"/>
  <outline>
    <contour>
      <point x="-229" y="-61" type="line"/>
      <point x="-273" y="-280" type="line"/>
      <point x="-492" y="-280" type="line"/>
      <point x="-448" y="-61" type="line"/>
    </contour>
    <contour>
      <point x="-286" y="-109" type="line"/>
      <point x="-410" y="-109" type="line"/>
      <point x="-434" y="-232" type="line"/>
      <point x="-311" y="-232" type="line"/>
    </contour>
  </outline>
</glyph>
<glyph name="uni033D" format="1">
  <advance width="0"/>
  <unicode hex="033D"/>
  <outline>
    <contour>
      <point x="-32" y="748" type="line"/>
      <point x="-149" y="649" type="line"/>
      <point x="-69" y="551" type="line"/>
      <point x="-160" y="551" type="line"/>
      <point x="-204" y="604" type="line"/>
      <point x="-268" y="551" type="line"/>
      <point x="-357" y="551" type="line"/>
      <point x="-240" y="649" type="line"/>
      <point x="-319" y="748" type="line"/>
      <point x="-228" y="748" type="line"/>
      <point x="-186" y="694" type="line"/>
      <point x="-122" y="748" type="line"/>
    </contour>
  </outline>
</glyph>
<glyph name="uni033E" format="1">
  <advance width="0"/>
  <unicode hex="033E"/>
  <outline>
    <contour>
      <point x="-88" y="876" type="curve"/>
      <point x="-98" y="822" type="line"/>
      <point x="-124" y="819"/>
      <point x="-149" y="799"/>
      <point x="-153" y="778" type="curve" smooth="yes"/>
      <point x="-165" y="719"/>
      <point x="-122" y="699"/>
      <point x="-132" y="646" type="curve" smooth="yes"/>
      <point x="-145" y="579"/>
      <point x="-207" y="542"/>
      <point x="-279" y="525" type="curve"/>
      <point x="-269" y="580" type="line"/>
      <point x="-242" y="583"/>
      <point x="-216" y="602"/>
      <point x="-212" y="624" type="curve" smooth="yes"/>
      <point x="-201" y="683"/>
      <point x="-245" y="703"/>
      <point x="-235" y="755" type="curve" smooth="yes"/>
      <point x="-222" y="823"/>
      <point x="-160" y="859"/>
    </contour>
  </outline>
</glyph>
<glyph name="uni0347" format="1">
  <advance width="0"/>
  <unicode hex="0347"/>
  <outline>
    <contour>
      <point x="-146" y="-85" type="line"/>
      <point x="-163" y="-166" type="line"/>
      <point x="-553" y="-166" type="line"/>
      <point x="-537" y="-85" type="line"/>
    </contour>
    <contour>
      <point x="-176" y="-215" type="line"/>
      <point x="-192" y="-295" type="line"/>
      <point x="-583" y="-295" type="line"/>
      <point x="-566" y="-215" type="line"/>
    </contour>
  </outline>
</glyph>
<glyph name="uni0348" format="1">
  <advance width="0"/>
  <unicode hex="0348"/>
  <outline>
    <contour>
      <point x="-240" y="-61" type="line"/>
      <point x="-276" y="-245" type="line"/>
      <point x="-337" y="-245" type="line"/>
      <point x="-302" y="-61" type="line"/>
    </contour>
    <contour>
      <point x="-376" y="-61" type="line"/>
      <point x="-414" y="-245" type="line"/>
      <point x="-475" y="-245" type="line"/>
      <point x="-438" y="-61" type="line"/>
    </contour>
  </outline>
</glyph>
<glyph name="uni0352" format="1">
  <advance width="0"/>
  <unicode hex="0352"/>
  <outline>
    <contour>
      <point x="-45" y="633" type="curve" smooth="yes"/>
      <point x="-45" y="619"/>
      <point x="-47" y="605"/>
      <point x="-49" y="591" type="curve"/>
      <point x="-103" y="591" type="line"/>
      <point x="-104" y="645"/>
      <point x="-138" y="673"/>
      <point x="-189" y="673" type="curve" smooth="yes"/>
      <point x="-244" y="673"/>
      <point x="-290" y="642"/>
      <point x="-311" y="591" type="curve"/>
      <point x="-362" y="591" type="line"/>
      <point x="-343" y="686"/>
      <point x="-273" y="754"/>
      <point x="-173" y="754" type="curve" smooth="yes"/>
      <point x="-96" y="754"/>
      <point x="-45" y="712"/>
    </contour>
    <contour>
      <point x="-135" y="549" type="curve" smooth="yes"/>
      <point x="-135" y="512"/>
      <point x="-164" y="481"/>
      <point x="-202" y="481" type="curve" smooth="yes"/>
      <point x="-241" y="481"/>
      <point x="-270" y="510"/>
      <point x="-270" y="549" type="curve" smooth="yes"/>
      <point x="-270" y="589"/>
      <point x="-243" y="622"/>
      <point x="-203" y="622" type="curve" smooth="yes"/>
      <point x="-164" y="622"/>
      <point x="-135" y="590"/>
    </contour>
  </outline>
</glyph>
<glyph name="uni0353" format="1">
  <advance width="0"/>
  <unicode hex="0353"/>
  <outline>
    <contour>
      <point x="-297" y="-289" type="line"/>
      <point x="-363" y="-223" type="line"/>
      <point x="-430" y="-289" type="line"/>
      <point x="-470" y="-249" type="line"/>
      <point x="-403" y="-182" type="line"/>
      <point x="-469" y="-117" type="line"/>
      <point x="-429" y="-76" type="line"/>
      <point x="-363" y="-142" type="line"/>
      <point x="-298" y="-77" type="line"/>
      <point x="-258" y="-117" type="line"/>
      <point x="-323" y="-182" type="line"/>
      <point x="-257" y="-248" type="line"/>
    </contour>
  </outline>
</glyph>
<glyph name="uni0355" format="1">
  <advance width="0"/>
  <unicode hex="0355"/>
  <outline>
    <contour>
      <point x="-136" y="-217" type="line"/>
      <point x="-568" y="-354" type="line"/>
      <point x="-568" y="-316" type="line"/>
      <point x="-182" y="-198" type="line"/>
      <point x="-568" y="-79" type="line"/>
      <point x="-568" y="-41" type="line"/>
      <point x="-136" y="-179" type="line"/>
    </contour>
  </outline>
</glyph>
<glyph name="uni035A" format="1">
  <advance width="0"/>
  <unicode hex="035A"/>
  <outline>
    <contour>
      <point x="-140" y="-163" type="curve" smooth="yes"/>
      <point x="-140" y="-243"/>
      <point x="-214" y="-313"/>
      <point x="-293" y="-313" type="curve" smooth="yes"/>
      <point x="-330" y="-313"/>
      <point x="-361" y="-297"/>
      <point x="-380" y="-271" type="curve"/>
      <point x="-408" y="-297"/>
      <point x="-446" y="-313"/>
      <point x="-484" y="-313" type="curve" smooth="yes"/>
      <point x="-543" y="-313"/>
      <point x="-588" y="-272"/>
      <point x="-588" y="-212" type="curve" smooth="yes"/>
      <point x="-588" y="-133"/>
      <point x="-513" y="-61"/>
      <point x="-434" y="-61" type="curve" smooth="yes"/>
      <point x="-397" y="-61"/>
      <point x="-366" y="-77"/>
      <point x="-348" y="-104" type="curve"/>
      <point x="-320" y="-78"/>
      <point x="-282" y="-61"/>
      <point x="-244" y="-61" type="curve" smooth="yes"/>
      <point x="-185" y="-61"/>
      <point x="-140" y="-103"/>
    </contour>
    <contour>
      <point x="-204" y="-175" type="curve" smooth="yes"/>
      <point x="-204" y="-145"/>
      <point x="-227" y="-124"/>
      <point x="-256" y="-124" type="curve" smooth="yes"/>
      <point x="-296" y="-124"/>
      <point x="-333" y="-160"/>
      <point x="-333" y="-200" type="curve" smooth="yes"/>
      <point x="-333" y="-229"/>
      <point x="-311" y="-250"/>
      <point x="-282" y="-250" type="curve" smooth="yes"/>
      <point x="-242" y="-250"/>
      <point x="-204" y="-215"/>
    </contour>
    <contour>
      <point x="-394" y="-175" type="curve" smooth="yes"/>
      <point x="-394" y="-145"/>
      <point x="-417" y="-124"/>
      <point x="-446" y="-124" type="curve" smooth="yes"/>
      <point x="-486" y="-124"/>
      <point x="-523" y="-160"/>
      <point x="-523" y="-200" type="curve" smooth="yes"/>
      <point x="-523" y="-229"/>
      <point x="-501" y="-250"/>
      <point x="-472" y="-250" type="curve" smooth="yes"/>
      <point x="-432" y="-250"/>
      <point x="-394" y="-215"/>
    </contour>
  </outline>
</glyph>
<glyph name="uni035E" format="1">
  <advance width="0"/>
  <unicode hex="035E"/>
  <outline>
    <contour>
      <point x="464" y="876" type="line"/>
      <point x="449" y="796" type="line"/>
      <point x="-234" y="796" type="line"/>
      <point x="-218" y="876" type="line"/>
    </contour>
  </outline>
</glyph>
<glyph name="uni0363" format="1">
  <advance width="0"/>
  <unicode hex="0363"/>
  <outline>
    <contour>
      <point x="-23" y="584" type="line"/>
      <point x="-53" y="573"/>
      <point x="-89" y="559"/>
      <point x="-122" y="559" type="curve" smooth="yes"/>
      <point x="-150" y="559"/>
      <point x="-169" y="568"/>
      <point x="-177" y="586" type="curve"/>
      <point x="-200" y="572"/>
      <point x="-231" y="559"/>
      <point x="-261" y="559" type="curve" smooth="yes"/>
      <point x="-342" y="559"/>
      <point x="-370" y="624"/>
      <point x="-370" y="668" type="curve" smooth="yes"/>
      <point x="-370" y="758"/>
      <point x="-307" y="866"/>
      <point x="-167" y="866" type="curve" smooth="yes"/>
      <point x="-148" y="866"/>
      <point x="-128" y="860"/>
      <point x="-113" y="853" type="curve"/>
      <point x="-109" y="858" type="line"/>
      <point x="-39" y="858" type="line"/>
      <point x="-44" y="846"/>
      <point x="-54" y="827"/>
      <point x="-56" y="822" type="curve" smooth="yes"/>
      <point x="-98" y="624" type="line" smooth="yes"/>
      <point x="-98" y="606"/>
      <point x="-96" y="600"/>
      <point x="-80" y="600" type="curve" smooth="yes"/>
      <point x="-77" y="600"/>
      <point x="-30" y="611"/>
      <point x="-23" y="613" type="curve"/>
    </contour>
    <contour>
      <point x="-147" y="802" type="curve" smooth="yes"/>
      <point x="-146" y="806"/>
      <point x="-150" y="831"/>
      <point x="-157" y="831" type="curve" smooth="yes"/>
      <point x="-241" y="831"/>
      <point x="-278" y="741"/>
      <point x="-278" y="672" type="curve" smooth="yes"/>
      <point x="-278" y="640"/>
      <point x="-280" y="604"/>
      <point x="-240" y="604" type="curve" smooth="yes"/>
      <point x="-213" y="604"/>
      <point x="-190" y="631"/>
      <point x="-181" y="639" type="curve"/>
      <point x="-171" y="686"/>
      <point x="-177" y="655"/>
    </contour>
  </outline>
</glyph>
<glyph name="uni0364" format="1">
  <advance width="0"/>
  <unicode hex="0364"/>
  <outline>
    <contour>
      <point x="-46" y="803" type="curve" smooth="yes"/>
      <point x="-46" y="740"/>
      <point x="-146" y="704"/>
      <point x="-233" y="697" type="curve"/>
      <point x="-234" y="690"/>
      <point x="-235" y="679"/>
      <point x="-235" y="673" type="curve" smooth="yes"/>
      <point x="-235" y="631"/>
      <point x="-222" y="600"/>
      <point x="-186" y="600" type="curve" smooth="yes"/>
      <point x="-158" y="600"/>
      <point x="-132" y="620"/>
      <point x="-61" y="677" type="curve"/>
      <point x="-61" y="620" type="line"/>
      <point x="-86" y="597"/>
      <point x="-144" y="559"/>
      <point x="-208" y="559" type="curve" smooth="yes"/>
      <point x="-264" y="559"/>
      <point x="-325" y="581"/>
      <point x="-325" y="670" type="curve" smooth="yes"/>
      <point x="-325" y="762"/>
      <point x="-249" y="866"/>
      <point x="-138" y="866" type="curve" smooth="yes"/>
      <point x="-74" y="866"/>
      <point x="-46" y="821"/>
    </contour>
    <contour>
      <point x="-130" y="803" type="curve" smooth="yes"/>
      <point x="-130" y="817"/>
      <point x="-134" y="832"/>
      <point x="-153" y="832" type="curve" smooth="yes"/>
      <point x="-193" y="832"/>
      <point x="-217" y="772"/>
      <point x="-229" y="728" type="curve"/>
      <point x="-184" y="738"/>
      <point x="-130" y="767"/>
    </contour>
  </outline>
</glyph>
<glyph name="uni0369" format="1">
  <advance width="0"/>
  <unicode hex="0369"/>
  <outline>
    <contour>
      <point x="-20" y="1008" type="line"/>
      <point x="-94" y="620" type="line" smooth="yes"/>
      <point x="-98" y="600"/>
      <point x="-89" y="596"/>
      <point x="-84" y="596" type="curve" smooth="yes"/>
      <point x="-66" y="596"/>
      <point x="-38" y="607"/>
      <point x="-24" y="613" type="curve"/>
      <point x="-24" y="584" type="line"/>
      <point x="-46" y="572"/>
      <point x="-88" y="559"/>
      <point x="-122" y="559" type="curve" smooth="yes"/>
      <point x="-154" y="559"/>
      <point x="-174" y="570"/>
      <point x="-181" y="587" type="curve"/>
      <point x="-204" y="571"/>
      <point x="-235" y="559"/>
      <point x="-263" y="559" type="curve" smooth="yes"/>
      <point x="-338" y="559"/>
      <point x="-369" y="616"/>
      <point x="-369" y="667" type="curve" smooth="yes"/>
      <point x="-369" y="759"/>
      <point x="-304" y="864"/>
      <point x="-172" y="864" type="curve" smooth="yes"/>
      <point x="-156" y="864"/>
      <point x="-143" y="861"/>
      <point x="-135" y="859" type="curve"/>
      <point x="-115" y="962" type="line"/>
      <point x="-174" y="967" type="line"/>
      <point x="-174" y="989" type="line"/>
      <point x="-64" y="1008" type="line"/>
    </contour>
    <contour>
      <point x="-146" y="802" type="line" smooth="yes"/>
      <point x="-145" y="806"/>
      <point x="-158" y="831"/>
      <point x="-173" y="831" type="curve" smooth="yes"/>
      <point x="-219" y="831"/>
      <point x="-280" y="766"/>
      <point x="-280" y="671" type="curve" smooth="yes"/>
      <point x="-280" y="622"/>
      <point x="-267" y="601"/>
      <point x="-243" y="601" type="curve" smooth="yes"/>
      <point x="-221" y="601"/>
      <point x="-198" y="623"/>
      <point x="-176" y="647" type="curve"/>
    </contour>
  </outline>
</glyph>
<glyph name="uni036B" format="1">
  <advance width="0"/>
  <unicode hex="036B"/>
  <outline>
    <contour>
      <point x="80" y="583" type="line"/>
      <point x="47" y="567"/>
      <point x="18" y="559"/>
      <point x="-16" y="559" type="curve" smooth="yes"/>
      <point x="-55" y="559"/>
      <point x="-88" y="574"/>
      <point x="-82" y="603" type="curve" smooth="yes"/>
      <point x="-46" y="763" type="line" smooth="yes"/>
      <point x="-38" y="800"/>
      <point x="-41" y="819"/>
      <point x="-58" y="819" type="curve" smooth="yes"/>
      <point x="-96" y="819"/>
      <point x="-125" y="783"/>
      <point x="-134" y="770" type="curve"/>
      <point x="-181" y="566" type="line"/>
      <point x="-267" y="566" type="line"/>
      <point x="-222" y="763" type="line" smooth="yes"/>
      <point x="-217" y="787"/>
      <point x="-210" y="819"/>
      <point x="-238" y="819" type="curve" smooth="yes"/>
      <point x="-265" y="819"/>
      <point x="-294" y="788"/>
      <point x="-311" y="769" type="curve"/>
      <point x="-357" y="566" type="line"/>
      <point x="-444" y="566" type="line"/>
      <point x="-386" y="821" type="line"/>
      <point x="-441" y="826" type="line"/>
      <point x="-441" y="846" type="line"/>
      <point x="-334" y="866" type="line"/>
      <point x="-289" y="866" type="line"/>
      <point x="-297" y="831" type="line"/>
      <point x="-266" y="851"/>
      <point x="-231" y="866"/>
      <point x="-201" y="866" type="curve" smooth="yes"/>
      <point x="-165" y="866"/>
      <point x="-145" y="845"/>
      <point x="-135" y="825" type="curve"/>
      <point x="-101" y="848"/>
      <point x="-57" y="866"/>
      <point x="-23" y="866" type="curve" smooth="yes"/>
      <point x="23" y="866"/>
      <point x="58" y="835"/>
      <point x="47" y="787" type="curve" smooth="yes"/>
      <point x="10" y="626" type="line" smooth="yes"/>
      <point x="6" y="609"/>
      <point x="10" y="596"/>
      <point x="26" y="596" type="curve" smooth="yes"/>
      <point x="35" y="596"/>
      <point x="62" y="602"/>
      <point x="80" y="611" type="curve"/>
    </contour>
  </outline>
</glyph>
<glyph name="uni036D" format="1">
  <advance width="0"/>
  <unicode hex="036D"/>
  <outline>
    <contour>
      <point x="-50" y="817" type="line"/>
      <point x="-148" y="817" type="line"/>
      <point x="-189" y="631" type="line" smooth="yes"/>
      <point x="-193" y="612"/>
      <point x="-183" y="600"/>
      <point x="-163" y="600" type="curve" smooth="yes"/>
      <point x="-142" y="600"/>
      <point x="-102" y="614"/>
      <point x="-82" y="621" type="curve"/>
      <point x="-82" y="588" type="line"/>
      <point x="-96" y="582"/>
      <point x="-161" y="559"/>
      <point x="-202" y="559" type="curve" smooth="yes"/>
      <point x="-252" y="559"/>
      <point x="-276" y="581"/>
      <point x="-276" y="613" type="curve" smooth="yes"/>
      <point x="-276" y="620"/>
      <point x="-275" y="628"/>
      <point x="-273" y="637" type="curve" smooth="yes"/>
      <point x="-233" y="815" type="line"/>
      <point x="-281" y="811" type="line"/>
      <point x="-281" y="835" type="line"/>
      <point x="-225" y="856" type="line"/>
      <point x="-192" y="918" type="line"/>
      <point x="-127" y="918" type="line"/>
      <point x="-140" y="850" type="line"/>
      <point x="-50" y="850" type="line"/>
    </contour>
  </outline>
</glyph>
<glyph name="Xi" format="1">
  <advance width="599"/>
  <unicode hex="039E"/>
  <outline>
    <contour>
      <point x="261" y="378" type="curve" smooth="yes"/>
      <point x="382" y="378" type="line" smooth="yes"/>
      <point x="391" y="378"/>
      <point x="401" y="389"/>
      <point x="403" y="396" type="curve" smooth="yes"/>
      <point x="424" y="464" type="line"/>
      <point x="486" y="464" type="line"/>
      <point x="443" y="219" type="line"/>
      <point x="381" y="219" type="line"/>
      <point x="383" y="287" type="line" smooth="yes"/>
      <point x="383" y="294"/>
      <point x="379" y="305"/>
      <point x="370" y="305" type="curve" smooth="yes"/>
      <point x="249" y="305" type="line" smooth="yes"/>
      <point x="240" y="305"/>
      <point x="230" y="294"/>
      <point x="228" y="287" type="curve" smooth="yes"/>
      <point x="207" y="219" type="line"/>
      <point x="145" y="219" type="line"/>
      <point x="188" y="464" type="line"/>
      <point x="250" y="464" type="line"/>
      <point x="248" y="396" type="line" smooth="yes"/>
      <point x="248" y="389"/>
      <point x="252" y="378"/>
    </contour>
    <contour>
      <point x="113" y="671" type="line"/>
      <point x="634" y="671" type="line"/>
      <point x="601" y="482" type="line"/>
      <point x="528" y="482" type="line"/>
      <point x="527" y="565" type="line" smooth="yes"/>
      <point x="526" y="575"/>
      <point x="521" y="583"/>
      <point x="512" y="583" type="curve" smooth="yes"/>
      <point x="204" y="583" type="line" smooth="yes"/>
      <point x="195" y="583"/>
      <point x="187" y="575"/>
      <point x="183" y="565" type="curve" smooth="yes"/>
      <point x="152" y="482" type="line"/>
      <point x="80" y="482" type="line"/>
    </contour>
    <contour>
      <point x="112" y="89" type="curve" smooth="yes"/>
      <point x="430" y="89" type="line" smooth="yes"/>
      <point x="438" y="89"/>
      <point x="449" y="101"/>
      <point x="451" y="108" type="curve" smooth="yes"/>
      <point x="485" y="212" type="line"/>
      <point x="558" y="212" type="line"/>
      <point x="521" y="0" type="line"/>
      <point x="-10" y="0" type="line"/>
      <point x="27" y="212" type="line"/>
      <point x="100" y="212" type="line"/>
      <point x="97" y="108" type="line" smooth="yes"/>
      <point x="97" y="101"/>
      <point x="104" y="89"/>
    </contour>
  </outline>
</glyph>
<glyph name="alpha" format="1">
  <advance width="589"/>
  <unicode hex="03B1"/>
  <outline>
    <contour>
      <point x="604" y="121" type="line"/>
      <point x="559" y="43"/>
      <point x="515" y="-12"/>
      <point x="438" y="-12" type="curve" smooth="yes"/>
      <point x="388" y="-12"/>
      <point x="370" y="30"/>
      <point x="360" y="66" type="curve"/>
      <point x="317" y="13"/>
      <point x="272" y="-12"/>
      <point x="186" y="-12" type="curve" smooth="yes"/>
      <point x="71" y="-12"/>
      <point x="32" y="103"/>
      <point x="32" y="171" type="curve" smooth="yes"/>
      <point x="32" y="322"/>
      <point x="119" y="500"/>
      <point x="322" y="500" type="curve" smooth="yes"/>
      <point x="400" y="500"/>
      <point x="441" y="470"/>
      <point x="458" y="403" type="curve"/>
      <point x="471" y="436"/>
      <point x="497" y="488"/>
      <point x="497" y="488" type="curve"/>
      <point x="600" y="488" type="line"/>
      <point x="600" y="488"/>
      <point x="513" y="279"/>
      <point x="471" y="217" type="curve"/>
      <point x="471" y="102" type="line" smooth="yes"/>
      <point x="471" y="80"/>
      <point x="485" y="76"/>
      <point x="501" y="76" type="curve" smooth="yes"/>
      <point x="514" y="76"/>
      <point x="532" y="100"/>
      <point x="540" y="121" type="curve"/>
    </contour>
    <contour>
      <point x="354" y="201" type="curve"/>
      <point x="372" y="292"/>
      <point x="374" y="437"/>
      <point x="315" y="437" type="curve" smooth="yes"/>
      <point x="226" y="437"/>
      <point x="163" y="286"/>
      <point x="163" y="187" type="curve" smooth="yes"/>
      <point x="163" y="142"/>
      <point x="158" y="68"/>
      <point x="222" y="68" type="curve" smooth="yes"/>
      <point x="295" y="68"/>
      <point x="317" y="133"/>
    </contour>
  </outline>
</glyph>
<glyph name="theta" format="1">
  <advance width="595"/>
  <unicode hex="03B8"/>
  <outline>
    <contour>
      <point x="583" y="447" type="curve" smooth="yes"/>
      <point x="583" y="266"/>
      <point x="494" y="-12"/>
      <point x="245" y="-12" type="curve" smooth="yes"/>
      <point x="82" y="-12"/>
      <point x="42" y="94"/>
      <point x="42" y="221" type="curve" smooth="yes"/>
      <point x="42" y="404"/>
      <point x="129" y="687"/>
      <point x="380" y="687" type="curve" smooth="yes"/>
      <point x="548" y="687"/>
      <point x="583" y="572"/>
    </contour>
    <contour>
      <point x="439" y="494" type="curve" smooth="yes"/>
      <point x="439" y="564"/>
      <point x="436" y="625"/>
      <point x="371" y="625" type="curve" smooth="yes"/>
      <point x="287" y="625"/>
      <point x="239" y="485"/>
      <point x="209" y="377" type="curve"/>
      <point x="431" y="377" type="line"/>
      <point x="435" y="415"/>
      <point x="439" y="457"/>
    </contour>
    <contour>
      <point x="421" y="320" type="curve"/>
      <point x="197" y="320" type="line"/>
      <point x="191" y="285"/>
      <point x="184" y="241"/>
      <point x="184" y="199" type="curve" smooth="yes"/>
      <point x="184" y="145"/>
      <point x="176" y="49"/>
      <point x="254" y="49" type="curve" smooth="yes"/>
      <point x="341" y="49"/>
      <point x="396" y="203"/>
    </contour>
  </outline>
</glyph>
<glyph name="uni03BC" format="1">
  <advance width="546"/>
  <unicode hex="03BC"/>
  <outline>
    <contour>
      <point x="-46" y="-206" type="line"/>
      <point x="90" y="488" type="line"/>
      <point x="224" y="488" type="line"/>
      <point x="165" y="190" type="line" smooth="yes"/>
      <point x="156" y="141"/>
      <point x="150" y="79"/>
      <point x="228" y="79" type="curve" smooth="yes"/>
      <point x="257" y="79"/>
      <point x="290" y="91"/>
      <point x="304" y="96" type="curve"/>
      <point x="381" y="488" type="line"/>
      <point x="515" y="488" type="line"/>
      <point x="439" y="100" type="line" smooth="yes"/>
      <point x="432" y="63"/>
      <point x="444" y="48"/>
      <point x="465" y="48" type="curve" smooth="yes"/>
      <point x="475" y="48"/>
      <point x="488" y="52"/>
      <point x="549" y="84" type="curve"/>
      <point x="549" y="28" type="line"/>
      <point x="522" y="13"/>
      <point x="448" y="-12"/>
      <point x="391" y="-12" type="curve" smooth="yes"/>
      <point x="317" y="-12"/>
      <point x="297" y="29"/>
      <point x="297" y="55" type="curve"/>
      <point x="270" y="36"/>
      <point x="196" y="-12"/>
      <point x="139" y="-12" type="curve" smooth="yes"/>
      <point x="111" y="-12"/>
      <point x="89" y="-8"/>
      <point x="71" y="0" type="curve"/>
      <point x="77" y="-76"/>
      <point x="98" y="-147"/>
      <point x="100" y="-167" type="curve"/>
      <point x="92" y="-206" type="line"/>
    </contour>
  </outline>
</glyph>
<glyph name="sigma" format="1">
  <advance width="554"/>
  <unicode hex="03C3"/>
  <outline>
    <contour>
      <point x="622" y="519" type="line"/>
      <point x="612" y="449"/>
      <point x="564" y="409"/>
      <point x="533" y="409" type="curve" smooth="yes"/>
      <point x="525" y="409"/>
      <point x="509" y="409"/>
      <point x="497" y="414" type="curve"/>
      <point x="514" y="383"/>
      <point x="522" y="345"/>
      <point x="522" y="303" type="curve" smooth="yes"/>
      <point x="522" y="146"/>
      <point x="414" y="-12"/>
      <point x="232" y="-12" type="curve" smooth="yes"/>
      <point x="95" y="-12"/>
      <point x="32" y="70"/>
      <point x="32" y="181" type="curve" smooth="yes"/>
      <point x="32" y="338"/>
      <point x="135" y="500"/>
      <point x="320" y="500" type="curve" smooth="yes"/>
      <point x="382" y="500"/>
      <point x="429" y="485"/>
      <point x="511" y="485" type="curve" smooth="yes"/>
      <point x="546" y="485"/>
      <point x="562" y="490"/>
      <point x="570" y="519" type="curve"/>
    </contour>
    <contour>
      <point x="378" y="307" type="curve" smooth="yes"/>
      <point x="378" y="405"/>
      <point x="334" y="447"/>
      <point x="309" y="447" type="curve" smooth="yes"/>
      <point x="248" y="447"/>
      <point x="175" y="320"/>
      <point x="175" y="185" type="curve" smooth="yes"/>
      <point x="175" y="82"/>
      <point x="221" y="43"/>
      <point x="244" y="43" type="curve" smooth="yes"/>
      <point x="314" y="43"/>
      <point x="378" y="184"/>
    </contour>
  </outline>
</glyph>
